<svg viewBox="0 0 1000 1000" xmlns="http://www.w3.org/2000/svg"><path d="m237.72 367.31-94.13-182.96 241.84-159.35 141.88 107.49 190.25-61.97 209.85 182.18-87.32 443.93-198.31 186.06-121.05-64.91-173.99 97.07-196.7-170.85z" fill="#caf1ff"/><path d="m815.24 357.45 82.09-116.4-8.95 148.21z" fill="#9de5f9" opacity=".65"/><path d="m777.48 334.48 85.45-131.36-12.5 169.82z" fill="#88e6ff"/><path d="m860.83 231.65-10.4 141.29-72.95-38.46" fill="none" stroke="#191919" stroke-miterlimit="10" stroke-width="1.61"/><path d="m894.36 420.72c-75.4-43-355.66-174.85-674.3 22.46l-70.06 300.82 196.7 170.85 174-97.07 121 64.91 198.39-186.06z" fill="#2dba95"/><path d="m894.36 420.72c-75.4-43-355.66-174.85-674.3 22.46" fill="none" stroke="#191919" stroke-miterlimit="10" stroke-width="1.61"/><path d="m301.59 677-13.6-67.09 55.42-96.02 54.92 9.29-11.93 115.24-47.02 38.32z" fill="#188462"/><g stroke="#191919" stroke-miterlimit="10" stroke-width="1.61"><path d="m398.33 523.18-11.93 115.24-47.02 38.32-37.79.26" fill="none"/><path d="m160.52 483.17-87.93-62.1" fill="#ffdf43"/><path d="m143.99 357.5 43.13 148.73 193.07 96.74-36.68-126.57-37.08 1.22-122.36-104.78z" fill="#191919"/></g><path d="m235.24 361.09-30.99-222.81 146.26 195.86z" fill="#88e6ff"/><path d="m229.66 172.31 120.85 161.83" fill="none" stroke="#191919" stroke-miterlimit="10" stroke-width="1.61"/><g fill="#9de5f9"><path d="m308.37 319.1-30.99-222.81 146.26 195.86z" opacity=".65"/><path d="m383.46 302.08 66.12-215.02 49.74 239.33z" opacity=".65"/><path d="m597.56 309.71 66.12-215.02 49.73 239.33z" opacity=".65"/><path d="m712.14 298.53 95.88-135.96-10.45 173.11z" opacity=".65"/></g><g stroke="#191919" stroke-miterlimit="10" stroke-width="1.61"><g fill="#4ac7e5"><path d="m206.67 142.43 97.86 244.51"/><path d="m215.58 219.72 29.35 18.29"/><path d="m223.14 282.35 52.67 32.83"/><path d="m231.93 205.53 9.2-17.86"/><path d="m261.65 279.8 20.38-37.36"/><path d="m284.97 338.06 34.22-45.86"/></g><path d="m301.59 677 78.6-148.23" fill="#acdd43"/></g><ellipse cx="171.21" cy="488.19" fill="#f7747e" rx="19.03" ry="24.64" transform="matrix(.31680807 -.94848967 .94848967 .31680807 -346.07 495.91)"/><path d="m177.24 470.14c12.91 4.31 20.67 15.89 17.34 25.85s-16.49 14.55-29.4 10.24" fill="none" stroke="#191919" stroke-miterlimit="10" stroke-width="1.61"/><path d="m187.12 506.23 122.22 124.95 97.05 21.77 13.3-95.53-97.68-38.69-38.18-169.69-100.74-19.35z" fill="#ffdf43"/><path d="m324.64 530.39-40.81-181.35" fill="none" stroke="#191919" stroke-miterlimit="10" stroke-width="1.61"/><path d="m187.12 506.23 122.22 124.95 97.05 21.77 13.3-95.53" fill="none" stroke="#191919" stroke-miterlimit="10" stroke-width="1.61"/><path d="m649.86 267.78 74.77-212.16 40.01 241.14z" fill="#88e6ff"/><g stroke="#191919" stroke-miterlimit="10" stroke-width="1.61"><path d="m731.11 94.69 33.53 202.07" fill="none"/><g fill="#4ac7e5"><path d="m724.88 60.41-25.33 262.15"/><path d="m697.3 133.17 17.68 29.72"/><path d="m675.26 192.28 31.73 53.34"/><path d="m718.34 128.06 16.38-11.63"/><path d="m710.65 207.7 35.26-23.85"/><path d="m704.62 270.16 51.45-25.03"/></g></g><path d="m339.9 260.95 23.7-223.71 94.67 225.37z" fill="#88e6ff"/><g stroke="#191919" stroke-miterlimit="10" stroke-width="1.61"><path d="m379.01 73.93 79.26 188.68" fill="none"/><g fill="#4ac7e5"><path d="m364.95 41.86 35.96 260.9"/><path d="m354.93 119.01 24.08 24.84"/><path d="m347.16 181.62 43.2 44.56"/><path d="m374.23 109.18 13.24-15.1"/><path d="m385.15 188.44 28.79-31.35"/><path d="m393.72 250.6 44.28-36.24"/></g></g><path d="m203.97 523.46 77.77 79.51 91.87 15.6 6.58-47.18-96.22-38.15-10.86-125.22-59.12-15.05z" fill="#ffa357"/><g stroke="#191919" stroke-miterlimit="10" stroke-width="1.61"><path d="m283.97 533.24-10.86-125.22" fill="none"/><path d="m203.97 523.46 77.77 79.51 91.87 15.6 6.58-47.18" fill="none"/><path d="m544.35 537.66-82.97 6.98 2.51 79.96 89.75 82.76 19.4-74.34z" fill="#f99898"/><g fill="#ffdf43"><path d="m522.33 464.45-62.2 40.3 1.25 39.89 82.97-6.98z"/><path d="m169.48 480.23-63.02-87.26"/></g></g><path d="m189.4 574.92-58.46-51.74 56.65 59.47 261.88 274.89 36.35-20.28z" fill="#117050"/><g stroke="#191919" stroke-miterlimit="10" stroke-width="1.61"><path d="m499.36 849.24-309.96-274.32-58.46-51.74" fill="none"/><path d="m676.23 535.66 29.51 101.84 7.87-11.25-17.1-70.37 50.72-123.79-50.87-9.99z" fill="#f99898"/><path d="m746.58 277.42-26.87 12.9-23.35 131.78 50.87 9.99 59.84-144.55z" fill="#ffdf43"/><g fill="#191919"><path d="m607.25 743.35-20.29 25.17 38.7-10.1-5.48-35.91h-19.31z"/><path d="m649.98 722.51h-19.6l.12 36.45h39.23l-23.65-14.51z"/></g></g><path d="m681.01 547.95-74.64-21.73-27.8 4.54-27.61 28.81 39.63 162.94h29.59l-20.85-136.61h30.63l.42 136.61h31.15z" fill="#6fecef"/><path d="m630.38 722.51h31.15l19.48-174.56-74.64-21.73-27.8 4.54" fill="none" stroke="#191919" stroke-miterlimit="10" stroke-width="1.61"/><path d="m590.59 722.51h29.59l-20.85-136.61h37.61" fill="none" stroke="#191919" stroke-miterlimit="10" stroke-width="1.61"/><path d="m343.41 746.21 5.47 108.28-110.7 120.51-98.89-6.45 4.3-136.8 120.77-100.3z" fill="#188462"/><path d="m343.41 746.21 5.47 108.28-110.7 120.51-98.89-6.45" fill="none" stroke="#191919" stroke-miterlimit="10" stroke-width="1.61"/><path d="m343.41 746.21-152.53 161.07" fill="#ffdf43" stroke="#191919" stroke-miterlimit="10" stroke-width="1.61"/><path d="m616.52 257 130.06 20.42-65.57 270.53-130.05 11.62-51.6-171.44z" fill="#ffdf43"/><path d="m724.88 366.97-43.87 180.98-130.05 11.62-51.6-171.44 117.16-131.13 130.06 20.42" fill="none" stroke="#191919" stroke-miterlimit="10" stroke-width="1.61"/><path d="m624.12 116.41 31.37 70.39v110.24l-74.57-133.01z" fill="#191919" stroke="#191919" stroke-miterlimit="10" stroke-width="1.61"/><path d="m560.63 436.6 44.07 43.63 33.32-87.26z" fill="#f99898"/><path d="m586.77 474.28 19.18 17.04 46.58-109.44-108.18 54.72" fill="none" stroke="#191919" stroke-miterlimit="10" stroke-width="1.61"/><path d="m257.94 656.5-36.33-5.15-80.2 26.95-10.47 36.59 41.67 23.64 74.17-42.97z" fill="#188462"/><path d="m172.61 738.53 74.17-42.97 11.16-39.06" fill="none" stroke="#191919" stroke-miterlimit="10" stroke-width="1.61"/><path d="m499.36 491.32 36.55 295.58-29.02 8.6-61.27-285.91z" fill="#fff"/><path d="m721.65 681.93-73.28-43.33 19.56-110.03 71.12 39.06 5.6 69.87z" fill="#094f36"/><path d="m499.36 491.32 36.55 295.58-29.02 8.6" fill="none" stroke="#191919" stroke-miterlimit="10" stroke-width="1.61"/><path d="m176.39 570.89-59.84-11.32-10.09 28.48 31.51 17.2z" fill="#188462"/><path d="m106.46 588.05 31.51 17.2 38.42-34.36" fill="none" stroke="#191919" stroke-miterlimit="10" stroke-width="1.61"/><path d="m382.94 746.21 47.03-111.94 65.33 3.23 4.06 108.71z" fill="#188462"/><path d="m499.36 241.95 118.24-47.29 76.31 198.31-158.41 71.48z" fill="#f99898"/><path d="m693.91 392.97-158.41 71.48-36.14-222.5" fill="none" stroke="#191919" stroke-miterlimit="10" stroke-width="1.61"/><path d="m489.69 247.33 127.91-52.67 12.9-154.78-131.14 29.02v54.82l-92.97 45.15v88.13z" fill="#191919" stroke="#191919" stroke-miterlimit="10" stroke-width="1.61"/><path d="m158.93 547.95-8.89-38.36 21.17 13.59z" fill="#188462"/><path d="m483.04 661.41-100.1 84.8h116.42l-4.06-108.71" fill="none" stroke="#191919" stroke-miterlimit="10" stroke-width="1.61"/><path d="m171.21 523.18-12.28 24.77" fill="none" stroke="#191919" stroke-miterlimit="10" stroke-width="1.61"/><ellipse cx="429.97" cy="341.55" fill="#fff" rx="135.36" ry="189.01" transform="matrix(.98023666 -.19782843 .19782843 .98023666 -59.07 91.82)"/><path d="m392.57 156.27c73.28-14.79 149.43 56.17 170.08 158.5s-22 197.26-95.29 212.05c-49.15 9.92-99.6-18.74-133.72-69.57" fill="none" stroke="#191919" stroke-miterlimit="10" stroke-width="1.61"/><ellipse cx="429.97" cy="341.55" fill="#92b6ff" rx="115.08" ry="160.69" transform="matrix(.98023666 -.19782843 .19782843 .98023666 -59.07 91.82)"/><path d="m429.97 634.27 31.26-51.86h81.13l18.27 127.1-58.95 61.69-43.16-24.99z" fill="#f99898"/><g stroke="#191919" stroke-miterlimit="10" stroke-width="1.61"><g fill="none"><path d="m492.92 582.41h49.44l18.27 127.1-58.95 61.69-43.16-24.99"/><path d="m474.64 605.25 71.67 4.66"/><path d="m482.17 652.95 68.96-9.54"/><path d="m488.62 707.36 67.31-30.55"/></g><path d="m257.94 656.5-99.37 50.86" fill="#acdd43"/><path d="m321 264 88.55 93.5-21.64-170.7c-31.43 10.63-55.1 39.44-66.91 77.2z" fill="#191919"/></g><path d="m542.77 318.78c-17.56-87-82.3-147.32-144.6-134.75-16.53 3.34-31.24 11.48-43.58 23.26l106.85 291.83.32-.06c62.3-12.57 98.57-93.29 81.01-180.28z" fill="#ffbdbd"/><g stroke="#191919" stroke-miterlimit="10" stroke-width="1.61"><path d="m461.44 499.12.32-.06c62.3-12.57 98.57-93.29 81-180.28s-82.29-147.32-144.59-134.78c-16.53 3.34-31.24 11.48-43.58 23.26" fill="none"/><path d="m518.44 315.58 15.36 117.57" fill="#fff"/><g fill="none"><path d="m563.59 272.15 8.46 89.38 31.36-13.88"/><path d="m583.5 254.32s11.12-15.72 30.47-8.47"/><path d="m425.74 305.91s18.94-37.08 68.92-21.36"/></g><ellipse cx="473.57" cy="349.85" fill="#191919" rx="8.97" ry="15.72" transform="matrix(.95154075 -.3075227 .3075227 .95154075 -84.65 162.61)"/><ellipse cx="610.21" cy="281.12" fill="#191919" rx="3.95" ry="6.93" transform="matrix(.98854663 -.15091576 .15091576 .98854663 -35.45 95.35)"/><path d="m580.92 396.8 53.61-20.36s4.44 32.62-49 38.3" fill="none"/><path d="m634.53 376.44-37.53 14.24c6.73 1.35 14.92 5.47 14.78 17.59 25.51-11.33 22.75-31.83 22.75-31.83z" fill="#191919"/></g><path d="m641.78 882.69 30.12-28.26 193-449.28-241.93 467.46z" fill="#052d20"/><g fill="none" stroke="#191919" stroke-miterlimit="10" stroke-width="1.61"><path d="m733.23 659.56-52.22-99.99"/><path d="m667.93 528.57-19.56 110.03 73.28 43.33"/><path d="m671.9 854.43 193-449.28"/></g><path d="m848.55 653.64-45.01-19.37-55.33 42.54-9.16 81.07 18.05 16.61 82.99-77.86z" fill="#094f36"/><path d="m757.1 774.49-18.05-16.61 9.16-81.07 72 45.7" fill="none" stroke="#191919" stroke-miterlimit="10" stroke-width="1.61"/><path d="m333.64 234.55c15-26.44 37.26-45 64.53-50.52 62.3-12.57 127 47.76 144.6 134.75s-18.71 167.71-81 180.28c-27.8 5.61-56.08-3.29-80.44-22.6" fill="none" stroke="#191919" stroke-miterlimit="10" stroke-width="1.61"/><path d="m874.23 523.05-45.83-2.17-28.43 35.41 16.74 34.59 45.96-9.04z" fill="#094f36"/><path d="m862.67 581.84-45.96 9.04-16.74-34.59 77.2-6.39" fill="none" stroke="#191919" stroke-miterlimit="10" stroke-width="1.61"/><path d="m798.93 532.62-43.48 3.04-47.57-55.43 38.7-103.79 65.7 107.12z" fill="#094f36"/><path d="m746.58 376.44-38.7 103.79 47.57 55.43 43.48-3.04-57.19-87.15" fill="none" stroke="#191919" stroke-miterlimit="10" stroke-width="1.61"/><path d="m885.23 427.17-44.59 34.44 42.76 14.83 9.03-45.88z" fill="#094f36"/><path d="m883.4 476.44-42.76-14.83 53.72-13.82" fill="none" stroke="#191919" stroke-miterlimit="10" stroke-width="1.61"/><path d="m844.03 445.47-23.82-40.32 18.27-34.21 22.57 10.74z" fill="#094f36"/><path d="m820.21 405.15 23.82 40.32-3.4-63.59" fill="none" stroke="#191919" stroke-miterlimit="10" stroke-width="1.61"/><path d="m606.25 863.64 63.18-80.79-59.09-46.06-127.3 63.99 2.12 36.85 35.57-19.85z" fill="#094f36"/><g fill="none" stroke="#191919" stroke-miterlimit="10" stroke-width="1.61"><path d="m606.25 863.64 63.18-80.79-129.63 50.27"/><path d="m483.04 800.78 2.12 36.85"/><path d="m272.18 648.18 9.56-45.21-55.76-57.01-36.58 28.96"/><path d="m250.31 628.91 19.57-38-33.32-34.56-28.31 33.44"/></g><path d="m240.67 523.18-12.87-90.44 30.14 3.86-7.98 92.17z" fill="#fff"/><path d="m284.39 561.72 72.56 16.12-13.11 25.13-59.45-29.96z" fill="#fff"/><g stroke="#191919" stroke-miterlimit="10" stroke-width="1.61"><path d="m262.68 442.1-7.98 92.17-9.29-5.59" fill="none"/><path d="m356.95 582.93-13.11 25.12-59.45-29.96" fill="none"/><g fill="#4ac7e5"><path d="m862.31 206.41-60.18 173.32"/><path d="m807.07 287.54 12.72 41.32"/><path d="m846.78 251.14 13-5.19"/><path d="m828.5 303.78 27.78-10.35"/><path d="m814.16 345.08 38.94-8.5"/></g><path d="m176.39 570.89-55.91 13.94" fill="none"/></g><g fill="#fff"><ellipse cx="370.72" cy="414.74" rx="14.21" ry="32.98" transform="matrix(.89187648 -.45227905 .45227905 .89187648 -147.49 212.49)"/><ellipse cx="399.08" cy="464.45" rx="4.08" ry="9.47" transform="matrix(.83924045 -.54376048 .54376048 .83924045 -188.39 291.68)"/></g></svg>