<svg viewBox="0 0 1000 1000" xmlns="http://www.w3.org/2000/svg"><path d="m272.74 112.67 481.41-63.21 137.78 497.62-116.71 345.25-403.6 82.67-285.29-387.4z" fill="#e8e8e8"/><path d="m177.62 743.83 75.09-20.14 16.48 31.83 56.2 11.04 26 47.44-114.72 13.25h-44.53" fill="#fff"/><path d="m612.31 643 102.89-512.66 122.87 480.42z" fill="#bcbbbb"/><g fill="none" stroke="#fff" stroke-miterlimit="10" stroke-width="1.54"><path d="m715.2 130.34 3.68 679.55"/><path d="m699.4 209.07 16.38 28.38"/><path d="m680.89 296.07 35.45 46.08"/><path d="m657.94 411.26 59.13 64.6"/><path d="m634.84 533.59 83.03 90.72"/><path d="m740.79 230.41-25.06 36.89"/><path d="m761.23 310.32-44.69 68.16"/><path d="m790.87 426.21-73.58 90.33"/><path d="m816.33 525.78-98.46 98.53"/><path d="m715.51 187.74 10.08-16.74"/></g><path d="m394.3 605.17 102.88-512.67 122.87 480.42z" fill="#bcbbbb"/><g fill="none" stroke="#fff" stroke-miterlimit="10" stroke-width="1.54"><path d="m497.18 92.5 3.68 679.55"/><path d="m481.38 171.23 16.38 28.38"/><path d="m462.87 258.24 35.45 46.07"/><path d="m439.92 373.42 59.13 64.61"/><path d="m416.82 495.75 83.04 90.72"/><path d="m522.77 192.57-25.05 36.89"/><path d="m543.21 272.49-44.69 68.15"/><path d="m572.85 388.37-73.58 90.33"/><path d="m598.31 487.95-98.45 98.52"/><path d="m497.49 149.9 10.08-16.74"/></g><path d="m246.67 578.62 102.88-512.67 122.87 480.42z" fill="#bcbbbb"/><g fill="none" stroke="#fff" stroke-miterlimit="10" stroke-width="1.54"><path d="m349.55 65.95 3.69 679.55"/><path d="m333.75 144.68 16.38 28.38"/><path d="m315.24 231.69 35.46 46.07"/><path d="m292.29 346.87 59.13 64.61"/><path d="m269.19 469.2 83.04 90.72"/><path d="m375.14 166.02-25.05 36.89"/><path d="m395.58 245.93-44.68 68.16"/><path d="m425.22 361.82-73.57 90.33"/><path d="m450.69 461.4-98.46 98.52"/><path d="m349.86 123.35 10.09-16.74"/></g><circle cx="412.52" cy="34.35" fill="#78cef9" r="9.35"/><path d="m150.31 634.72 124.74-550.75 148.97 516.11z" fill="#cecccc"/><g fill="none" stroke-miterlimit="10" stroke-width="1.54"><g stroke="#fff"><path d="m275.05 83.97 4.47 730.03"/><path d="m255.89 168.55 19.86 30.49"/><path d="m233.45 262.02 42.99 49.49"/><path d="m205.63 385.76 71.69 69.4"/><path d="m177.62 517.17 100.68 97.47"/><path d="m306.08 191.47-30.38 39.63"/><path d="m330.86 277.32-54.18 73.22"/><path d="m366.79 401.82-89.2 97.04"/><path d="m397.67 508.79-119.37 105.85"/><path d="m275.42 145.63 12.23-17.98"/></g><path d="m412.52 25a9.35 9.35 0 1 1 0 18.7" stroke="#141414"/></g><path d="m430.63 91.94 43.82 93.83-52.36 4.1-6.16-15.91-15.91 5.65-17.96-67.24z" fill="#fc8c86"/><path d="m430.63 91.94 43.82 93.83-52.36 4.1-6.16-15.91-15.91 5.65" fill="none" stroke="#141414" stroke-miterlimit="10" stroke-width="1.54"/><path d="m379 102.1s-18-50.3 22.58-66.73c26.18-9.48 29.77 50.3 29.77 50.3z" fill="#92defc"/><path d="m401.56 35.37c26.18-9.48 29.77 50.3 29.77 50.3" fill="none" stroke="#141414" stroke-miterlimit="10" stroke-width="1.54"/><path d="m389.99 200.39h104.47v90.08h-104.47z" fill="#d8607a"/><path d="m383.75 746.79h-77.92l-10.46-9.62 10.46-21.17v-91.37h77.92z" fill="#172338" stroke="#141414" stroke-miterlimit="10" stroke-width="1.54"/><path d="m471.88 200.4 1.28 74.93-61.08 1.8 16.17-81.87z" fill="#46dce8"/><path d="m471.88 200.4 1.28 74.93-61.08 1.8" fill="none" stroke="#141414" stroke-miterlimit="10" stroke-width="1.54"/><path d="m392.83 182.17h101.63v26.18h-101.63z" fill="#81edfc"/><path d="m494.47 182.17v26.18h-101.64" fill="none" stroke="#141414" stroke-miterlimit="10" stroke-width="1.54"/><path d="m656.54 760.91v43.09l-30.93 23.23h-30.92s9.79-27.08 30.92-29.39c-1.15-14.62-5.29-37-5.29-37" fill="#141414" stroke="#141414" stroke-miterlimit="10" stroke-width="1.54"/><path d="m305.83 746.79 61.19-3-4.47 83.42h-125.88s3.66-41.1 66-37.25c1.74-18.9 3.16-43.17 3.16-43.17z" fill="#f78d3e"/><path d="m305.83 746.79 61.19-3-4.47 83.42h-125.88s3.66-41.1 66-37.25" fill="none" stroke="#141414" stroke-miterlimit="10" stroke-width="1.54"/><path d="m478.53 746.79h77.92l10.45-9.62-10.45-21.17v-91.37h-77.92z" fill="#172338" stroke="#141414" stroke-miterlimit="10" stroke-width="1.54"/><path d="m556.45 746.79-61.19-3 4.47 83.42h125.88s-3.66-41.1-66-37.25c-1.74-18.9-3.16-43.17-3.16-43.17z" fill="#f78d3e"/><path d="m495.26 743.83 4.47 83.42h125.88s-3.66-41.1-66-37.25" fill="none" stroke="#141414" stroke-miterlimit="10" stroke-width="1.54"/><path d="m457.83 599.95 124.74-550.74 148.97 516.1z" fill="#cecccc"/><g fill="none" stroke="#fff" stroke-miterlimit="10" stroke-width="1.54"><path d="m582.57 49.21 4.47 730.02"/><path d="m563.41 133.79 19.86 30.48"/><path d="m540.97 227.25 42.99 49.5"/><path d="m513.15 350.99 71.69 69.41"/><path d="m485.14 482.41 100.68 97.46"/><path d="m613.6 156.71-30.38 39.63"/><path d="m638.38 242.56-54.18 73.22"/><path d="m674.31 367.05-89.2 97.04"/><path d="m705.19 474.03-119.37 105.84"/><path d="m582.95 110.87 12.23-17.98"/></g><path d="m696.85 638.41 98.81-432.61 118.01 405.4z" fill="#cecccc"/><g stroke-miterlimit="10" stroke-width="1.54"><g fill="none" stroke="#fff"><path d="m795.66 205.8 3.54 573.43"/><path d="m780.48 272.24 15.74 23.94"/><path d="m762.71 345.66 34.05 38.87"/><path d="m740.67 442.85 56.79 54.52"/><path d="m718.48 546.08 79.75 76.56"/><path d="m820.24 290.24-24.06 31.13"/><path d="m839.87 357.68-42.92 57.51"/><path d="m868.33 455.47-70.66 76.22"/><path d="m892.79 539.5-94.56 83.14"/><path d="m795.96 254.24 9.69-14.13"/></g><path d="m416.96 110.57 18.73 26.18 1.54-14.63 13.99 13.9 8.34-33.92-17.96-2.57-25.67 1.03z" fill="#141414" stroke="#141414"/></g><path d="m382.06 203.73.51-21.56h20.53l-2.57 469.66h-129.35l84.7-442.97z" fill="#f9c035"/><path d="m382.57 182.17h20.53l-2.57 469.66h-129.35" fill="none" stroke="#141414" stroke-miterlimit="10" stroke-width="1.54"/><path d="m379.49 124.17 62.11-24.64-8.73-27.2-62.11 23.61z" fill="#78cef9"/><path d="m379.49 124.17 62.11-24.64-8.73-27.2-62.11 23.61" fill="none" stroke="#141414" stroke-miterlimit="10" stroke-width="1.54"/><path d="m489.13 182.69v478.38l134.35-9.24-65.38-443.48-47.21-8.15v-18.03z" fill="#f9c035"/><circle cx="459.85" cy="501.67" fill="#fff" r="122.96"/><path d="m459.85 378.71a123 123 0 1 1 -123 123" fill="none" stroke="#141414" stroke-miterlimit="10" stroke-width="1.54"/><circle cx="448.5" cy="318.71" fill="#fff" r="77.78"/><path d="m508.2 268.85a77.78 77.78 0 1 1 -137.49 49.86" fill="none" stroke="#141414" stroke-miterlimit="10" stroke-width="1.54"/><circle cx="392.83" cy="409.69" fill="#efeded" r="39.3"/><path d="m431.31 401.68a39.3 39.3 0 1 1 -77.77 8" fill="none" stroke="#141414" stroke-miterlimit="10" stroke-width="1.54"/><circle cx="500.86" cy="448.98" fill="#efeded" r="39.3"/><path d="m540.15 449a39.3 39.3 0 1 1 -78.59 0" fill="none" stroke="#141414" stroke-miterlimit="10" stroke-width="1.54"/><path d="m357.93 340.27 34.9 17.37-4.1 8.8 25.26 7.06-15.09 29.86-36.21-1.61-25.8-24.01z" fill="#78cef9"/><path d="m398.9 403.36-36.21-1.61-25.8-24.01 21.04-37.47 34.9 17.37" fill="none" stroke="#141414" stroke-miterlimit="10" stroke-width="1.54"/><path d="m382.06 203.73-48.25 9.75-104.2 120.63 107.28 59.02 28.23-55.43-44.28-22.32 51.51-61.3" fill="#f9c035"/><path d="m336.89 393.13 28.23-55.43-44.28-22.32 51.51-61.3" fill="none" stroke="#141414" stroke-miterlimit="10" stroke-width="1.54"/><path d="m566.58 411.36-27.97 45.42-35.42 3.08-8.72-30.79 13.85-8.64-6.15-12.92 29.77-18.48z" fill="#78cef9"/><path d="m502.17 407.51 29.77-18.48 34.64 22.33-27.97 45.42-35.42 3.08" fill="none" stroke="#141414" stroke-miterlimit="10" stroke-width="1.54"/><path d="m494.47 429.07 13.85-8.64" fill="none" stroke="#141414" stroke-miterlimit="10" stroke-width="1.54"/><path d="m558.1 208.35 49.8 124.73-30.63 91.37-58.17-31.32 22.59-64.67-34.39-81.87" fill="#f9c035"/><g fill="none" stroke="#141414" stroke-miterlimit="10" stroke-width="1.54"><path d="m577.27 424.45-58.17-31.32 22.59-64.67-34.39-81.87"/><path d="m558.1 208.35-47.21-8.15v-18.03l-21.76.52"/><path d="m415.93 173.96 31.95-11.04"/><path d="m400.66 122.12 5.52 32.98 10.78-4.62"/></g><circle cx="421.45" cy="130.2" fill="#141414" r="2.69"/><circle cx="389.99" cy="140.91" fill="#141414" r="2.69"/><path d="m422.35 159.72s7.44-2.7 5.9-8.73" fill="none" stroke="#141414" stroke-miterlimit="10" stroke-width="1.54"/><path d="m372.35 360.03 16.38 6.41" fill="#78cef9" stroke="#141414" stroke-miterlimit="10" stroke-width="1.54"/><path d="m462.38 291.76 51.85 26.95-51.85 4.11z" fill="#f78d3e"/><path d="m514.23 318.71-51.84 4.11" fill="none" stroke="#141414" stroke-miterlimit="10" stroke-width="1.54"/><circle cx="496.31" cy="288.81" fill="#141414" r="6.03"/><circle cx="435.46" cy="294.33" fill="#141414" r="6.03"/><path d="m449.94 348.61s14.63 10 31.57 3.46" fill="none" stroke="#141414" stroke-miterlimit="10" stroke-width="1.54"/><path d="m676.55 284.55-18.47 48.4 15.79 4.13-7.62 25.6 35.38-3.1 19.37-57.94z" fill="#fc8c86" stroke="#141414" stroke-miterlimit="10" stroke-width="1.54"/><path d="m683.48 269.51s32.67-31.42 64.62-17c-7.89 12.56-23.33 42.9-23.33 42.9z" fill="#d84c4c"/><path d="m748.1 252.46c-7.89 12.56-23.33 42.9-23.33 42.9l-41.29-25.85" fill="none" stroke="#141414" stroke-miterlimit="10" stroke-width="1.54"/><g fill="#141414"><path d="m694.36 413.39-98.76-114.7-26.03 14.25 98.61 150.5" stroke="#141414" stroke-miterlimit="10" stroke-width="1.54"/><circle cx="684.29" cy="304.75" r="2.69"/><circle cx="668.45" cy="298.05" r="2.69"/><g stroke="#141414" stroke-miterlimit="10" stroke-width="1.54"><path d="m702.35 295.36-3.88 24.63 9.21-3.28 1.14 21.35 16.37-19.48-4.19-11.55z"/><path d="m590.03 279.74-6.8 4.58-18.03 12.18-7.21 4.87 7.4 13.85 8.49-4.64 21.72-11.89 5.21-2.86z"/></g></g><path d="m668.04 284.95 52.96 22.08 7.9-10.05-46.67-34.91z" fill="#a33"/><path d="m668.04 284.95 52.96 22.08 7.9-10.05-46.67-34.91" fill="none" stroke="#141414" stroke-miterlimit="10" stroke-width="1.54"/><path d="m598.79 536.09 21.26 224.82h36.21l15.39-220.2z" fill="#141414" stroke="#141414" stroke-miterlimit="10" stroke-width="1.54"/><circle cx="749.67" cy="255.11" fill="#d84c4c" r="9.39"/><path d="m646.66 536.09 4.24 207.74-5.78 10.41 6.13 6.67h36.21l5.65-4.88-3.62-12.2 24.15-203.12z" fill="#3a5682" stroke="#141414" stroke-miterlimit="10" stroke-width="1.54"/><path d="m759.07 255.11a9.4 9.4 0 1 1 -18.79 0" fill="none" stroke="#141414" stroke-miterlimit="10" stroke-width="1.54"/><circle cx="475.5" cy="677.14" fill="#fff" r="150.11"/><path d="m475.5 527a150.11 150.11 0 1 1 -150.11 150.14" fill="none" stroke="#141414" stroke-miterlimit="10" stroke-width="1.54"/><path d="m721 374.79-70.49-9.24-61.66 144.18 136.77 17.21z" fill="#78cef9"/><path d="m725.62 526.94-4.62-152.15-70.49-9.24" fill="none" stroke="#141414" stroke-miterlimit="10" stroke-width="1.54"/><path d="m577.27 833.54-34.99-39.46-110.15 9.69-66.99-24.89-39.75 27.33h-47.02l-25.66 27.33" fill="#fff"/><g fill="none" stroke="#141414" stroke-miterlimit="10" stroke-width="1.54"><path d="m325.39 806.21h-47.02"/><path d="m432.13 803.77-66.99-24.89"/><path d="m577.27 833.54-34.99-39.46"/></g><path d="m726.35 550.72-.73-23.78-136.77-17.21-10.28 24.04z" fill="#4eb4dd"/><path d="m578.57 533.77 147.78 16.95-.73-23.78-136.77-17.21" fill="none" stroke="#141414" stroke-miterlimit="10" stroke-width="1.54"/><path d="m564.29 280.72 10.35 16.76 18.03-12.17-25.24-29.33-20.96 1.33v19.06z" fill="#141414" stroke="#141414" stroke-miterlimit="10" stroke-width="1.54"/><path d="m665.03 380.39-20.62 85.37-39.97-11.49 43.05-91.59z" fill="#f9c035"/><path d="m647.49 362.68 17.54 17.71-20.62 85.37-39.97-11.49" fill="none" stroke="#141414" stroke-miterlimit="10" stroke-width="1.54"/><path d="m653.97 348.99 71.22 9.82 2.31 30.22-69.53 5.15z" fill="#f9c035"/><path d="m725.19 358.81 2.31 30.22-69.53 5.15-4-45.19" fill="none" stroke="#141414" stroke-miterlimit="10" stroke-width="1.54"/><path d="m511.15 231.77 58.42-53.11 41.35 71.22-66.28 35z" fill="#8873ef"/><path d="m569.57 178.66 41.35 71.22-66.28 35" fill="none" stroke="#141414" stroke-miterlimit="10" stroke-width="1.54"/><path d="m507.3 215.24 47.35 80.53-28.72 13.79-41.52-81.93z" fill="#6a5adb"/><path d="m507.3 215.24 47.35 80.53-28.72 13.79-41.52-81.93" fill="none" stroke="#141414" stroke-miterlimit="10" stroke-width="1.54"/><path d="m713.64 402.5-98.76-114.7-26.03 14.25 98.61 150.5" fill="#78cef9"/><path d="m588.85 302.05 98.61 150.5" fill="none" stroke="#141414" stroke-miterlimit="10" stroke-width="1.54"/><path d="m574.13 268.85 10.35 16.76 18.03-12.17-20.48-29.33-25.73 1.33v19.07z" fill="#f78d3e"/><path d="m582.03 244.11-25.73 1.33v19.07l17.83 4.34 10.35 16.76 18.03-12.17" fill="none" stroke="#141414" stroke-miterlimit="10" stroke-width="1.54"/><path d="m609.31 268.85-6.8 4.59-18.03 12.17-7.21 4.87 7.41 13.86 8.48-4.65 21.72-11.89 5.21-2.85z" fill="#78cef9"/><g stroke="#141414" stroke-miterlimit="10" stroke-width="1.54"><path d="m609.31 268.85-6.8 4.59-18.03 12.17-7.21 4.87 7.41 13.86 8.48-4.65 21.72-11.89 5.21-2.85" fill="none"/><ellipse cx="590.24" cy="214.49" fill="#141414" rx="4.55" ry="40.99" transform="matrix(.8660254 -.5 .5 .8660254 -28.17 323.86)"/><path d="m678.22 296.38-14.15 20.88 9.41 2.48" fill="#fc8c86"/><path d="m666.29 327.82s7.31 4 10.78-1" fill="#fc8c86"/><path d="m673.87 337.08 11.8 3.19" fill="none"/><path d="m687.46 760.91-9.24 42.34-21.68 24h-30.93s5.65-26.69 26.78-29c-1.15-14.63-1.14-37.34-1.14-37.34" fill="#ed5151"/></g><path d="m865.31 771.95-70.84-5.39-23.61 24.64-67.91-5.66-39.28 31.57-10.84 23.62 201.78 6.15" fill="#fff"/><path d="m262.81 827.25 108.81 147.75 403.6-82.67 22-65.08z" fill="#d8d6d6"/><path d="m165.45 827.25h721.68" fill="none" stroke="#141414" stroke-miterlimit="10" stroke-width="1.54"/></svg>