<svg viewBox="0 0 1000 1000" xmlns="http://www.w3.org/2000/svg"><path d="m799.83 319.45 61.64-152.53-432.51-111.78-227.97 216.38 608.51 74.28z" fill="#c5e5ff"/><path d="m372.55 212.89 177.6-20.9 83.02 25.55 107.11 32.96-225.75 33.54z" fill="#191919"/><path d="m809.5 345.8-9.67-26.35 28.25-69.9-104.51-27.26-156.17 15.64-200.08-54.3-87.02 12.61-79.31 75.28z" fill="#508717"/><path d="m367.32 183.63 84.34 54.39-56.41 8.62-39.2-61.37z" fill="#191919"/><path d="m799.83 319.45 16.65-41.2-40.68 12.99-269.53-68.95-290.23 34.94-15.05 14.29 608.51 74.28z" fill="#84bc2b"/><path d="m508.73 222.01-94.4 88.04 116.9 16.71 8.99-97.42z" fill="#191919"/><path d="m498.95 318.49 27.55-91.88-5.59-1.77-59.83 87.98z" fill="#fff"/><path d="m179.28 446.9-108.65 209.99 447.13 305.05 277.89-111.78 87.76-302.97-73.91-201.39-608.51-74.28-80.22 76.13z" fill="#acdd43"/><path d="m801.92 620.48-37.85 190.79-207.13 28.4 30.64-393.59a96.51 96.51 0 0 1 96.22-89h124.66z" fill="#4dd1db"/><g fill="none" stroke-miterlimit="10" stroke-width="1.57"><g stroke="#6fecef"><path d="m746.66 524.57 16.89-141.73a28.56 28.56 0 0 1 28.45-25.78 66.87 66.87 0 0 1 66.68 61.7"/><path d="m718.33 620.67 28.34-237.83a28.56 28.56 0 0 1 28.43-25.78"/><path d="m712.68 526.4 17.1-143.56a28.56 28.56 0 0 1 28.43-25.78"/><path d="m694.8 534.72 18.1-151.88a28.56 28.56 0 0 1 28.43-25.78"/><path d="m674.7 561.71 21.3-178.87a28.56 28.56 0 0 1 28.43-25.78"/><path d="m816.54 620.48-37.85 190.79-207.13 28.4 30.64-393.59a96.51 96.51 0 0 1 96.22-89"/><path d="m795.55 811.27-207.14 28.4 30.64-393.59a96.52 96.52 0 0 1 96.23-89"/></g><path d="m801.92 620.48-37.85 190.79-207.13 28.4 30.64-393.59a96.51 96.51 0 0 1 96.22-89h124.66z" stroke="#191919"/></g><path d="m508.36 975 110.88-53.88-215.39-624.84-83.48-10.19-57.88-7.06-84.3 166.03 1.09 1.84-108.65 209.99z" fill="#191919"/><path d="m320.37 286.09-124.38 471.13 153.44 114.35-18.57-584.2z" fill="#fff"/><path d="m251.36 510.71 101.1 16.42v89.6l-129.31-29.58z" fill="#191919"/><path d="m461.08 421.44-123.79 13.71 41.52 99.51 82.27-39.96z" fill="#87d0f9" stroke="#191919" stroke-miterlimit="10" stroke-width="1.57"/><path d="m301.25 576.97 159.83-155.53 95.86 232.44-31.41 108.78-133.27-21.48z" fill="#c5e5ff"/><path d="m538.9 612.49-24.51 12.17-2.9-58.43v-.86l-30.06-45.21 19.3-2.68-3.26-6.72-19.81 3.73-.17-.25-2.07.68-38.78 7.3 34-42.69-22-44.61-2.81 1.39-2.36 2.3 19.75 40.12-33.74 42.4-13.3-23.13 16.67-25.57-5.85-17.82-4.31 4.18-2.36 2.3 5.33 10.91-13 19.9-7-16.51-3.9 3.79-2.32 2.26 25.78 45-4 5-20.4-1.28-19.93-30.72-5.58 6.25 17.39 24-40.28-2.51-3 3-3 2.95 48.31 3-12.62 32.44-52-19.6-2.48 2.41-3.63 3.43 55.81 19.52-4.81 12.47 5.84 2.27 4.87-12.53 22.29 8.46 23.57-6.8 1.21 4.34 6-1.69-1.23-4.39 26.61-7.68v-43.61l10.65-3.49 30.4 45.73 3.33 67.1 33.07-16.4zm-130.61-34.12-20.29-7.67 13.33-34.24 19 1.19 9.63 34.48zm49.71-14.37-22 6.36-9.78-35 4.49-5.64 27.29-5.14z" fill="#fff"/><path d="m437.98 443.92 23.1-22.48 95.86 232.44-31.41 108.78-133.27-21.48-91.01-164.21 88.17-85.8" fill="none" stroke="#191919" stroke-miterlimit="10" stroke-width="1.57"/><path d="m628.43 516.43-47.99 15.61-55.89 141.56-182.3-27.68 24.55 40.74 192.75 64.77z" fill="#ffdf43"/><path d="m342.25 645.92 24.55 40.74 192.75 64.77 68.88-235" fill="none" stroke="#191919" stroke-miterlimit="10" stroke-width="1.57"/><path d="m481.43 562.53-180.18 14.44 148.08 267.18 124.83-74.82z" fill="#87d0f9"/><path d="m449.33 844.15 124.83-74.82-92.73-206.8-115.81 9.28" fill="none" stroke="#191919" stroke-miterlimit="10" stroke-width="1.57"/><path d="m597.68 526.3 69.99-22.46 111.79 18.28-17.33 325.63-154.92 23.82-75.35-13.58 52.77-265.94" fill="#ffdf43" stroke="#191919" stroke-miterlimit="10" stroke-width="1.57"/><path d="m907.49 835.2-75.75 17-113.58 49.92 61.84-519.28a28.56 28.56 0 0 1 28.43-25.78 66.87 66.87 0 0 1 66.68 61.7z" fill="#6fecef"/><path d="m808.46 357.06a66.87 66.87 0 0 1 66.68 61.7l32.35 416.44-75.75 20.18-117.18 39.62 57.28-440.71" fill="none" stroke="#191919" stroke-miterlimit="10" stroke-width="1.57"/><path d="m752.43 889.89 155.06-54.69-2.03-26.08-143.76 46.78z" fill="#4dd1db"/><path d="m761.7 855.9-9.27 33.99 155.06-54.69-2.03-26.08-47.51 15.46" fill="none" stroke="#191919" stroke-miterlimit="10" stroke-width="1.57"/><path d="m537.51 854.34-29.15 120.66 251.67-87.75 3.52-66.09-161.22 54.06z" fill="#7373f9" stroke="#191919" stroke-miterlimit="10" stroke-width="1.57"/><path d="m628.43 516.43-67.85 167.15 19.86-151.54z" fill="#4dd1db"/><path d="m580.44 532.04 47.99-15.61-67.85 167.15" fill="none" stroke="#191919" stroke-miterlimit="10" stroke-width="1.57"/><path d="m645.51 286.18h25v158.96h-25z" fill="#fff"/><path d="m675.58 318.49v131.87h-25v-123.96" fill="none" stroke="#191919" stroke-miterlimit="10" stroke-width="1.57"/><path d="m761.7 855.9 1.85-34.74-159.09 39.02-64.63-32.88-1.9.11-6.07 30.58 67.52 38.14z" fill="#ffa357"/><path d="m531.86 857.99 67.52 38.14 162.32-40.23 1.85-34.74-93.73 22.99-65.36 16.03-25.64-13.04" fill="none" stroke="#191919" stroke-miterlimit="10" stroke-width="1.57"/><path d="m481.43 562.53 99.93 222.86-42.31 101.86-126.54-236.63z" fill="#c5e5ff"/><path d="m576.38 797.38-61.61-21.68 45.99-36.25-2.64-5.9-46.94 37-2.2-42.91 40.65-13.02-2.59-5.76-38.39 12.3-3.58-69.79-25.15-8.45-2.19-20.96.01.02 24.05-14.04-2.58-5.76-22.2 12.97-4.34-41.43-5.56 7.11 6.28 59.9-42.09-14.14-2.05 2.62-.99 2.97 41.46 13.93-44.72 27.88 1.48 2.77 1.66 2.66 49.28-30.73 21.61 7.26 3.35 65.52-56.39-10.47-.31 1.65 2.77 5.19 54.26 10.06 2.41 46.86-21.04 9.18 1.26 2.87 1.48 2.78 21.66-9.46 33.91 11.94 4.66 75.91 5.47-13.17-3.71-60.49 25.16 8.86z" fill="#fff"/><path d="m481.43 562.53 99.93 222.86-42.31 101.86-103.23-193.04" fill="none" stroke="#191919" stroke-miterlimit="10" stroke-width="1.57"/><path d="m684.69 483.53s26.08-1.24 32.61 18.61-24.68 60.39-75.46 92.93c-8.1-11.23-22.22-71.38-6-92.54s48.85-19 48.85-19z" fill="#f7747e"/><path d="m684.69 483.53s26.08-1.24 32.61 18.61-24.68 60.39-75.46 92.93" fill="none" stroke="#191919" stroke-miterlimit="10" stroke-width="1.57"/><path d="m623.67 412.82 2.74 90.1 19.59-3.52v66.99l43.54-58.32-6.72-107.4z" fill="#f99dc0"/><g stroke="#191919" stroke-miterlimit="10" stroke-width="1.57"><path d="m646 566.39 43.54-58.32-6.72-107.4-59.15 12.15" fill="none"/><path d="m668.2 450.56-4.18-37.61-51.71 10.44-25.6-22.72 32.91-25.85 76.78 22.46 12.02 73.04-20.42 13.21-6.74-56.48-6.27 2.12z" fill="#191919"/><path d="m681.26 427.05 1.99 32-32.55 11.27-14.5-5.85-12.53 3.98-10.19 38.78 25.47 15.67 40.74-22.72.39-27.03 15.28-2.83-10.58-48.88z" fill="#191919"/><path d="m632.14 429.17-7.08 29.5 14.15-1.06" fill="none"/></g><circle cx="702.26" cy="345.8" fill="#ffdf43" r="11.91"/><path d="m702.26 333.89a11.91 11.91 0 0 1 0 23.82" fill="none" stroke="#191919" stroke-miterlimit="10" stroke-width="1.57"/><path d="m629.1 377.59 73.21 54s35.82-83.31-15.5-89.19c-25.68-2.91-57.71 35.19-57.71 35.19z" fill="#f7747e"/><path d="m629.1 377.59 73.21 54s35.82-83.31-15.5-89.19" fill="none" stroke="#191919" stroke-miterlimit="10" stroke-width="1.57"/><path d="m725.13 731.26 83.33 31.4-9.77 77.01h-68.85l-18.81-88.24z" fill="#4dd1db"/><path d="m808.46 762.66-9.77 77.01h-68.85l-18.81-88.24" fill="none" stroke="#191919" stroke-miterlimit="10" stroke-width="1.57"/><path d="m560.2 666.68-45.44-47.4-7.84 2.35 10.97 25.07-48.19 21.16 26.12 42.31 31.34-10.19 38.66 21.86 15.54-44.82z" fill="#f99dc0"/><path d="m495.82 710.17 31.34-10.19 38.66 21.86 15.54-44.82-21.16-10.34-45.44-47.4-7.84 2.35 10.97 25.07" fill="none" stroke="#191919" stroke-miterlimit="10" stroke-width="1.57"/><path d="m599.38 896.13 46.62-329.74v-11.88" fill="none" stroke="#191919" stroke-miterlimit="10" stroke-width="1.57"/><path d="m327.62 643.83 41.79-9.9 17.75 59.57-44.91 10.4z" fill="#f99dc0"/><path d="m369.41 633.93 17.75 59.57-44.91 10.4" fill="none" stroke="#191919" stroke-miterlimit="10" stroke-width="1.57"/><path d="m728.86 513.84 65.89 10.78-32.19 315.05h-32.72l-165.33-107.17 26.28-50.87 106.53 52.04 18-125.42" fill="#ffdf43" stroke="#191919" stroke-miterlimit="10" stroke-width="1.57"/><path d="m572.36 653.88-34.85 79.93 29.65 19.92 34.69-84.81z" fill="#ffdf43"/><g fill="none" stroke="#191919" stroke-miterlimit="10" stroke-width="1.57"><path d="m537.51 733.81 29.65 19.92 34.69-84.81-29.49-15.04"/><path d="m476.16 678.32 43.69-17.91"/><path d="m481.96 687.71 39.06-14.17"/><path d="m489.3 699.61 33.29-10.79"/></g><path d="m729.45 299.5h-132.62l-70.33-130.59 70.33-130.59h132.62l65.3 125.15z" fill="#f97878"/><path d="m737.84 312.82h-149l-77.5-143.91 77.53-143.91h148.66l72.11 138.22zm-133.06-26.64h116.29l58.78-122.46-58.47-112.08h-116.6l-63.15 117.27z" fill="#fff"/><g fill="none"><path d="m570.65 69.55 24-44.55h148.66l72.11 138.22-71.81 149.6h-149l-77.5-143.91m93.41 117.27h116.33l58.78-122.46-58.47-112.08h-116.6" stroke="#191919" stroke-miterlimit="10" stroke-width="1.57"/><path d="m711.55 202.86a11.51 11.51 0 0 0 11.5-11.49h-23a11.5 11.5 0 0 0 11.5 11.49z"/><path d="m621 202.86a11.5 11.5 0 0 0 11.49-11.49h-23a11.5 11.5 0 0 0 11.51 11.49z"/></g><path d="m732.36 117.2h-109.52a11.06 11.06 0 0 0 -11.06 11v21.9h-7.26a28 28 0 0 0 -28 28v13.27h25.17a19.33 19.33 0 1 1 38.65 0h51.89a19.33 19.33 0 1 1 38.65 0h12.54v-63.12a11.06 11.06 0 0 0 -11.06-11.05z" fill="#fff"/><g fill="none" stroke="#191919" stroke-miterlimit="10" stroke-width="1.57"><path d="m750.21 197.12v-63.12a11.06 11.06 0 0 0 -11.06-11.06h-109.52"/><path d="m640.34 199.2h51.89"/><path d="m607.26 157.94a28 28 0 0 0 -28 28v13.26h25.17"/></g><g fill="#f97878"><path d="m628.59 129.47h18.07v15.67h-18.07z"/><path d="m668.74 129.47h18.07v15.67h-18.07z"/><path d="m708.9 129.47h18.07v15.67h-18.07z"/></g><path d="m764.15 516.43-66.83 217.24 20.84-221.58z" fill="#4dd1db"/><path d="m697.32 733.67 66.83-217.24-45.99-4.34" fill="none" stroke="#191919" stroke-miterlimit="10" stroke-width="1.57"/><path d="m711.55 179.88a11.49 11.49 0 1 0 11.5 11.49 11.5 11.5 0 0 0 -11.5-11.49z" fill="#fff"/><path d="m715.47 185.62a11.5 11.5 0 1 0 11.53 11.5 11.51 11.51 0 0 0 -11.53-11.5z" fill="none" stroke="#191919" stroke-miterlimit="10" stroke-width="1.57"/><path d="m621 179.88a11.49 11.49 0 1 0 11.49 11.49 11.5 11.5 0 0 0 -11.49-11.49z" fill="#fff"/><path d="m624.93 185.62a11.5 11.5 0 1 0 11.5 11.5 11.51 11.51 0 0 0 -11.5-11.5z" fill="none" stroke="#191919" stroke-miterlimit="10" stroke-width="1.57"/><path d="m629.1 362.02 84.28 53.54-11.07 16.06-82.69-56.8" fill="#f7747e" stroke="#191919" stroke-miterlimit="10" stroke-width="1.57"/><path d="m875.06 533.87h17.1a0 0 0 0 1 0 0v46.71a8.55 8.55 0 0 1 -8.55 8.55 8.55 8.55 0 0 1 -8.55-8.55v-46.71a0 0 0 0 1 0 0z" fill="#ffa357" transform="matrix(.99694466 -.0781111 .0781111 .99694466 -41.12 70.67)"/><path d="m890 533.29 3.64 46.57a8.54 8.54 0 0 1 -7.85 9.19 8.55 8.55 0 0 1 -9.19-7.86" fill="none" stroke="#191919" stroke-miterlimit="10" stroke-width="1.57"/><path d="m883.41 635.93v164l46-11.49-4.41-128.44a25.67 25.67 0 0 0 -26.91-24.77z" fill="#ffa357"/><path d="m883.41 717.55v82.37l46-11.49-4.41-128.43a25.67 25.67 0 0 0 -26.91-24.77l-14.71.72" fill="none" stroke="#191919" stroke-miterlimit="10" stroke-width="1.57"/><path d="m849.36 539.27 63.82 4.45-10.41-120.51c-3-34.82-51.73-66.15-90.59-66.15-18.88-.85-30 11.15-31.63 25.78l-5.12 38.6 45.15 5.56a22 22 0 0 1 19.22 19.61z" fill="#ffa357"/><path d="m907.22 474.78-4.45-51.57c-3-34.82-51.73-66.15-90.59-66.15-18.88-.85-30 11.15-31.63 25.78" fill="none" stroke="#191919" stroke-miterlimit="10" stroke-width="1.57"/><path d="m775.43 421.44 45.15 5.56a22 22 0 0 1 19.22 19.61l9.56 92.64 63.82 4.45" fill="none" stroke="#191919" stroke-miterlimit="10" stroke-width="1.57"/><path d="m863.79 604.15-4.92 137.62-50.41 9.66v-145.63z" fill="#fff" opacity=".57"/><path d="m840.05 610.88 31.92-.94-4.92 137.61-50.41 9.67v-92.5" fill="none" stroke="#191919" stroke-miterlimit="10" stroke-width="1.57"/><circle cx="805.03" cy="495.61" fill="#fff" opacity=".57" r="16.48"/><g stroke="#191919" stroke-miterlimit="10" stroke-width="1.57"><path d="m812.82 483.47a16.48 16.48 0 1 1 -16.48 16.53" fill="none"/><path d="m815.23 782.56-5.26 44.38" fill="#6fecef"/><path d="m885.11 665.51 39.92-5.53" fill="#4dd1db"/><g fill="none"><path d="m373.18 647.88-35.24 7.15"/><path d="m377.89 661.42-35.25 7.16"/><path d="m381.81 678.54-32.38 7.15"/></g><path d="m722.39 745.79-45.42-21.95" fill="#ffdf43"/><g fill="#191919"><path d="m594.51 944.96 4.87-48.83-42.44 61.93z"/><path d="m680 887.24 9.54 24.59"/></g></g><g fill="#a2d7fc"><path d="m486.64 504.84-20.33 5.87v-15.49l17.11-1.55z"/><path d="m432.84 505.14 9.21-13.84-9.21-7.77-7.84 12.99z"/><path d="m445.94 474.85-6.01 7.05 6.01 4.18 4.96-5.62z"/><path d="m435.82 536.46 4.11 22.22 7.05-1.27-4.93-22.75z"/><path d="m473.1 536.46v13.34l12.24 2.35-8.32-14.88z"/><path d="m490.86 566-4.22-7.32 3.17-1.27 5.53 4.3z"/><path d="m404.93 544.31-3.92 10.72 9.67 2.38v-14.14z"/><path d="m416.42 521.86-8.61 2.72-6.8-13.87 4.84-5.57z"/><path d="m382.21 543.27-4.44 14.14-16.19-7.06 4.04-9.16z"/><path d="m435.82 644.35-2.98 9.53 8.56 1.15 9.5-5.34z"/><path d="m457.95 609.88-10.97 13.32 18.02 8.22z"/><path d="m486.64 625.15 2.67 10.97h11.38l-3.76-16.84z"/><path d="m519.85 587.15v19.59l10.18-3.92z"/><path d="m449.33 688.82 9.01-15.28 15.67 17.82-4.12 8.25z"/><path d="m476.16 701.55 4.12-1.94 5.06 7.03-3.38 3.13z"/><path d="m474.01 731.26 20.77 1.63v20.84h-15.67z"/><path d="m516.72 736.02v12.54l12.53-2.78-3.72-14.52z"/><path d="m513.58 795.55 6.27 31.39h12.01v-22.19z"/><path d="m541.67 771.28 18.91-8.62 9.1 19.9z"/></g><path d="m291.06 345.8 64.5 7.08-6.13 34.15-69.86-12.21z" fill="#191919"/><path d="m485.59 266.94 32.91 9.16 8-21.42-27.02-8.04z" fill="#191919"/><path d="m363.34 184.21 55.31 48.63-10.8 1.3z" fill="#fff"/><path d="m396.05 224.97 13.13-2.96-6.57-8.41-11.62 5.69z" fill="#191919"/><path d="m378.81 206.16 9.99-1.96-5.87-5.68-9.41 1.95z" fill="#191919"/><path d="m324.01 117.19 66.98-26.02 14.86 26.02 24.05-5.64 7.8 25.76h-120.14" fill="#fff" opacity=".6"/><path d="m502.05 45.73-25.57 21.69-5.73 15.92h-19.85l.76 17.76h54.39l15.89-9.93h9.92l19.33-27.68" fill="#fff" opacity=".6"/><ellipse cx="642.47" cy="434.12" fill="#191919" rx="1.7" ry="4.95" stroke="#191919" stroke-miterlimit="10" stroke-width="1.57"/><ellipse cx="623.67" cy="435.04" fill="#191919" rx="1.7" ry="4.95" stroke="#191919" stroke-miterlimit="10" stroke-width="1.57"/><path d="m722.39 532.11h23.31l-9.2 33.3-17.39-.98z" fill="#6fecef"/><path d="m816.64 720.85 51.61-6.75" fill="none" stroke="#191919" stroke-miterlimit="10" stroke-width="1.57"/></svg>