<svg viewBox="0 0 1000 1000" xmlns="http://www.w3.org/2000/svg" xmlns:xlink="http://www.w3.org/1999/xlink"><clipPath id="a"><path d="m303.04 591.72-85.98 229.09 125.96 154.19 191.12-20.63 154.19-299.7v-248.67l-138.99-5.43-19.55 128.14 61.9-49.95-31.49 122.7-70.13 60.81z"/></clipPath><path d="m890.85 554.93-257.35-498.58-400.69 83.07-182.6 480.5s137.54-149.04 292.79-172.25 452.8 41.13 452.8 41.13l-152.37 292.64 15.58-10z" fill="#9fdaf7"/><g fill="#42a3c1"><path d="m231.57 147.55-70.58 314.57 125.1-29.61z"/><path d="m351.78 111.9-77.94 314.57 138.14-29.61z"/><path d="m512.85 92.02-79.27 314.57 140.51-29.61z"/><path d="m649.92 93.35-70.58 314.57 125.11-29.61z"/></g><path d="m294.12 96.58-70.58 314.57 125.1-29.61z" fill="#62c8e8"/><g fill="none" stroke-miterlimit="10" stroke-width="1.63"><g stroke="#fff"><path d="m294.12 96.58-8.03 394.45"/><path d="m280.84 155.79 11.52 27.65"/><path d="m268.32 211.59 22.7 37.72"/><path d="m255.86 267.14 34.02 37.7"/><path d="m240.33 336.35 48.31 29.47"/><path d="m302.29 139.27-9.23 20.33"/><path d="m312.74 193.85-21.27 32.94"/><path d="m323.15 248.31-33.67 35.01"/><path d="m334.34 306.75-45.23 36.34"/></g><path d="m348.65 381.54-54.53-284.96" stroke="#141414"/></g><path d="m436.05 46.06-70.59 314.57 125.11-29.61z" fill="#62c8e8"/><g fill="none" stroke="#fff" stroke-miterlimit="10" stroke-width="1.63"><path d="m436.05 46.06-8.03 394.44"/><path d="m422.76 105.27 11.52 27.64"/><path d="m410.24 161.06 22.7 37.72"/><path d="m397.78 216.61 34.03 37.7"/><path d="m382.25 285.82 48.31 29.47"/><path d="m444.21 88.75-9.23 20.32"/><path d="m454.66 143.33-21.26 32.93"/><path d="m465.08 197.78-33.68 35.01"/><path d="m476.26 256.23-45.23 36.33"/></g><path d="m587.37 25-70.58 314.57 125.1-29.61z" fill="#62c8e8"/><g fill="none" stroke="#fff" stroke-miterlimit="10" stroke-width="1.63"><path d="m587.37 25-8.03 394.44"/><path d="m574.09 84.21 11.51 27.65"/><path d="m561.57 140.01 22.69 37.71"/><path d="m549.1 195.56 34.03 37.69"/><path d="m533.57 264.77 48.32 29.47"/><path d="m595.54 67.69-9.23 20.33"/><path d="m605.98 122.27-21.26 32.94"/><path d="m616.4 176.72-33.67 35.02"/><path d="m627.58 235.17-45.23 36.34"/></g><path d="m723.87 95.34 70.59 314.58-125.11-29.62z" fill="#62c8e8"/><g fill="none" stroke="#fff" stroke-miterlimit="10" stroke-width="1.63"><path d="m723.87 95.34 8.03 394.45"/><path d="m737.16 154.55-11.52 27.65"/><path d="m749.68 210.35-22.7 37.72"/><path d="m762.14 265.9-34.03 37.7"/><path d="m777.67 335.11-48.31 29.47"/><path d="m715.71 138.03 9.23 20.33"/><path d="m705.26 192.61 21.27 32.94"/><path d="m694.85 247.07 33.67 35.01"/><path d="m683.66 305.51 45.23 36.34"/></g><path d="m184.7 164.14-93.33 308.59 126.93-20.42z" fill="#62c8e8"/><g stroke-miterlimit="10" stroke-width="1.63"><g fill="none"><g stroke="#fff"><path d="m184.7 164.14-36.77 392.8"/><path d="m167.13 222.22 9.47 28.41"/><path d="m150.58 276.95 19.88 39.28"/><path d="m134.1 331.45 31.19 40.08"/><path d="m113.56 399.34 46.04 32.92"/><path d="m189.73 207.31-10.69 19.6"/><path d="m196.17 262.51-23.61 31.29"/><path d="m202.59 317.57-36.14 32.47"/><path d="m209.48 376.68-47.76 32.94"/></g><path d="m218.3 452.31-33.6-288.17" stroke="#141414"/></g><path d="m343 447.67c-155.25 23.21-292.79 172.25-292.79 172.25l292.79 355.08 300.4-193.56 152.43-292.64s-297.52-64.34-452.83-41.13z" fill="#c7e4f9" stroke="#fff"/></g><path d="m701.36 429.35 139.73 29.18 49.76 96.4-316.81 395.64-231.02 24.43z" fill="#ba4242"/><g stroke="#141414" stroke-miterlimit="10" stroke-width="1.63"><g fill="none"><path d="m701.36 429.35 139.73 29.18 49.76 96.4-316.81 395.64"/><path d="m490.57 331.02-54.52-284.96"/><path d="m723.87 95.34 70.59 314.57"/><path d="m641.89 309.96-54.52-284.96"/></g><path d="m274.48 411.02h83.48l9.36 36.65h-104.65z" fill="#efefef"/></g><path d="m379.94 314.79-92.29 239.98 38 91.21 245.41 42.35 87.95-304.04z" fill="#ffa180"/><path d="m287.65 554.77 38 91.21 245.41 42.35 87.95-304.04" fill="none" stroke="#141414" stroke-miterlimit="10" stroke-width="1.63"/><g clip-path="url(#a)"><path d="m303.04 591.72-85.98 229.09 125.96 154.19 191.12-20.63 154.19-299.7v-248.67l-138.99-5.43-19.55 128.14 61.9-49.95-31.49 122.7-70.13 60.81z" fill="#efefef"/><g fill="none" stroke="#fff" stroke-miterlimit="10" stroke-width="1.63"><path d="m345.35 548.36-160.65 455.96"/><path d="m359.04 595.49-89.69 327.44"/><path d="m379.63 645.97-60.49 325.49"/><path d="m423.02 636.98-33.03 338.02"/><path d="m462.47 648.37-4.89 326.63"/><path d="m501.56 639.47 32.58 314.9"/><path d="m534.14 629.69 50.87 225.81"/><path d="m560.2 601.46 72.3 161.73"/><path d="m573.83 548.36 92.24 145.67"/><path d="m535.73 489.79 152.6 117.4"/><path d="m541.65 450.99 127.7 71.51"/><path d="m545.61 425.04 123.74 56.25"/></g></g><path d="m529.79 528.71 61.9-49.95-31.49 122.7-70.13 60.81-187.03-70.55-94.74 252.44" fill="none" stroke="#141414" stroke-miterlimit="10" stroke-width="1.63"/><path d="m525.35 971.46 162.98-316.79v-248.67l-138.99-5.43" fill="none" stroke="#141414" stroke-miterlimit="10" stroke-width="1.63"/><path d="m287.65 554.77 117.27-13 96.64 65.15 101-45.61-92.31 136.79-106.42-56.46s-82.52 22.8-141.16-21.72c17.33-43.44 24.98-65.15 24.98-65.15z" fill="#fff"/><g stroke-miterlimit="10" stroke-width="1.63"><g fill="none"><g stroke="#efefef"><path d="m389.67 543.43 114.16 106.91 73.83-52.17"/><path d="m369.59 545.66 140.66 152.44"/><path d="m354.06 547.39 49.77 94.25"/><path d="m334.48 549.56 32.84 97.91"/><path d="m315.69 551.65 9.96 94.33"/><path d="m305.25 552.81-17.6 79.94"/></g><g stroke="#141414"><path d="m602.55 561.28-92.3 136.82-106.42-56.46s-82.52 22.8-141.16-21.72"/><path d="m287.65 554.77 117.27-13.03 106.58 71.85"/></g></g><path d="m655.34 718.79 120.68-229.99" fill="#ba4242" stroke="#141414"/></g><path d="m374.52 300.67 121.61-142.25 211.44 41.44-6.21 179-163.96-6.52z" fill="#d65151"/><path d="m496.13 158.42 211.44 41.44-6.21 179-163.96-6.52" fill="none" stroke="#141414" stroke-miterlimit="10" stroke-width="1.63"/><path d="m688.33 460.3-358.33-123.79 30.4-67.33 340.96 109.68z" fill="#fff"/><path d="m360.4 269.18 340.96 109.68-13.03 81.44-358.33-123.79" fill="none" stroke="#141414" stroke-miterlimit="10" stroke-width="1.63"/><path d="m501.56 246.38 186.77 314.9 33.67-19.54-14.43-341.88" fill="#d65151" stroke="#141414" stroke-miterlimit="10" stroke-width="1.63"/><circle cx="702.11" cy="554.93" fill="#fff" r="52.26"/><g stroke="#141414" stroke-miterlimit="10" stroke-width="1.63"><path d="m702.11 502.66a52.27 52.27 0 1 1 -52.26 52.27" fill="none"/><path d="m374.52 411.02h83.47l9.37 36.65h-104.65z" fill="#fff"/><path d="m383.93 478.26s27.92-23 56.09 3" fill="none"/><path d="m259.6 478.26s27.92-23 56.09 3" fill="none"/><path d="m613.95 953.83 286.67-364.86 49.17 123.02z" fill="#ba4242"/><g fill="none"><path d="m463.31 351.09 128.38 47.25"/><path d="m362.71 511.6 21.22 32.47"/></g></g></svg>