<svg viewBox="0 0 1000 1000" xmlns="http://www.w3.org/2000/svg"><path d="m270.13 922.56 142.13-27.53 286.25 67.67 146.74-496.32-48.7-286.08-190.83 10.52-68.01-165.82-287.98 104.85-94.98 35.97 71.95 285.15-42.12 33.45v352.8z" fill="#bbe7ff"/><g fill="#231f20" stroke="#231f20" stroke-linecap="round" stroke-miterlimit="10" stroke-width="1.32"><path d="m510.59 855.66 105.22-574-82.77 569.83z"/><path d="m314.87 821.66 62.9-570.97-37.1 574.61z"/><path d="m651.18 619.21-65.48 5.48-112.88-53.55-132.28 45.46-47.71-131.33 38.24-273.72 42.88-63.06 120.43 63.06 43.33 91.15 82.27-68.88 66.15 107.88z"/></g><path d="m655.3 586.52-63.45-128.16 36.55-107.3 40.93-29.29-4.38-85.32 104.11-38.52-7.6 45.54 28.07 81.38-36.85 74.79 46.51 50.94-34.22 117.24z" fill="#83bf5c"/><g fill="none" stroke="#231f20" stroke-linecap="round" stroke-miterlimit="10" stroke-width="1.32"><path d="m669.33 321.77-4.38-85.32"/><path d="m799.19 450.58-34.22 117.24-109.67 18.7-63.45-128.16 36.55-107.3"/><path d="m789.54 324.84-44.23 89.77"/><path d="m769.06 197.93-10.24 61.33"/></g><path d="m323.65 89.93 56.3 163.19-23.14 111.43 37.03 101.83-121.08 74.59-104.41-126.36 71.95-108.14-34.22-53.35 51.98-146.81z" fill="#83bf5c"/><g stroke="#231f20" stroke-miterlimit="10" stroke-width="1.32"><g stroke-linecap="round"><path d="m250.44 322.3-44.36-69.18" fill="none"/><path d="m323.65 89.93 56.3 163.19-23.14 111.43 37.03 101.83-121.08 74.59-104.41-126.36" fill="none"/><g fill="#231f20"><path d="m717.43 315.13-135.75 516.95 26.24 14.15 124.15-586.97z"/><path d="m281.09 259.26-31.36 572.82 31.36-11.72 8.62-663.31z"/></g></g><path d="m537.71 25 59.04 143.95-29.52 81.54 44.2 54.83-48.56 149.86 57.11 90.11-73.92 79.4-166.11-16.23v-257.4l39.33-62.85-28.95-59.66 47.92-52.64-33.05-46.5 40.46-93.88z" fill="#83bf5c"/></g><path d="m724.11 876.1-2.87-12.05-19.44 16.57-11.41-35.11-45.62 5.98-10.08-37.77-42.84 7.83-68.71-16.02-38.14 33.16-20.26-49.93-52.48 53.08-34.49-44.75-37.1 28.21-42.96-54.09-65.99 22.44-6.34-38.45-40.8 19.78v62.24l14.45 14.42 506.12 88.58z" fill="#231f20"/><g stroke="#231f20" stroke-linecap="round" stroke-miterlimit="10" stroke-width="1.32"><g fill="none"><path d="m446.63 187.7-41.43-58.29"/><path d="m553.26 233.15 58.17 72.17-48.56 149.86 57.11 90.11-73.92 79.4-166.11-16.23v-257.4l39.33-62.85-28.95-59.66"/><path d="m537.71 25 59.04 143.95"/></g><path d="m497.89 59.49-54.48 792-31.15-9.65 76.33-721.21z" fill="#231f20"/></g><path d="m706.57 895.03-12.67-38.27-39.48 21.05-4.61-49.13-41.89 17.55-9.65-40.7-35.4 31.69-25.16-15.84-26.3 15.84-23.69-31.69-21.94 26.55-22.37-26.55-31.15 18.76-17.55-10.53-37.9 18.32-17.11-26.55-78.35 20.52-31.23 56.6 40.01 39.91 142.13-27.53 286.25 67.67 22.73-76.9z" fill="#83bf5c"/><path d="m740.62 868.44-34.05 26.59-12.67-38.27-39.48 21.05-4.61-49.13-41.89 17.55-9.65-40.7-35.4 31.69-25.16-15.84-26.3 15.84-23.69-31.69-21.94 26.55-22.37-26.55-31.15 18.76-17.55-10.53-37.9 18.32-17.11-26.55-78.35 20.52-31.23 56.6 40.01 39.91" fill="none" stroke="#231f20" stroke-linecap="round" stroke-miterlimit="10" stroke-width="1.32"/><path d="m277.31 694.66 45.14-1.12-7.58-34.85-37.34 9.33-4.55 15.67z" fill="#fff" stroke="#231f20" stroke-linecap="round" stroke-miterlimit="10" stroke-width="1.32"/><path d="m485 838.69-32.82-49.93-39.92 12.28 57.03 52.64-.13.66 9.56-2.85z" fill="#fff"/><path d="m485 838.69-32.82-49.93-39.92 12.28" fill="none" stroke="#231f20" stroke-linecap="round" stroke-miterlimit="10" stroke-width="1.32"/><path d="m464.9 922.56 28.52-71.07-8.42-12.8-6.28 12.8-9.56 2.85-13.03 66.46z" fill="#e25f3b"/><path d="m456.13 920.8 8.77 1.76 28.52-71.07-8.42-12.8-6.28 12.8-9.56 2.85" fill="none" stroke="#231f20" stroke-linecap="round" stroke-miterlimit="10" stroke-width="1.32"/><path d="m253.89 755.2h6.15l17.1-60.54h.17l-4.33-10.97 4.55-15.67-20.26 5.07z" fill="#e25f3b"/><path d="m253.89 755.2h6.15l17.1-60.54h.17l-4.33-10.97 4.55-15.67-20.26 5.07" fill="none" stroke="#231f20" stroke-linecap="round" stroke-miterlimit="10" stroke-width="1.32"/><path d="m160.89 532.67 533.01 76.67 134.24-38.96-6.58 10.88-104.13 37.95 101.5 15.13-22.48 59.09-111.76-23 77.65 166.79h-16.12l-89.17-183.14-487.6-56.59z" fill="#965814"/><g fill="none" stroke="#231f20" stroke-linecap="round" stroke-miterlimit="10" stroke-width="1.32"><path d="m832.75 589.55-104.13 37.95 101.49 15.13"/><path d="m172.08 540.97 533.01 76.66 134.24-38.96"/><path d="m757.4 845.51-89.16-183.14-496.16-54.79"/><path d="m818.27 703.91-122.39-25.19 77.64 166.79"/></g><path d="m415.95 564.33-48.43 108.62 84.66 115.81-58.34 62.73-86.11-192.31 36.53-134.95z" fill="#5b5bd6"/><path d="m344.26 524.23 71.69 40.1-48.43 108.62 84.66 115.81" fill="none" stroke="#231f20" stroke-linecap="round" stroke-miterlimit="10" stroke-width="1.32"/><path d="m496.82 552.17 49.24 87.44-221.79 102.74-16.54-83.17 161.56-34.49-64.09-72.52z" fill="#5b5bd6"/><path d="m325.64 655.36-17.91 3.82 16.54 83.17 17.14-7.94z" fill="#8a8aff"/><path d="m341.41 734.41-15.77-79.05-17.91 3.82" fill="none" stroke="#231f20" stroke-linecap="round" stroke-miterlimit="10" stroke-width="1.32"/><path d="m533.83 617.89a19.83 19.83 0 0 0 -13.44 33.61l25.67-11.9z" fill="#8a8aff"/><g fill="none" stroke="#231f20" stroke-linecap="round" stroke-miterlimit="10" stroke-width="1.32"><path d="m405.2 552.17h91.62l49.24 87.44-221.79 102.74"/><path d="m307.73 659.18 94.65-20.21 34.08-7.27 15.72-3.36 17.11-3.65"/><path d="m305.66 398.76 18.93 15.85 37.24 31.18 7.18 4.79 36.19-48.75-10.38-37.28"/></g><path d="m449.77 376.39 73.37 17.77-21.49 174.05-161.11-22.7 54.28-180.96z" fill="#f9d358"/><path d="m485.3 331.64-7.89 43.43-14.81-2.96-2.3 17.44-13.82 17.77-8.23-32.57 17.44-52.98h26.98z" fill="#fff"/><path d="m536.96 384.24v31.69" fill="none" stroke="#fff" stroke-miterlimit="10" stroke-width="1.32"/><path d="m532.52 370.3-5.88 31.15" fill="none" stroke="#fff" stroke-miterlimit="10" stroke-width="1.32"/><g fill="#fff"><path d="m524.82 344.64 2.14-6.86 12.23-1.15 5.37 8.8-4 9.67 1.64 7 15.87 30.31s-38.44 3.3-35.54-36a76.84 76.84 0 0 1 2.29-11.77z"/><path d="m526.92 343.03-14.73 3.48 13.2 4.01z"/><g stroke="#231f20" stroke-linecap="round" stroke-miterlimit="10" stroke-width="1.32"><path d="m512.89 346.74 12.5 3.78"/><path d="m533.48 356.32s12-8.88 35.39 22.37c-6.91 3-28.63-1.64-28.63-1.64"/></g></g><path d="m438.25 374.75 17.44-52.98h26.98l2.63 9.87-7.89 43.43-14.81-2.96-2.3 17.44-16.89 21.72" fill="none" stroke="#231f20" stroke-linecap="round" stroke-miterlimit="10" stroke-width="1.32"/><path d="m305.66 398.76 18.93 15.85 37.24 31.18 7.18 4.79-28.47 94.93 47.29 6.66 26.69-137.56 17.32-42.09-37.02-7.97z" fill="#e25f3b"/><path d="m523.14 394.16-56.48-13.68 2.41 41.84-25.66 129.11 58.29 16.39 8.65-70.07 46.27-12.48 21.99-5.93z" fill="#e25f3b"/><path d="m649.81 528.07-3.62-8.56h-76.99l-12.58-34.24-35.03 9.45 23.05 62.37z" fill="#fff"/><g stroke="#231f20" stroke-linecap="round" stroke-miterlimit="10" stroke-width="1.32"><path d="m544.64 557.09 105.17-29.02-3.62-8.56h-76.99l-12.58-34.24-35.03 9.45" fill="none"/><path d="m496.82 427.72 13.53 70.03 46.27-12.48 21.99-5.93-55.47-85.18" fill="none"/><path d="m464.58 327.7-11.19 23.36 2.3-16.45-3.97-.78-3.41 10.37-11.7 2.58-9.87-9.87 2.3-9.21 9.21 3.29 7.41-10.53z" fill="#231f20"/></g><path d="m434.31 321.77 63.83 16.78 7.89-15.13-79.29-18.1z" fill="#fcb43f"/><path d="m426.74 305.32 7.57 16.45 63.83 16.78 7.89-15.13" fill="none" stroke="#231f20" stroke-linecap="round" stroke-miterlimit="10" stroke-width="1.32"/><path d="m455.69 317.17 12.18-28.96 20.72 1.98-3.29 34.55z" fill="#f9d358"/><path d="m666.1 468.79v31.69" fill="none" stroke="#fff" stroke-miterlimit="10" stroke-width="1.32"/><path d="m657.78 468.79v31.69" fill="none" stroke="#fff" stroke-miterlimit="10" stroke-width="1.32"/><path d="m640.57 438.53v-7.18l11.34-4.73 7.74 6.81-.93 10.41 7.18.93 20.6 29.49s-35.72 14.55-44.61-23.82a77.07 77.07 0 0 1 -1.32-11.91z" fill="#fff"/><path d="m642.09 436.37-13.03 7.7 13.8-.09z" fill="#fff"/><g stroke="#231f20" stroke-linecap="round" stroke-miterlimit="10" stroke-width="1.32"><path d="m629.8 444.07 13.06-.09" fill="#fff"/><path d="m686.5 474.26c-34.76 4-38.82-30.42-38.82-30.42" fill="#fff"/><path d="m467.87 288.21 20.72 1.98-3.29 34.55-34.02-7.57" fill="none"/><path d="m382.97 404.06-42.43 141.45 47.29 6.66 26.69-137.56 17.32-42.09-37.02-7.97" fill="none"/><path d="m449.77 368.49 12.83 3.62" fill="#fff"/></g><path d="m487.09 460.62a30 30 0 0 0 -10.23 1.8l-14.61 2.58a20.07 20.07 0 0 1 -14.54-3l-22.66-15a56.54 56.54 0 0 0 -10.71-7.1h-.06a49.57 49.57 0 0 0 -22.56-5.49c-32.84 0-59.46 32.9-59.46 73.48s26.62 73.47 59.46 73.47a50.76 50.76 0 0 0 29.12-9.41l13.14-7a29.55 29.55 0 0 1 28.69.46l7.74 4.46c.77.48 1.55.94 2.35 1.36h.06a30.74 30.74 0 0 0 14.27 3.58c22.57 0 40.88-25.54 40.88-57.05s-18.31-57.14-40.88-57.14z" fill="#fcb43f"/><g stroke-linecap="round" stroke-miterlimit="10" stroke-width="1.32"><g stroke="#231f20"><path d="m492.6 465.57a30 30 0 0 0 -10.23 1.8l-14.6 2.57a20 20 0 0 1 -14.55-3l-22.66-15a56.54 56.54 0 0 0 -10.71-7.1h-.06a49.56 49.56 0 0 0 -22.55-5.49c-32.85 0-59.47 32.9-59.47 73.47s26.62 73.48 59.47 73.48a50.67 50.67 0 0 0 29.11-9.42l13.14-7a29.55 29.55 0 0 1 28.69.46l7.74 4.46c.77.48 1.56.94 2.35 1.35h.06a30.62 30.62 0 0 0 14.27 3.58c22.58 0 40.88-25.54 40.88-57s-18.3-57.16-40.88-57.16z" fill="none"/><path d="m356.81 494.56h10.05v33.53h-10.05z" fill="#231f20"/><path d="m431.84 500.48h262.06v23.75h-262.06z" fill="#fcb43f"/><circle cx="405.2" cy="509.71" fill="#231f20" r="31.26"/><g fill="#fcb43f"><path d="m693.9 500.48h9.21v23.75h-9.21z"/><path d="m746.22 532.48-43.44-8.25v-23.66l37.74-9.08z"/></g></g><g stroke="#fff"><path d="m364.23 506.24h346.45l17.11-2.88" fill="none"/><path d="m364.23 512.36h366.85" fill="#fff"/><path d="m364.23 518.47h347.44l23.69 5.76" fill="none"/></g><path d="m627.54 528.07-7.56-21.83 22.09.14 7.74 21.69" fill="#fff" stroke="#231f20"/></g><path d="m425.75 507.79-63.92-62-37.24-31.18-31.76 22.65 108.24 77.32 3.95 22.04 17.44-7.89-7.57-23.04 7.57 4.61z" fill="#fff"/><g stroke="#231f20" stroke-linecap="round" stroke-miterlimit="10" stroke-width="1.32"><g fill="none"><path d="m401.07 514.58 3.95 22.04 17.44-7.89-7.57-23.04 7.57 4.61 3.29-2.51-63.92-62-37.24-31.18-31.76 22.65"/><path d="m488.59 385.79-19.52 36.53-2.41-41.84"/><path d="m414.53 414.61v-46.12"/></g><g fill="#fff"><path d="m469.29 624.69 24.13-5.48"/><circle cx="710.52" cy="494.34" r="3.95"/><circle cx="727.13" cy="490.4" r="3.95"/><circle cx="713.48" cy="530.18" r="3.95"/></g></g><path d="m163.53 837.22v-55.48l10.52-15.13 16.45 38.92 22.38-82.36 23.03-21.71 5.26 62.51-19.08 59.88 53.3-35.09h36.85l-17.11 31.6-34.22 31.13 70.16 7.24 4.86 18.42-46.22 45.41 46.22 3.29v17.86l-22.37 18.99" fill="#fff"/><g stroke="#231f20" stroke-linecap="round" stroke-miterlimit="10" stroke-width="1.32"><path d="m170.76 837.22v-55.48l10.53-15.13 16.45 38.92 22.38-82.36 23.03-21.71 5.26 62.51-19.08 59.88 53.3-35.09h36.85l-17.11 31.6-34.22 31.13 70.16 7.24 4.86 18.42-46.23 45.41 46.23 3.29v17.86l-22.37 18.99" fill="none"/><g fill="#fff"><circle cx="729.93" cy="534.78" r="3.95"/><path d="m168.79 863.26 39.48-26.04v36.65h31.59l-23.69 14.47 31.58 19.74-9.21 12.72 18.43 16.24v15.79"/></g></g><path d="m519.52 943.71-17.87-70.5 8.94-17.55 19.46 53.74 4.61-125.03 11.4-15.13 6.36 87.24 29.26-121.27-4.25 138 39.48-63.17 51.67-33.59-43.11 51.35-13.82 63.83 57.9-60.54 7.24 69.1-25.66 28.95 30.93 7.24v37.51" fill="#fff"/><g stroke="#231f20" stroke-linecap="round" stroke-miterlimit="10" stroke-width="1.32"><path d="m523.65 944.83-17.88-70.51 8.94-17.55 19.46 53.74 4.61-125.02 11.41-15.14 6.36 87.24 29.26-121.27-4.26 138 39.49-63.17 51.66-33.58-43.11 51.35-13.82 63.83 57.91-60.54 7.24 69.09-25.67 28.95 30.93 7.24v37.51" fill="none"/><g fill="#fff"><path d="m379.95 952.83 25.25-39.92v30.8l26.64-10.84-1.73 19.96 27.78-3.95 6.14 20.18"/><path d="m683.18 490.4 79.16-44.44"/><path d="m686.13 434.31-28.35-83.25"/><path d="m712 354.13 54.72-48.81"/><path d="m717.43 315.13-10.86-69.03"/><path d="m476.09 342.42-1.81 17.27-6.74-1.94"/></g><path d="m463.92 340.2s1.81 4.77 8.22 2.3" fill="none"/><path d="m479.16 341.82s1.81 4.77 8.23 2.3" fill="none"/><g fill="#fff"><path d="m472.14 365.2s-6.41 1.65-9.21-3.12"/><path d="m528.73 76.33-34.35 34.2"/><path d="m438.25 104c.33.66 44.38 73 44.38 73"/><path d="m485.3 259.26 88.18-95.41"/><path d="m270.87 445.96-56.8-65.48"/><path d="m286.85 377.05 68.58-71.73"/><path d="m279.87 281.66-36.92-57.28"/><path d="m289.71 211.55 38.32-47.7"/><path d="m626.45 506.28 3.95 12.9"/><path d="m632.92 506.28 3.53 11.54"/><path d="m638 506.28 3.53 11.54"/><path d="m405.91 521.35 3.04 13.49"/><path d="m409.63 517.65 4.08 15.02"/><path d="m413.71 515.67 4.41 15.03"/></g><path d="m492.87 326.71-7.57-1.98" fill="none"/></g><path d="m452.18 788.76-10.34-14.14-56.43 58.04 8.43 18.83z" fill="#8a8aff"/><g fill="none" stroke-linecap="round" stroke-miterlimit="10" stroke-width="1.32"><path d="m452.18 788.76-10.34-14.14-56.43 58.04" stroke="#231f20"/><g stroke="#fff"><path d="m267.82 703.43s6.91 1.65 7.57 9.87"/><path d="m264 713.3s6.91 1.65 7.57 9.88"/><path d="m261.93 721.61s6.91 1.64 7.57 9.87"/><path d="m460.3 869.26s7.24-7.57 17.11-2.3"/><path d="m456.19 881.29s7.23-7.56 17.1-2.3"/><path d="m454.35 891.27s7.24-7.56 17.11-2.3"/></g></g><g fill="#fff"><path d="m363.89 331s-1-21.33 6.06-31.81c5.68 1 14.19 35.38 14.19 35.38"/><path d="m391.78 328.61 2.27-6.09-8.11-7.59-8.71 3.31-2.51 9.12-5 4.08-32 14.64s29.48 21.89 49.17-7.8a70.35 70.35 0 0 0 4.89-9.67z"/><path d="m391.18 326.3 8.6 10.65-11.66-4.45z"/></g><g stroke-miterlimit="10" stroke-width="1.32"><path d="m399.15 336.71-11.04-4.21" fill="#fff" stroke="#231f20" stroke-linecap="round"/><path d="m374 328.79s-11.22-15.44-35.41-18.45c1.6 13.68 23.28 33.75 23.28 33.75" fill="#fff" stroke="#231f20"/><g stroke="#fff"><path d="m367.86 348.63 7.66 23.48" fill="none"/><path d="m375.52 346.5 11.24 21.99" fill="none"/><g fill="#fff"><path d="m459.31 256.18s31.76-13.18 46.69-5.64 15 32 4.33 40.33c-7 3.76-8.51 3.34-8.51 3.34l-5.54-9 6.48-9.59h4.38s.42-9-3.76-11.73c-1.54 4.62-22.96 20.92-44.07-7.71z"/><path d="m498.19 288.29-4.88 7.44 10.31-4.28z"/><path d="m478.72 268.31-2.63 20.69"/><path d="m483.8 270.17-1.05 18.94"/></g></g><g fill="none" stroke="#231f20" stroke-linecap="round"><path d="m503.62 257.45s-21.11 21.81-45.62-1.27"/><path d="m512.94 275.71-10.16-.07"/><path d="m491.72 296.99 12.12-4.98-1.81-3.3"/></g></g></svg>