<svg viewBox="0 0 1000 1000" xmlns="http://www.w3.org/2000/svg"><path d="m333.71 431c2.88-16.77-7.71-30.65-19.93-39.84-15.07-11.32-46.38-12.59-61.67-17a341.58 341.58 0 0 0 -22.34 42.85 428.6 428.6 0 0 0 -9.77 77.25 54.21 54.21 0 0 0 29.34 0v-6l14.93-1.22s-27.57-28.42-7.13-71.38c17.26-32.16 76.57 15.34 76.57 15.34z" fill="#d83a3a"/><path d="m32.45 682.24 155.63-598.27 454-14.85 13.79 114.57 258.82 309.73-138.95 451.88-328.83 29.7z" fill="#2c4568"/><path d="m507.1 96.47-162.04 575.96 311.22-28.55z" fill="#3a5e89"/><g fill="none" stroke-miterlimit="10" stroke-width="1.59"><g stroke="#5898cc"><path d="m498.16 815.51 8.94-719.05"/><path d="m494.63 140.78 11.76 12.91"/><path d="m483.21 181.39 23.18 25.44"/><path d="m468.91 232.2 36.06 35.62"/><path d="m453.68 286.32 50.45 48.79"/><path d="m435.57 350.71 67.06 64.63"/><path d="m414.74 424.46 87.21 86.15"/><path d="m386.7 524.43 113.97 89.03"/><path d="m522.38 152.52-15.99 17.55"/><path d="m534.01 195.2-28.51 29.79"/><path d="m547.85 245.99-42.88 41.84"/><path d="m563.81 304.57-59.98 54.52"/><path d="m581.1 367.99-78.22 67.58"/><path d="m604.46 453.74-101.83 87.08"/><path d="m631.37 552.47-131.23 103.77"/></g><path d="m345.06 672.43 311.22-28.55-149.18-547.41" stroke="#141414"/></g><path d="m782.15 293.77-79.99 284.32 153.63-14.1z" fill="#3a5e89"/><g fill="none" stroke-miterlimit="10" stroke-width="1.59"><g stroke="#5898cc"><path d="m777.74 648.71 4.41-354.94"/><path d="m776 315.65 5.8 6.37"/><path d="m770.36 335.69 11.44 12.56"/><path d="m763.3 360.77 17.8 17.59"/><path d="m755.79 387.49 24.9 24.08"/><path d="m746.84 419.28 33.11 31.9"/><path d="m736.56 455.68 43.05 42.53"/><path d="m722.72 505.03 56.26 43.95"/><path d="m789.7 321.44-7.9 8.67"/><path d="m795.44 342.51-14.08 14.71"/><path d="m802.27 367.58-21.17 20.66"/><path d="m810.15 396.5-29.61 26.91"/><path d="m818.68 427.81-38.61 33.35"/><path d="m830.22 470.14-50.27 42.98"/><path d="m843.5 518.87-64.78 51.23"/></g><path d="m702.16 578.09 153.63-14.1-73.64-270.22" stroke="#141414"/></g><path d="m277.49 132.14-162.05 575.97 311.23-28.55z" fill="#3a5e89"/><g fill="none" stroke-miterlimit="10" stroke-width="1.59"><g stroke="#5898cc"><path d="m268.54 851.18 8.95-719.04"/><path d="m265.02 176.46 11.75 12.9"/><path d="m253.59 217.06 23.18 25.45"/><path d="m239.3 267.88 36.05 35.61"/><path d="m224.07 322 50.45 48.78"/><path d="m205.96 386.39 67.05 64.62"/><path d="m185.13 460.13 87.2 86.15"/><path d="m157.08 560.11 113.97 89.03"/><path d="m292.76 188.2-15.99 17.55"/><path d="m304.39 230.88-28.5 29.79"/><path d="m318.23 281.66-42.88 41.85"/><path d="m334.2 340.24-59.98 54.52"/><path d="m351.48 403.67-78.21 67.57"/><path d="m374.85 489.42-101.84 87.08"/><path d="m401.75 588.15-131.23 103.77"/></g><path d="m115.44 708.11 311.23-28.55-149.18-547.42" stroke="#141414"/></g><path d="m644.24 25-163.36 672.03 313.75-33.31z" fill="#5898cc"/><g fill="none" stroke-miterlimit="10" stroke-width="1.59"><g stroke="#90dbfc"><path d="m635.22 863.97 9.02-838.97"/><path d="m631.67 76.71 11.85 15.06"/><path d="m620.15 124.09 23.37 29.69"/><path d="m605.74 183.37 36.35 41.56"/><path d="m590.39 246.53 50.86 56.92"/><path d="m572.13 321.66 67.6 75.4"/><path d="m551.13 407.7 87.92 100.52"/><path d="m522.86 524.35 114.9 103.87"/><path d="m659.64 90.41-16.12 20.48"/><path d="m671.36 140.21-28.73 34.75"/><path d="m685.32 199.46-43.23 48.83"/><path d="m701.41 267.81-60.46 63.61"/><path d="m718.83 341.82-78.84 78.84"/><path d="m742.39 441.87-102.66 101.6"/><path d="m769.52 557.06-132.3 121.08"/></g><path d="m480.88 697.03 313.75-33.31-150.39-638.72" stroke="#141414"/></g><path d="m389.91 81.92-153.88 575.97 295.54-28.55z" fill="#5898cc"/><g fill="none" stroke-miterlimit="10" stroke-width="1.59"><g stroke="#90dbfc"><path d="m381.41 800.97 8.5-719.05"/><path d="m378.07 126.24 11.16 12.91"/><path d="m367.22 166.85 22.01 25.44"/><path d="m353.64 217.66 34.24 35.62"/><path d="m339.18 271.78 47.91 48.79"/><path d="m321.98 336.17 63.68 64.63"/><path d="m302.2 409.92 82.82 86.15"/><path d="m275.57 509.89 108.23 89.03"/><path d="m404.41 137.98-15.18 17.55"/><path d="m415.46 180.66-27.07 29.79"/><path d="m428.6 231.45-40.72 41.84"/><path d="m443.76 290.03-56.95 54.52"/><path d="m460.18 353.45-74.28 67.58"/><path d="m482.37 439.2-96.71 87.08"/><path d="m507.92 537.93-124.63 103.77"/></g><path d="m236.03 657.89 295.54-28.55-141.66-547.42" stroke="#141414"/></g><path d="m179.97 119.05-153.88 575.97 295.55-28.55z" fill="#5898cc"/><g fill="none" stroke-miterlimit="10" stroke-width="1.59"><g stroke="#90dbfc"><path d="m172.19 777.73 7.78-658.68"/><path d="m168.13 163.37 11.16 12.9"/><path d="m157.28 203.97 22.01 25.45"/><path d="m143.71 254.78 34.24 35.62"/><path d="m129.25 308.91 47.9 48.78"/><path d="m112.04 373.3 63.68 64.62"/><path d="m92.26 447.04 82.82 86.15"/><path d="m65.63 547.02 108.23 89.03"/><path d="m194.48 175.11-15.19 17.55"/><path d="m205.52 217.79-27.07 29.79"/><path d="m218.67 268.57-40.72 41.85"/><path d="m233.83 327.15-56.96 54.52"/><path d="m250.24 390.58-74.28 67.57"/><path d="m272.43 476.33-96.71 87.08"/><path d="m297.98 575.06-124.62 103.77"/></g><path d="m26.09 695.02 295.55-28.55-141.67-547.42" stroke="#141414"/></g><path d="m803.92 853.63 34.88-113.39c12.79-108.92-.27-259.9-164.9-278.64-49.85-157.87-338.9-291.71-444.13-44.55a234.37 234.37 0 0 0 -15.7 75.84c15.52 4.58 35.27 1.39 35.27 1.39v-6l14.93-1.22s-25.75-28.81-9.16-49.7 51.11-49.92 93.28 29.64c19.89 40.17 29.43 116.55 4 152.74s-102.23 92.69-18.7 221.57c57.46 23.75 403.72 14.36 470.23 12.32z" fill="#e29e3b"/><path d="m679.21 667.91-8.69-20.28 15.98-23.87 96.66 18.7-70.5 28.89z" fill="#141414" stroke="#141414" stroke-miterlimit="10" stroke-width="1.59"/><path d="m795.29 668.11-36-33.61 39.63 6.45 20.31-6.45 22.57 22.62z" fill="#141414" stroke="#141414" stroke-miterlimit="10" stroke-width="1.59"/><path d="m766.72 619.65-17.75 9.79 11.12 51.47 45.41-8.48z" fill="#815abf"/><path d="m760.09 680.91 45.41-8.48-38.78-52.78" fill="none" stroke="#141414" stroke-miterlimit="10" stroke-width="1.59"/><path d="m229.77 417.05a234.37 234.37 0 0 0 -15.7 75.84c15.52 4.58 35.27 1.39 35.27 1.39v-6l14.93-1.22s-25.75-28.81-9.16-49.7 51.11-49.92 93.28 29.64c19.89 40.17 29.43 116.55 4 152.74s-102.23 92.69-18.7 221.57" fill="none" stroke="#141414" stroke-miterlimit="10" stroke-width="1.59"/><path d="m386.97 517.55-12.72 150.36 102.35 89.21-13.75 71.8-9.05-60.77-156.64-52.22-52.59-66.31 124.11-134.05z" fill="#9b2424"/><path d="m244.57 649.62 124.11-134.05 18.29 1.98-12.72 150.36 102.35 89.21-13.75 71.8-9.05-60.77" fill="none" stroke="#141414" stroke-miterlimit="10" stroke-width="1.59"/><path d="m386.97 517.55-168.46 188.79 100.05 135.01h-79.56l42.96-21.48-159.52-74.07 31.44-137.55 175.81-90.7z" fill="#bf3030"/><path d="m153.88 608.25 175.81-90.7h57.28l-168.46 188.79 100.05 135.01h-79.56l42.96-21.48" fill="none" stroke="#141414" stroke-miterlimit="10" stroke-width="1.59"/><path d="m932.89 441.18-236.54-266.24-4.25-111.38z" fill="#2c4568"/><path d="m387 517.55-236.7 105.45s-30.17-157.92 21.7-230.71c49.3-57.45 185.14 16.71 215 125.26z" fill="#d83a3a"/><g stroke-miterlimit="10" stroke-width="1.59"><path d="m139.95 568.84 1.62 39.05 147.78-64.7-12.85-33.44z" fill="#141414" stroke="#231f20"/><g stroke="#141414"><path d="m330.65 428.69c26.35 19.25 42.69 52.86 56.35 88.86l-236.7 105.45s-30.17-157.92 21.7-230.71c17.92-19.92 46.9-24.47 78.46-15.39" fill="none"/><path d="m218.51 462.46-57.08 122.92-47.73-31.23 35.4-108.4 48.84 1.25z" fill="#d83a3a"/></g></g><path d="m339.17 434.36s-64.77-50.86-82-18.64c-20.44 43 7.13 71.38 7.13 71.38l-14.93 1.22v6a54.21 54.21 0 0 1 -29.34 0 428.6 428.6 0 0 1 9.77-77.21 370.76 370.76 0 0 1 23.48-44.62l84.93 5.11" fill="#e29e3b"/><path d="m229.77 417.05a428.6 428.6 0 0 0 -9.77 77.21 54.21 54.21 0 0 0 29.34 0v-6l14.93-1.22s-27.57-28.42-7.13-71.38c17.26-32.22 80.53 18.64 80.53 18.64" fill="none" stroke="#141414" stroke-miterlimit="10" stroke-width="1.59"/><path d="m154.41 334.44 7.22 36.53 24.07 19.83 16.7-24.67-16.7-44.55z" fill="#fcaf83"/><path d="m161.63 370.97 24.07 19.83 16.7-24.67-16.7-44.55" fill="none" stroke="#231f20" stroke-miterlimit="10" stroke-width="1.59"/><path d="m172.97 328.21 10.54 24.27 3.38-15.12 8.35 25.06-9.74 10.14-12.53-6.16-11.34 4.57-29.23 72.99 39.57 34.61 57.09-69.41-36.6-85.92z" fill="#fff"/><g fill="none" stroke="#141414" stroke-miterlimit="10" stroke-width="1.59"><path d="m132.4 443.96 39.57 34.61 57.09-69.41-36.6-85.92-19.49 4.97"/><path d="m185.5 372.56-12.53-6.16-11.34 4.57"/><path d="m249.34 488.32s-27.05-63.45 16.71-100.84 131.27-51.31 194.51-20.29"/><path d="m183.51 352.48 3.38-15.12"/></g><path d="m241.92 432.69-8.82-1.96-11.98 25.26-18.72-17.2 21.91-34.88 17.61-3.01 15.22 25.51z" fill="#fff"/><path d="m221.12 455.99-18.72-17.2 21.91-34.88 17.61-3.01 15.22 25.51-15.22 6.28-12.15-2.7" fill="none" stroke="#231f20" stroke-miterlimit="10" stroke-width="1.59"/><path d="m152.28 328.21-4.37-26.25 29.24-28.05 44.15 38.19-33.61-7.76 1.19 13.53z" fill="#d83a3a"/><path d="m243.23 425.38s46.12-88 160-.51" fill="none" stroke="#141414" stroke-miterlimit="10" stroke-width="1.59"/><path d="m221.3 312.1-33.61-7.76 1.19 13.53-36.6 10.34" fill="none" stroke="#141414" stroke-miterlimit="10" stroke-width="1.59"/><path d="m150.49 338.95 44.41-9.99-2.04-15.27-47.74 11.74z" fill="#fff"/><path d="m150.49 338.95 44.41-9.99-2.04-15.27" fill="none" stroke="#141414" stroke-miterlimit="10" stroke-width="1.59"/><path d="m328.45 498.68-62.4-78.98-19.09 13.13 48.13 125.3" fill="#d83a3a" stroke="#231f20" stroke-miterlimit="10" stroke-width="1.59"/><path d="m266.05 419.7-12.33-25.06-22.23-2.1-13.66 21.69 17.33.56 13.65 17.9z" fill="#fff"/><g stroke-miterlimit="10" stroke-width="1.59"><g fill="none"><path d="m231.49 392.54-13.66 21.69 17.33.56 13.65 17.9 17.24-12.99" stroke="#231f20"/><path d="m717.83 646.19s17.29-9 10.92-17.24-16.75 9.18-10.92 17.24z" stroke="#fff"/><path d="m716.4 646.32s-16.25 10.44-21.9 1.75 16.22-9.87 21.9-1.75z" stroke="#fff"/><g stroke="#141414"><path d="m679.21 667.91 16.44 41.37-74.25 75.32 20.68 56.75 56.92 14.76c25.12-.43 47.72-.94 66.14-1.4l16.87-.44h.22l3.63-.1 3.51-.1h.11l6.32-.18h.27l2.49-.08h1 1.35 1 1.3.6"/><path d="m841.83 657.67v-.55l-58.64-14.66"/><path d="m839 738.64c.07-.61.13-1.22.2-1.83.11-.95.21-1.9.32-2.86 0-.56.11-1.12.17-1.69.11-1 .21-2 .31-3 0-.18 0-.35 0-.52q.35-3.53.64-7.08c0-.44.07-.88.11-1.33l.24-3.09c.05-.58.09-1.15.13-1.72.07-1 .15-2 .21-3.07l.12-1.73c.06-1.05.13-2.09.19-3.13 0-.51.05-1 .08-1.52q.3-5.52.47-11.11c0-.5 0-1 0-1.51 0-1.06.06-2.13.08-3.19 0-.6 0-1.19 0-1.79 0-1.05 0-2.1 0-3.16 0-.58 0-1.16 0-1.74 0-1.09 0-2.17 0-3.26 0-.45 0-.9 0-1.35q0-3.78-.09-7.58"/></g></g><path d="m241.92 432.69 27.18-19.75 11.4 15.64-31.42 20.56z" fill="#fff" stroke="#231f20"/></g><path d="m695.65 709.28-3.67 3.72 2.08 3.84 75.93-36.57-21.02-50.83-69.76 38.47z" fill="#a97fe5"/><g stroke-miterlimit="10" stroke-width="1.59"><g fill="none"><path d="m686 683.83 94.8-45.02" stroke="#fff"/><path d="m679.21 667.91 16.44 41.37-3.67 3.72 2.08 3.84 75.93-36.57-21.02-50.83" stroke="#141414"/><path d="m717.73 646.67 21.68 48.33" stroke="#fff"/></g><path d="m199.82 432.69 26.85 23.01-5.37 13.13-29.21-26.26z" fill="#fff" stroke="#231f20"/><path d="m171.97 478.57-39.58 48.27" fill="#d83a3a" stroke="#141414"/><path d="m293.99 420.75 65.83 108.9" fill="#d83a3a" stroke="#141414"/><path d="m386.97 500.45-15.91-31.62-38.05 16.46 18.54 30.67z" fill="#141414" stroke="#231f20"/></g><path d="m446.91 975 328.83-29.7 42.4-137.9-560.45 33.95z" fill="#5898cc"/><path d="m973.91 797.97-801.94 48.57" fill="none" stroke="#141414" stroke-miterlimit="10" stroke-width="1.59"/><circle cx="219.35" cy="310.75" fill="#fff" r="8.32"/><path d="m841.83 657.67h18.1l22.68 50.82-27.45 6.36z" fill="#dd4545"/><g fill="none" stroke-miterlimit="10" stroke-width="1.59"><path d="m219.35 302.44a8.32 8.32 0 1 1 -8.32 8.31" stroke="#141414"/><path d="m815.44 662.94s21.78-16.26 12-21.21-12 21.21-12 21.21z" stroke="#fff"/><path d="m815.77 662.18s-26.51-6-19.59-14.5 19.59 14.5 19.59 14.5z" stroke="#fff"/><path d="m196.55 306.39-22.69-5.33" stroke="#141414"/><path d="m161.63 370.97 17.9-7.75-6.84-3.98" stroke="#231f20"/></g><path d="m861.52 716.84-19.69-59.17-57.87 9.45 21.88 55.69z" fill="#f96262"/><g stroke-miterlimit="10" stroke-width="1.59"><g fill="none"><path d="m793.8 692.16 78.97-13.14" stroke="#fff"/><path d="m805.84 722.81 55.68-5.97-19.69-59.17" stroke="#141414"/><g stroke="#fff"><path d="m858.25 709.3s21.78-16.26 12-21.2-12 21.2-12 21.2z"/><path d="m858.58 708.54s-26.51-6-19.59-14.5 19.59 14.5 19.59 14.5z"/><path d="m710.24 703s18.82-19.6 8.37-22.88-8.37 22.88-8.37 22.88z"/><path d="m708.41 703.88s-27.13-1.59-21.69-11.1 21.69 11.1 21.69 11.1z"/></g><path d="m673.91 461.6s-126.23-7.76-156.46 107.23" stroke="#141414"/></g><path d="m658.57 746.89 15.36-15.57 28.91 83.07-23.08 1.39-21.19-37.68z" fill="#a03063" stroke="#141414"/></g><path d="m749.53 683.02 34.43-15.9 37.39 98.65-3.21 41.63-34.56 2.1-41.79-110.96z" fill="#f7991e"/><path d="m783.96 667.12 37.39 98.65-3.21 41.63-34.56 2.1-41.79-110.96 7.74-15.52" fill="none" stroke="#141414" stroke-miterlimit="10" stroke-width="1.59"/><path d="m818.14 807.4 110.65-6.7-30.27-99.77-95.36 16.86z" fill="#71f4f4"/><path d="m695.64 709.26.01.02-25.13 25.49 24.35 80.1 92.28-5.59-37.62-126.26z" fill="#f9d41c"/><g stroke-miterlimit="10" stroke-width="1.59"><g fill="none"><path d="m708.91 702.8 30.5 109.51" stroke="#fff"/><path d="m681.82 771.95 123.58-42.78" stroke="#fff"/><path d="m695.64 709.26.01.02-25.13 25.49 24.35 80.1 92.28-5.59-37.62-126.26" stroke="#141414"/></g><path d="m658.57 746.89-37.17 37.71 12.38 33.97 45.98-2.79z" fill="#bf4582" stroke="#141414"/></g><path d="m898.52 700.93 29.85-5.85 22.95 104.26-36.63 2.22z" fill="#4dc4c1"/><g fill="none" stroke-miterlimit="10" stroke-width="1.59"><path d="m858.58 707.99 11.11 95.34" stroke="#fff"/><path d="m810.55 762.01 129.23-15.12" stroke="#fff"/><g stroke="#141414"><path d="m951.32 799.34-36.63 2.22-16.17-100.63"/><path d="m803.16 717.79 14.98 89.61 110.65-6.7"/></g></g><path d="m199.22 532.27 6.37 51.32 43.75-14.75-7.42-51.29z" fill="#f9d41c"/><g stroke-miterlimit="10" stroke-width="1.59"><path d="m205.59 583.59 43.75-14.75-7.42-51.29" fill="none" stroke="#231f20"/><path d="m212.35 541.86 3.03 24.43 20.84-7.02-3.54-24.42z" fill="#141414" stroke="#231f20"/><path d="m214.07 798.39 43.62-49.86 14.99 20.42-37.13 43.76z" fill="#fff" stroke="#141414"/><path d="m396.83 756.97 28.22-59.94 20.03 15.51-23.65 52.29z" fill="#e2e0de" stroke="#141414"/><g fill="none"><path d="m233.68 496.29s-3.34-19.31 0-47.15" stroke="#141414"/><g stroke="#fff"><path d="m829.96 713.05-15.28-52.72"/><path d="m717.14 645s14.51 3.49 14 9.46-13-6.94-13-6.94-.19 15.63-5.47 13.77 4.47-16.29 4.47-16.29z"/><path d="m710.24 703s-8.76 3.75-7.4 17.87-7.59 16.31-7.59 16.31"/><path d="m875.16 719.63s-7.82 1.59-11-4.78-8.77-12.53-10 2-11.71 15.51-11.71 15.51"/><path d="m828.71 668.11s-12.1-3-16.21-11.18"/></g><g stroke="#141414"><path d="m670.52 647.63-8.35-19.41"/><path d="m165 346.39s2.86-5.65 10-1.47"/><path d="m148.91 357.7s2.86-5.66 10-1.48"/></g></g></g><g fill="#141414"><circle cx="175.51" cy="351.34" r="1.64"/><circle cx="157.21" cy="360.11" r="1.64"/><path d="m892.68 683.44 22.77-59.07 14.51 10.7z"/><path d="m899.41 689.48 36.15-28.36 4.21 11.07z"/><path d="m885.62 678.33-6.38-41.9 12.75 2.29z"/></g><path d="m173.37 383.64a6.52 6.52 0 0 1 -.09.91l10.77-2.14a13 13 0 0 0 -7.8-3.79 15 15 0 0 0 -5.72.17 5.59 5.59 0 0 1 2.84 4.85z" fill="#231f20" stroke="#231f20" stroke-miterlimit="10" stroke-width="1.59"/><g fill="#fff"><path d="m576.32 142.05c5.12 0 5.12-8 0-8s-5.13 8 0 8z"/><path d="m320.68 131.44c5.12 0 5.12-8 0-8s-5.13 8 0 8z"/><path d="m855.29 492.1c5.12 0 5.13-8 0-8s-5.13 8 0 8z"/><path d="m599.65 897.3c5.12 0 5.13-8 0-8s-5.12 8 0 8z"/><path d="m472.36 862.3c5.12 0 5.13-8 0-8s-5.12 8 0 8z"/><path d="m471.3 337.23c5.12 0 5.13-8 0-8s-5.12 8 0 8z"/><path d="m590.11 612c5.12 0 5.12-8 0-8s-5.13 8 0 8z"/><path d="m83.07 648c5.12 0 5.13-8 0-8s-5.13 8 0 8z"/><path d="m224.15 140.06c2.56 0 2.56-4 0-4s-2.56 4 0 4z"/><path d="m322.8 192c2.56 0 2.56-4 0-4s-2.57 4 0 4z"/><path d="m453.27 132.64c2.56 0 2.56-4 0-4s-2.56 4 0 4z"/><path d="m568.89 203.71c2.56 0 2.57-4 0-4s-2.56 4 0 4z"/><path d="m600.71 307.66c2.56 0 2.57-4 0-4s-2.56 4 0 4z"/><path d="m740.73 334.18c2.56 0 2.57-4 0-4s-2.56 4 0 4z"/><path d="m737.55 551.63c2.56 0 2.56-4 0-4s-2.56 4 0 4z"/><path d="m374.78 861.37c2.55 0 2.56-4 0-4s-2.57 4 0 4z"/><path d="m726.94 859.25c2.56 0 2.57-4 0-4s-2.56 4 0 4z"/><path d="m701.48 924c2.56 0 2.57-4 0-4s-2.56 4 0 4z"/><path d="m523.28 931.38c2.56 0 2.56-4 0-4s-2.56 4 0 4z"/><path d="m549.8 740.44c2.56 0 2.56-4 0-4s-2.57 4 0 4z"/><path d="m248.55 254.62c2.56 0 2.56-4 0-4s-2.57 4 0 4z"/><path d="m451.15 210.07c2.56 0 2.56-4 0-4s-2.57 4 0 4z"/><path d="m602.84 93.39c2.55 0 2.56-4 0-4s-2.57 4 0 4z"/></g></svg>