<svg viewBox="0 0 1000 1000" xmlns="http://www.w3.org/2000/svg"><path d="m813.97 949.77-525.81 25.23-154.14-251.08 168.33-384.26-123.89-145.38 136.18-64.31 207.9 51.07 187.4-156.04 131.39 168.33-100.18 228.63 134.08 208.29z" fill="#152a44"/><g fill="#2e4e72"><path d="m510.85 490.5-17 377.37 73.89-10.37-35.11-381.88z"/><path d="m674.08 436.8 131.55 425.79-78.93 17.03-79.73-442.82z"/><path d="m368.54 424.99-138.2 416.15 78.92 17.03 79.74-442.82z"/></g><path d="m212.04 931.68h-93.63l-14.18-78.25 41.13-47.29-19.86-51.06 86.54-41.14-5.68-52.33 83.7-24.85 84.36 132.18 73.21-37.98 85.64 53.03v147.69z" fill="#0f0f0f"/><path d="m212.04 931.68h-93.63l-14.18-78.25 41.13-47.29-19.86-51.06 86.54-41.14-5.68-52.33 83.7-24.85 84.36 132.18 73.21-37.98 85.64 53.03v147.69z" fill="none" stroke="#0f0f0f" stroke-miterlimit="10" stroke-width="1.42"/><path d="m437.52 187.66-20.62-90.08-77.2 155.33 29.79-4.96-59.57 107.69 46.81-21.83-86.53 166.64 83.66-18.3 93.77 24.68 9.81-162.53 26.25 22.09-22.7-170.93z" fill="#2e4e72"/><path d="m449.58 181.41-20.63-90.08-77.19 155.33 29.79-4.97-59.58 107.7 46.82-21.84-86.54 166.64 83.67-18.29 93.77 24.68 9.81-162.54 26.24 22.1-22.69-170.93z" fill="none" stroke="#0f0f0f" stroke-miterlimit="10" stroke-width="1.42"/><path d="m458.39 52.42-41.49 170.23 30.73-14.18-35.88 115.85 35.88-23.18-35.88 124.84 35.88-22.7-38.42 116.32 102.85-15.68 127.49-25.28-45.93-103.73h39.72l-70.39-92.68 37.55 1.04-72.02-92.43 34.47 2.84z" fill="#2e4e72"/><path d="m467.28 45.52-41.49 170.22 30.73-14.18-35.88 115.86 35.88-23.18-35.88 124.83 35.88-22.7-38.42 116.32 102.85-15.68 127.49-25.28-45.93-103.73h39.72l-58.3-103.03 25.46 11.4-72.02-92.44 34.47 2.84z" fill="none" stroke="#0f0f0f" stroke-miterlimit="10" stroke-width="1.42"/><path d="m533.27 84.81 102.91 78.03h-35.68l86.04 68.79 63.12 239.98-91.01-7.74-77.78 18.28 19.63-82.65-34.36 18.67 23.26-73.87-28.63 12.77 23.63-88.55-24.82 24.23 3.37-99.07-12.08 26.75z" fill="#2e4e72"/><path d="m545.88 84.81 102.9 78.03h-35.67l86.03 68.79 63.13 239.98-91.02-7.74-77.78 18.28 19.64-82.65-34.37 18.67 23.26-73.87-28.63 12.77 23.64-88.55-24.83 24.23 3.37-99.07-12.07 26.75z" fill="none" stroke="#0f0f0f" stroke-miterlimit="10" stroke-width="1.42"/><path d="m489.36 494.95-38.83-58.51-15.96 11.35 11.7 2.65-2.48 10.47 36.35 67.38h28.02l6.82-42.59-23.47-14.2z" fill="#fff"/><path d="m450.53 436.44-15.96 11.35 11.7 2.65-2.48 10.47 36.35 67.38h28.02l6.82-42.59-23.47-14.2-2.79 30.42" fill="none" stroke="#0f0f0f" stroke-miterlimit="10" stroke-width="1.42"/><path d="m518.21 384.84-24.36 12.53-2.34 74.13 23.47 14.2 8.43-52.63z" fill="#f9d7aa"/><g stroke="#0f0f0f" stroke-miterlimit="10" stroke-width="1.42"><path d="m486.81 468.65 28.17 17.05 8.43-52.63-5.2-48.23-24.36 12.53" fill="none"/><g fill="#c16752"><path d="m630.74 406.12 8.81-6.62s19.56 16.07 19.09 34a14.82 14.82 0 0 1 -10.4 10.88s-24.12-19.59-17.5-38.26z"/><path d="m500.47 398.08v-17.73l67.15-40.69s61.7 31.23 80.62 104.76c-2.84 7.33-19.51 19.86-19.51 19.86z"/></g></g><path d="m516.87 322.67h26.26a0 0 0 0 1 0 0v74.33a13.13 13.13 0 0 1 -13.13 13.12 13.13 13.13 0 0 1 -13.13-13.12v-74.33a0 0 0 0 1 0 0z" fill="#c16752" transform="matrix(.50528089 .86295494 -.86295494 .50528089 578.33 -276.11)"/><g stroke="#0f0f0f" stroke-miterlimit="10" stroke-width="1.42"><path d="m489.18 375.08 71.92-42.12 13.27 22.67-64.13 37.56" fill="none"/><g fill="#c16752"><circle cx="567.74" cy="344.3" r="13.13"/><circle cx="567.74" cy="344.3" r="8.65"/><circle cx="567.74" cy="344.3" r="3.9"/></g></g><path d="m705.78 931.68h-547.65l-12.77-34.75h35.47l-21.28-38.88 38.3-83.11 72.35 14.18 51.06-83.69 45.52-8.51 39.82 87.07 85.8 19.32 56.54-61 29.53 22.99v69.77l95.61-3.28 31.7 65.14h35.37l24.12 34.75z" fill="#2e4e72"/><path d="m714.53 931.68h-547.65l-12.77-34.75h35.46l-21.27-38.88 38.3-83.11 72.34 14.18 51.07-83.69 45.52-8.51 39.81 87.07 85.8 19.32 56.55-61 29.53 22.99v69.77l95.61-3.28 31.7 65.14h35.37l24.11 34.75z" fill="none" stroke="#0f0f0f" stroke-miterlimit="10" stroke-width="1.42"/><path d="m883.01 896.93-53.34-29.06-17.59-64.56-89.37 7.09-74.47 84.61v36.67h247.53" fill="#2e4e72" stroke="#0f0f0f" stroke-miterlimit="10" stroke-width="1.42"/><path d="m596.82 888.42c-22.35 4.61-22.35 43.27-22.35 43.27h84l37.24-76.61 15.29 14.19 30.14-57.81-35.36-46.16-15.22 42.7-28.85 6-31.14 71.28s-11.06.3-33.75 3.14z" fill="#e8b34b"/><path d="m574.47 931.68h84.05l37.24-76.6 15.25 14.19 30.14-57.81-35.37-46.16-15.22 42.74-28.85 5.91" fill="none" stroke="#0f0f0f" stroke-miterlimit="10" stroke-width="1.42"/><path d="m690.56 808.04 15.22-42.74-31.7-41.38-43.92 43.81 31.55 46.22z" fill="#fff"/><path d="m661.71 813.95 28.85-5.91 15.22-42.74-31.7-41.38" fill="none" stroke="#0f0f0f" stroke-miterlimit="10" stroke-width="1.42"/><path d="m413.94 866.67-24.94-22.58-59.58 43.62s-13.36-11.82-27.54-25.3-40.62 15.69-40.62 15.69l54.33 71.67 73.76-33.69-9.57 30.85h51.78l20.64-98.44z" fill="#e8b34b"/><path d="m261.26 878.1 54.33 71.67 73.76-33.69-9.57 30.85h51.78l20.64-98.44-38.26 18.18-24.94-22.58" fill="none" stroke="#0f0f0f" stroke-miterlimit="10" stroke-width="1.42"/><path d="m581.92 603.65 46.81-125.54-54.37 1.41-23.65 20.93-94.33 113.48-79.44 162.9 29.66 7.16 56.73 11.42 32.77-156.3 66.85-115.61 9.22-1.42-41.67 99.65 81.7 163.92 61.88-61.73z" fill="#aa6231"/><g stroke="#0f0f0f" stroke-miterlimit="10" stroke-width="1.42"><path d="m376.94 776.83 29.66 7.16 56.73 11.42 32.77-156.3 66.85-115.61 17.3-2.66" fill="none"/><path d="m612.2 785.65 61.88-61.73-92.16-120.27 46.81-125.54-54.37 1.41-23.65 20.93" fill="none"/><path d="m406.6 783.99-17.6 60.1 24.94 22.58 38.26-18.18 11.13-53.08z" fill="#fff"/><path d="m503.55 394.41 57.22-37.34 67.96 111.82-88.48 37.94z" fill="#f9d7aa"/></g><path d="m501.42 341.32 6.38 36.05 10.87-5.9 10.23 31.81 12-32.82-15.98-36.65z" fill="#fff"/><g stroke-miterlimit="10" stroke-width="1.42"><g fill="none"><path d="m507.8 377.37 10.87-5.9 10.23 31.81 12-32.82-15.98-36.65-23.5 7.51" stroke="#0f0f0f"/><g stroke="#fff"><path d="m628.5 850.24s2.72-37.83-6.15-36.88.83 28.6.83 28.6-18.56-22.69-26.6-17.49 31.92 25.77 31.92 25.77z"/><path d="m354.24 853.72s12.06-36 3.24-37.25-6.33 27.91-6.33 27.91-12.32-26.61-21.4-23.58 24.49 32.92 24.49 32.92z"/></g></g><path d="m480.58 329.58-1.54 11.05 5.91 6.53 30.5-5.38 7.51 11.26.46-12.11 12.34 18.03-2.49-34.51z" fill="#0f0f0f" stroke="#0f0f0f"/></g><path d="m539.25 365.86 9.69-5.67 23.11 43.87 19.8-4.33 47.7 78.91-52.13 21.81z" fill="#f7af61"/><path d="m539.25 365.86 9.69-5.67 23.11 43.87 19.8-4.33 47.7 78.91-52.13 21.81" fill="none" stroke="#0f0f0f" stroke-miterlimit="10" stroke-width="1.42"/><ellipse cx="506.13" cy="322.3" fill="#e8b34b" rx="48.32" ry="9.7" transform="matrix(.99932839 -.03664371 .03664371 .99932839 -11.48 18.78)"/><path d="m484.17 314.43c6.48-.89 13.82-1.53 21.61-1.82 26.67-1 48.44 2.57 48.64 7.92s-21.26 10.47-47.93 11.47-48.45-2.57-48.64-7.92" fill="none" stroke="#0f0f0f" stroke-miterlimit="10" stroke-width="1.42"/><path d="m648.24 390.16-1.95-15.43-24.57-5.63-10.73 23.77 11.89 1.37-32.13 69.55.75 12.72 4.25-1.59 1.6 12.23 19.32-6.74-4.78-18.44z" fill="#fff"/><path d="m590.75 463.79.75 12.72 4.25-1.59 1.6 12.23 19.32-6.74-4.78-18.44 36.35-71.81-1.95-15.43-24.57-5.63-10.73 23.77 17.74 2.04" fill="none" stroke="#0f0f0f" stroke-miterlimit="10" stroke-width="1.42"/><path d="m492.68 320.62s12.14-26.89 23.81-27.85 12.87 26.5 12.87 26.5-12.93 10.41-36.68 1.35z" fill="#e8b34b"/><path d="m516.49 292.77c11.68-1 12.87 26.5 12.87 26.5s-12.93 10.41-36.68 1.35" fill="none" stroke="#0f0f0f" stroke-miterlimit="10" stroke-width="1.42"/><path d="m561.23 352.45-8.18 9.65.87 2.03 14.88 23.9 42.19 4.84 10.73-23.77z" fill="#f9d7aa"/><path d="m561.23 352.45-8.18 9.65.87 2.03 14.88 23.9 42.19 4.84 10.73-23.77" fill="none" stroke="#0f0f0f" stroke-miterlimit="10" stroke-width="1.42"/><path d="m514.93 383.83 48.02 124.6-28.02 11.17-31.98-127.56z" fill="#f7af61"/><path d="m514.93 383.83 48.02 124.6-28.02 11.17" fill="none" stroke="#0f0f0f" stroke-miterlimit="10" stroke-width="1.42"/><path d="m608 426.45-6.29 13.62s-33.09-13.37-54.61-78.8l14.13-8.82s17.24 63.12 46.77 74z" fill="#c16752"/><path d="m544.77 362.63c5.2-3.25 16.46-10.18 16.46-10.18s17.24 63.12 46.77 74" fill="none" stroke="#0f0f0f" stroke-miterlimit="10" stroke-width="1.42"/><path d="m503 392-9.1 5.34s5.93 55.06 28.79 77.31c-4.75-18.72-19.69-82.65-19.69-82.65z" fill="#c16752"/><g stroke-miterlimit="10" stroke-width="1.42"><g fill="none"><path d="m522.64 474.68c-4.7-18.75-19.64-82.68-19.64-82.68l-9.1 5.34" stroke="#0f0f0f"/><g stroke="#fff"><path d="m638.31 840.19s14.89-7.57 26.48 13.24"/><path d="m633.89 852.1s14.89-7.56 26.48 13.24"/><path d="m627.3 863.88s14.9-7.56 26.48 13.24"/><path d="m359.15 855.56s16.62 1.65 15.18 25.42"/><path d="m349 863.22s16.62 1.65 15.18 25.42"/><path d="m337.11 869.6s16.63 1.65 15.18 25.42"/></g></g><g stroke="#0f0f0f"><path d="m416.9 449.74h36.17v11.35h-36.17z" fill="#f9c82b"/><path d="m427.42 447.02h20.21l-2.38 16.85h-14.94z" fill="#fff"/></g></g><path d="m406.6 467.35-288.19 204.4 92.52-316.11 195.67 87.71 2.61 13.21z" fill="#fff"/><path d="m808.17 526.08-31.75-73.81-20.69-7.66-.51-.19 91.02 337.02 22.13-115.44z" fill="#2e4e72"/><path d="m881.67 696.92-73.5-170.84-31.75-73.81" fill="none" stroke="#0f0f0f" stroke-miterlimit="10" stroke-width="1.42"/><path d="m648.24 140.38 126.96 140.9-35.28-9.14 55.14 52.31h-38.58l76.4 67.48-43.41-2.31 72.73 77.73-89.84 10.76-70.93 46.22 5.68-121.05-25.54 43.74 8.52-100.96-20.81 22.48 2.8-76.87-16.99 16.87z" fill="#2e4e72"/><path d="m658.29 129.03 126.96 140.91-35.29-9.15 55.15 52.31h-38.58l76.4 67.48-43.42-2.31 72.74 77.73-89.84 10.76-70.93 46.22 5.67-121.05-25.53 43.74 8.51-100.96-20.8 22.48 2.8-76.87-16.99 16.87z" fill="none" stroke="#0f0f0f" stroke-miterlimit="10" stroke-width="1.42"/><path d="m207.78 263.55 68.8-80.86-29.79 4.26 89.37-89.37-6.39 140.44-17.73-24.12-22.69 138.55" fill="#2e4e72"/><path d="m218.06 263.55 68.8-80.86-29.79 4.26 89.37-89.37-6.38 140.44-17.73-24.12-22.7 138.55" fill="none" stroke="#0f0f0f" stroke-miterlimit="10" stroke-width="1.42"/><path d="m381.32 573.5s26-13.24 48.23 8c-8.04 6.66-35.94 12.34-48.23-8z" fill="#f46969"/><ellipse cx="405.43" cy="579.04" fill="#0f0f0f" rx="8.33" ry="5.73" transform="matrix(.28033166 -.9599032 .9599032 .28033166 -264.06 805.83)"/><path d="m392.66 662.14s14.88-13.12 33.1-2.87c-4.17 5.73-21.57 14.17-33.1 2.87z" fill="#f46969"/><ellipse cx="409.47" cy="661.7" fill="#0f0f0f" rx="5.66" ry="3.89" transform="matrix(.03 -1 1 .03 -265.19 1049.44)"/><path d="m448.55 537.15s19.1-5.31 31 11.85c-6.21 3.33-25.55 3.34-31-11.85z" fill="#f46969"/><ellipse cx="463.86" cy="544.08" fill="#0f0f0f" rx="5.66" ry="3.89" transform="matrix(.46530557 -.88515011 .88515011 .46530557 -233.57 701.49)"/><path d="m613.24 559.15s11.61-23.34 38.89-19.9c-2.25 9.03-19.25 27.95-38.89 19.9z" fill="#f46969"/><ellipse cx="633.49" cy="550.29" fill="#0f0f0f" rx="5.12" ry="7.44" transform="matrix(.93800998 -.34660825 .34660825 .93800998 -151.47 253.71)"/><path d="m753.14 656.51s23.57-11.15 42.86 8.43c-7.35 5.7-32.41 10.06-42.86-8.43z" fill="#f46969"/><ellipse cx="774.53" cy="662.08" fill="#0f0f0f" rx="7.44" ry="5.12" transform="matrix(.30818692 -.95132582 .95132582 .30818692 -94.02 1194.87)"/><path d="m639.88 625.57s14.14-9.18 28.2 1.7c-4.22 4.29-19.91 9.24-28.2-1.7z" fill="#f46969"/><ellipse cx="654.07" cy="627.29" fill="#0f0f0f" rx="4.81" ry="3.31" transform="matrix(.17828703 -.98397852 .98397852 .17828703 -79.74 1159.1)"/><path d="m730.54 562.2s9.37-14 26.58-9.59c-2.12 5.61-14.63 16.39-26.58 9.59z" fill="#f46969"/><ellipse cx="744.26" cy="558.17" fill="#0f0f0f" rx="3.31" ry="4.81" transform="matrix(.97429148 -.22529116 .22529116 .97429148 -106.6 181.98)"/><path d="m572.19 742.5s16.17-4.78 26.55 9.65c-5.26 2.91-21.74 3.2-26.55-9.65z" fill="#f46969"/><ellipse cx="585.31" cy="748.18" fill="#0f0f0f" rx="4.81" ry="3.31" transform="matrix(.45087754 -.89258582 .89258582 .45087754 -346.42 933.25)"/><path d="m261.91 566.44s16.47-6.6 28.77 7.49c-5.22 3.57-22.42 5.49-28.77-7.49z" fill="#f46969"/><ellipse cx="276.22" cy="571.1" fill="#0f0f0f" rx="5.06" ry="3.48" transform="matrix(.36487678 -.93105582 .93105582 .36487678 -356.3 619.85)"/><path d="m190.86 623.28s15.79-14.15 35.36-3.35c-4.41 6.15-22.94 15.33-35.36 3.35z" fill="#f46969"/><ellipse cx="208.82" cy="622.67" fill="#0f0f0f" rx="6.05" ry="4.16" transform="matrix(.02460666 -.99969721 .99969721 .02460666 -418.81 816.05)"/><path d="m175.63 268.04 230.97 175.31 2.61 13.21-2.61 10.79-272.58 256.57" fill="none" stroke="#fff" stroke-miterlimit="10" stroke-width="1.42"/><path d="m416.9 461.08-10.3 6.27v-24l10.3 6.39z" fill="#f9c82b" stroke="#0f0f0f" stroke-miterlimit="10" stroke-width="1.42"/><path d="m713.51 97.58s-27.23 18.76-7.54 55 64.73 16 64.73 16-66.42 1.23-57.19-71z" fill="#fcc047"/><g fill="none" stroke-miterlimit="10" stroke-width="1.42"><path d="m708 91.33s-27.23 18.76-7.54 55 64.73 16 64.73 16-66.44 1.23-57.19-71z" stroke="#fff"/><g stroke="#0f0f0f"><path d="m508.2 351.62v12.33l5.39-2.64"/><path d="m518.67 371.47 7.93-4.6"/><path d="m595.75 474.91-1.18-12.53"/><path d="m601.88 485.29-3.2-23.27"/><path d="m606.43 484.14-2.99-21.76"/><path d="m610.94 482.94-2.82-20.56"/><path d="m431.85 447.02 1.89 13.41"/><path d="m437.33 446.95.39 13.55"/><path d="m442.98 447-1.67 13.45"/><path d="m451.65 444.06s-1.83 2.42-4 3"/><path d="m660.37 706.03-58.49 59.27"/><path d="m469.64 765.3-80.64-13.2"/><path d="m389.35 916.08 18.92-9.69"/><path d="m708.53 831.79-12.77 23.29"/></g></g></svg>