<svg viewBox="0 0 1000 1000" xmlns="http://www.w3.org/2000/svg"><path d="m247.92 130.12-128.54 450.04 277.07 364.85 409.9-111.4 74.27-498.45-245.65-310.16z" fill="#f9e0ac"/><g fill="#fcce7c"><path d="m200.46 595.17 69.02-304.23 36.52 309.15z"/><path d="m435.57 595.17 69.01-304.23 36.53 309.15z"/><path d="m149.96 580.88 31.51-138.87 16.67 141.12z" opacity=".63"/><path d="m790.56 580.88 31.51-138.87 16.67 141.12z" opacity=".63"/><path d="m645.17 566.71 102.49-328.54 54.24 333.86z"/></g><path d="m392.88 489.41-76.4-4.41-25.71 89.39 70.34 16.78z" fill="#f45922"/><g fill="none" stroke-miterlimit="10" stroke-width="1.43"><path d="m306 521.42 65.94 5.26" stroke="#fc861d"/><path d="m325.69 571.13 19.55-84.47" stroke="#fc861d"/><path d="m392.88 489.41-76.4-4.41-25.71 89.39 70.34 16.78z" stroke="#141414"/></g><path d="m399.31 434.66-32.85 110.45 108.52 23.36 25.61-133.81z" fill="#7b3ad6"/><path d="m500.59 434.66-25.61 133.81 33.63 7.23 17.34 2.49 29.04-143.53z" fill="#5a1cba"/><path d="m407.4 558.32 36.01-123.86" fill="none" stroke="#c630b1" stroke-miterlimit="10" stroke-width="1.43"/><path d="m678.76 376.24 25.83 97.93-53.91 5.24-2.86-84.74z" fill="#3282d8"/><g stroke-miterlimit="10" stroke-width="1.43"><path d="m382.88 489.89h146.73" fill="none" stroke="#c630b1"/><g stroke="#141414"><path d="m366.46 545.11 108.52 23.36 25.61-133.81" fill="none"/><path d="m678.76 376.24 25.83 97.93-53.91 5.24-2.86-84.74z" fill="none"/><path d="m530.37 142.18-25.37 193.46 31.89-4.76 47.75-60.94-24.15-146.16z" fill="#ba2424"/><path d="m500.59 434.66-25.61 133.81 33.63 7.23 17.34 2.49" fill="none"/></g></g><path d="m525.71 509.4 27.13-139.01 106.11 26.18 10.29 112.83-66.1 33.57z" fill="#49adea"/><path d="m540.3 434.66h154.59" fill="#c630b1" stroke="#f9bb1e" stroke-miterlimit="10" stroke-width="1.43"/><path d="m529.04 146.4 9.52-30.23 35.71-8.09-.18 12.15z" fill="#fff" stroke="#141414" stroke-miterlimit="10" stroke-width="1.43"/><path d="m587.62 177.67-16.45-53.89-67.88 30.61 20.04 60.56-25.58 16.31.58 2.02z" fill="#f9d41c"/><g stroke-miterlimit="10" stroke-width="1.43"><path d="m503.29 154.39 20.04 60.56-25.58 16.31.58 2.02 89.29-55.61-16.45-53.89" fill="none" stroke="#141414"/><path d="m658.95 396.57 10.29 112.83-66.1 33.57-77.43-33.57" fill="none" stroke="#141414"/><path d="m612.59 382.29-15.11 138.29" fill="#c630b1" stroke="#f9bb1e"/></g><path d="m503.29 154.39-24.42 11.01 18.88 65.86 25.58-16.31z" fill="#f99528"/><g stroke-miterlimit="10" stroke-width="1.43"><path d="m489.05 200.91 90.22-50.61" fill="none" stroke="#7b3ad6"/><g stroke="#141414"><path d="m478.87 165.4 18.88 65.86 25.58-16.31-20.04-60.56" fill="none"/><path d="m522.14 322.43-106.4-132.95-37.85 154.25h-12.14l-3.57 22.85h7.14l-5.24 53.32-39.75-5.47 36.42 25.47 79.26-77.57 74.99 4.97z" fill="#141414"/></g></g><path d="m535.94 310.64 24.06-25.62-48.12-69.12-23.54 15.02z" fill="#3db8e8"/><path d="m488.34 230.92 47.6 79.72 24.06-25.62-48.12-69.12" fill="none" stroke="#141414" stroke-miterlimit="10" stroke-width="1.43"/><path d="m688.29 370.39-26.19 54.51-207.09-38.8-60.94 53.8-24.75-23.33 60.06-104z" fill="#d83a3a" stroke="#141414" stroke-miterlimit="10" stroke-width="1.43"/><path d="m697.09 144.14-23.56 26.3 22.49 30.47h18.39l7.5-45.7z" fill="#f7a38f"/><path d="m619.73 221.38-28.73-55.98-79.12 50.5 48.12 69.12z" fill="#5fcaff"/><path d="m511.88 215.9 48.12 69.12 59.73-63.64" fill="none" stroke="#141414" stroke-miterlimit="10" stroke-width="1.43"/><path d="m725.9 200.91s6.66 100-37.61 169.48c-27.14-4.28-173.29-39-173.29-39s86.17-110.49 129.49-121.91 81.41-8.57 81.41-8.57z" fill="#d83a3a"/><path d="m644.49 209.48c43.32-11.43 81.41-8.57 81.41-8.57s6.66 100-37.61 169.48c-27.14-4.28-173.29-39-173.29-39" fill="none" stroke="#141414" stroke-miterlimit="10" stroke-width="1.43"/><path d="m725.9 173.3v48.08l-105.28.15-27.62-54.01 80.53 2.92 28.56 24.04 8.09-19.76-10.94 5.72 9.52-22.85z" fill="#fff"/><g fill="none" stroke="#141414" stroke-miterlimit="10" stroke-width="1.43"><path d="m708.76 157.59 17.14 15.71v48.08h-106.17"/><path d="m710.19 174.72-10.95 5.72"/><path d="m682.01 177.58-8.48-7.14 18.33-11.43"/></g><path d="m417.88 975 381.33-101.4-18.57 101.4z" fill="#f9e0ac"/><path d="m699.24 131.64 6.24-28.39 65.17 6.79-2.86 63.26 29.81-17.56-37.13 45.17-14.64-63.56-13.74 18.75z" fill="#d83a3a"/><path d="m750.02 131.64-17.93 24.46-32.85-24.46" fill="none" stroke="#141414" stroke-miterlimit="10" stroke-width="1.43"/><path d="m802.07 562.6-31.42-105.92h-66.06l67.38 127.8z" fill="#ad2a95"/><path d="m664.43 456.68h83.01l26.06 120.8h-99.02z" fill="#c630b1"/><g stroke-miterlimit="10" stroke-width="1.43"><path d="m721.37 542.97-13.57-86.29" fill="#c630b1" stroke="#f9bb1e"/><g fill="none"><path d="m669.24 509.4h117.99" stroke="#f9bb1e"/><g stroke="#141414"><path d="m802.07 562.6-31.42-105.92"/><path d="m747.44 456.68 26.06 120.8h-99.02l-10.05-120.8"/><path d="m770.65 110.04-2.86 63.26 29.81-17.56-37.13 45.17"/></g></g></g><path d="m684.42 142 41.48 31.3 14.74-17.62-49.26-31.9z" fill="#fff"/><g stroke="#141414" stroke-miterlimit="10" stroke-width="1.43"><path d="m684.42 142 41.48 31.3 14.74-17.62" fill="none"/><path d="m385.98 439.9-42.37 45.1-37.61-36.53 35.23 13.98 22.85-42.55z" fill="#ba2424"/><path d="m525.23 310.64 177.7 54.16 14.16-36.53-173.05-45.71z" fill="#141414"/></g><circle cx="799.21" cy="155.68" fill="#fff" r="9.64"/><g stroke-miterlimit="10" stroke-width="1.43"><path d="m799.21 146a9.64 9.64 0 1 1 -9.64 9.64" fill="none" stroke="#141414"/><path d="m365.99 401.33 41.41 33.81-20.71 13.33-32.13-28.57z" fill="#fff" stroke="#141414"/><path d="m548.02 192.83 44.1 48.46" fill="none" stroke="#fff"/><path d="m677.81 236.61-15.71 43.33-53.21-49-16.77 20.93 101 110.48c24.26-42.92 31-95 32.66-128.16" fill="#d83a3a" stroke="#141414"/><path d="m513.26 272.66 91.82-79.83" fill="none" stroke="#fff"/></g><path d="m608.89 230.92-21.27-27.92-10.5 1.5-2.38 8.09s-12.61 7.14-6.9 24c4.76-3.59 9.76-7.59 9.76-7.59l11.9 21.42z" fill="#f7a38f"/><g stroke="#141414" stroke-miterlimit="10" stroke-width="1.43"><path d="m567.84 236.61c4.76-3.61 9.76-7.61 9.76-7.61" fill="none"/><path d="m589.5 250.42 19.39-19.5-21.27-27.94-10.5 1.5" fill="none"/><path d="m610.92 224-29.51 27.13 12.7 15.64 30.76-30.55z" fill="#fff"/></g><path d="m546.89 123.78-4.04 23.81 30.23-3.57 1.19-27.85z" fill="#f7a38f"/><g stroke="#141414" stroke-miterlimit="10" stroke-width="1.43"><path d="m573.08 144.02 1.19-27.85-27.38 7.61-4.04 23.81" fill="none"/><path d="m585.69 211.86-10.95.71" fill="none"/><path d="m191 674.47 47.64-76.52-68.29-18.48-8.07 57.18z" fill="#ce3c3c"/></g><path d="m665.67 542.97h55.7l22.14 133.53-74.27 5.72z" fill="#4cccd3"/><g stroke-miterlimit="10" stroke-width="1.43"><path d="m568.85 218.75 12.56-1.03" fill="none" stroke="#141414"/><path d="m692.81 542.97 14.99 123.75" fill="none" stroke="#f9e0ac"/><g stroke="#141414"><path d="m162.28 636.65 8.07-57.18-22.76-6.15-3.94 38.8z" fill="#141414"/><path d="m566.58 225.21 11.5-1.81" fill="none"/></g></g><path d="m208.6 697.64 38.17 50.26 90.77-85.32 11.07-86.76-79.13-16.17z" fill="#49adea"/><path d="m233.43 730.34 60.16-165.76" fill="#49adea" stroke="#f9bb1e" stroke-miterlimit="10" stroke-width="1.43"/><path d="m184.81 666.31 23.79 31.33 60.88-137.99-22.27-4.54z" fill="#3282d8"/><g stroke-miterlimit="10" stroke-width="1.43"><path d="m204.79 630.69 81.95 17.54" fill="#49adea" stroke="#f9bb1e"/><g fill="none"><path d="m208.6 697.64 38.17 50.26 90.77-85.32 11.07-86.76-79.13-16.17z" stroke="#141414"/><path d="m184.81 666.31 23.79 31.33 60.88-137.99-22.27-4.54z" stroke="#141414"/><g stroke="#f9bb1e"><path d="m433.81 547.88s13.26-18.88 21.26-13.78-15.44 15.34-21.26 13.78-22.23-5.78-17.58-14.53 17.58 14.53 17.58 14.53z"/><path d="m449.14 556.41c-8.59 2.63-15.33-8.53-15.33-8.53s-7.17 5.13-14 3.09"/><path d="m293.57 563.44s13.25-18.86 21.26-13.79-15.44 15.35-21.26 13.79-22.23-5.78-17.58-14.53 17.58 14.53 17.58 14.53z"/><path d="m308.89 572c-8.59 2.63-15.32-8.53-15.32-8.53s-7.17 5.12-14 3.09"/></g></g><g stroke="#141414"><path d="m846.73 562.6h-44.66v90.1l27.9 22.39z" fill="#141414"/><g fill="none"><path d="m567.84 129.97-1.48 14.17"/><path d="m560.49 131.28-1.49 14.16"/></g></g></g><path d="m316.48 647.94 38.08-110.69 174.24 25.35-21.66 150.32z" fill="#c630b1"/><g fill="none" stroke-miterlimit="10" stroke-width="1.43"><path d="m403.42 656.11 30.11-107.37" stroke="#f9bb1e"/><path d="m336.01 591.17 166.26 35.8" stroke="#f9bb1e"/><path d="m316.48 647.94 38.08-110.69 174.24 25.35-21.66 150.32z" stroke="#141414"/></g><path d="m814.65 600.09h-68.51l13.79 196.85 46.31 36.7.11-.03 26.65-178.84z" fill="#fc861d"/><path d="m773.5 666.72h57.72" fill="none" stroke="#f9e0ac" stroke-miterlimit="10" stroke-width="1.43"/><path d="m814.65 600.09h-68.51l13.79 196.85 46.31 36.7.11-.03 26.65-178.84z" fill="none" stroke="#141414" stroke-miterlimit="10" stroke-width="1.43"/><path d="m802.07 562.6h-58.56l2.63 37.49h68.51z" fill="#f45922"/><path d="m770.29 562.6 45.92 204.83" fill="none" stroke="#f9e0ac" stroke-miterlimit="10" stroke-width="1.43"/><path d="m802.07 562.6h-58.56l2.63 37.49h68.51z" fill="none" stroke="#141414" stroke-miterlimit="10" stroke-width="1.43"/><path d="m721.37 542.97h27.85l24.28 123.75-29.99 9.78z" fill="#21969b"/><path d="m553.14 131.88-1.49 14.16" fill="none" stroke="#141414" stroke-miterlimit="10" stroke-width="1.43"/><path d="m761.01 600.09h-74.95" fill="none" stroke="#f9e0ac" stroke-miterlimit="10" stroke-width="1.43"/><path d="m336.41 865.95 79.33 30.69 23.04-229.92-141.59-42.46-52.67 120.69z" fill="#4cccd3"/><g stroke-miterlimit="10" stroke-width="1.43"><path d="m341.99 740.21-85.9-21.77" fill="none" stroke="#f9e0ac"/><path d="m297.91 816.47 55.55-175.33" fill="none" stroke="#f9e0ac"/><g stroke="#141414"><path d="m336.41 865.95 79.33 30.69 23.04-229.92-141.59-42.46-52.67 120.69z" fill="none"/><path d="m500 685.07-61.22-18.35-23.04 229.92h73.07z" fill="#141414"/><path d="m721.37 542.97h27.85l24.28 123.75" fill="none"/><path d="m564.98 280-32.13 41.77 38.13 11.49 29.35-45.41z" fill="#f9d41c"/></g></g><path d="m396.45 945.01 115.25-31.33-11.7-187.9-5.79-1.42-20.14 45.89-132.08-30.04-26.97 97.56z" fill="#fc861d"/><g fill="none" stroke-miterlimit="10" stroke-width="1.43"><path d="m453.19 843.3-128.39-40.92" stroke="#f9e0ac"/><g stroke="#141414"><path d="m396.45 945.01 115.25-31.33-11.7-187.9-5.79-1.42-20.14 45.89-132.08-30.04-26.97 97.56z"/><path d="m665.67 542.97h55.7l22.14 133.53-74.27 5.72z"/></g></g><path d="m494.21 724.36-138.46-33.93-13.76 49.78 132.08 30.04z" fill="#f45922"/><path d="m565.73 290.94-17.19 22.35 20.4 6.15 15.7-24.3z" fill="#141414" stroke="#141414" stroke-miterlimit="10" stroke-width="1.43"/><path d="m807.33 827.07-25.74-122h-93.3l-2.23-2.96-24.67 129.36 37.67 31.29 107.29-29.15z" fill="#c630b1"/><path d="m781.59 705.07-8.09-38.35h-80.69l-6.75 35.39 2.23 2.96z" fill="#ad2a95"/><g stroke-miterlimit="10" stroke-width="1.43"><path d="m741.89 666.72 24.51 177.74" fill="#c630b1" stroke="#f9bb1e"/><path d="m707.8 755.8 84.45-.21" fill="#c630b1" stroke="#f9bb1e"/><g fill="none"><path d="m745.14 690.28s11.94-19.72 20.27-15.2-14.36 16.36-20.27 15.2-22.58-4.28-18.53-13.28 18.53 13.28 18.53 13.28z" stroke="#f9bb1e"/><path d="m761 697.75c-8.39 3.21-15.87-7.47-15.87-7.47s-6.81 5.6-13.77 4" stroke="#f9bb1e"/><path d="m567.92 508.54s11.94-19.72 20.27-15.2-14.36 16.36-20.27 15.2-22.58-4.26-18.53-13.31 18.53 13.31 18.53 13.31z" stroke="#f9e0ac"/><path d="m583.79 516c-8.4 3.22-15.87-7.46-15.87-7.46s-6.81 5.6-13.77 4" stroke="#f9e0ac"/><path d="m443.41 434.46s11.94-19.72 20.28-15.2-14.36 16.36-20.28 15.2-22.57-4.26-18.52-13.3 18.52 13.3 18.52 13.3z" stroke="#c630b1"/><path d="m459.28 441.92c-8.39 3.22-15.87-7.46-15.87-7.46s-6.8 5.6-13.76 4" stroke="#c630b1"/><g stroke="#f9e0ac"><path d="m354.66 641.49s19.87-17.83 27.57-10-21.41 13.29-27.57 10-23.58-12.32-16.05-21 16.05 21 16.05 21z"/><path d="m369.72 655.1c-10.37.74-15.06-13.61-15.06-13.61s-9.43 3.91-16.61-.17"/><path d="m693.84 543.65s11.94-19.72 20.27-15.19-14.36 16.36-20.27 15.19-22.57-4.25-18.53-13.3 18.53 13.3 18.53 13.3z"/><path d="m709.71 551.12c-8.39 3.21-15.87-7.47-15.87-7.47s-6.8 5.61-13.77 4"/></g><path d="m708.24 458s11.94-19.72 20.27-15.2-14.36 16.36-20.27 15.2-22.57-4.26-18.53-13.3 18.53 13.3 18.53 13.3z" stroke="#f9bb1e"/><path d="m724.11 465.48c-8.39 3.21-15.87-7.47-15.87-7.47s-6.8 5.6-13.77 4" stroke="#f9bb1e"/><path d="m774.38 578.84s8.34-13.77 14.16-10.61-10 11.42-14.16 10.61-15.76-3-12.94-9.29 12.94 9.29 12.94 9.29z" stroke="#f9e0ac"/><path d="m785.46 584.05c-5.86 2.25-11.08-5.21-11.08-5.21s-4.75 3.91-9.61 2.82" stroke="#f9e0ac"/><g stroke="#141414"><path d="m807.33 827.07-25.74-122h-93.3l-2.23-2.96-24.67 129.36 37.67 31.29 107.29-29.15z"/><path d="m781.59 705.07-8.09-38.35h-80.69"/></g></g></g><path d="m642.82 509.4h26.42l12.14 97.84-38.56 8.56z" fill="#f45922"/><path d="m369.79 910.73 47.14-204.52" fill="none" stroke="#f9e0ac" stroke-miterlimit="10" stroke-width="1.43"/><path d="m507.14 602.24 18.57-92.84h117.11l7.86 97.12-137.83 9.28z" fill="#fc861d"/><g fill="none" stroke-miterlimit="10" stroke-width="1.43"><path d="m567.84 509.4-15 95.32" stroke="#f9e0ac"/><path d="m515.46 560.66h160.14" stroke="#f9e0ac"/><g stroke="#141414"><path d="m494.21 724.36-138.46-33.93-13.76 49.78 132.08 30.04z"/><path d="m642.82 509.4 7.86 97.12-137.83 9.28-5.71-13.56"/></g></g><path d="m507.14 602.24-11.34 57.62 212-22.83v-48.36z" fill="#5a1cba"/><path d="m471.44 783.62 221.24 80.88 15.12-4.11v-223.36l-212 22.83z" fill="#7b3ad6"/><g stroke-miterlimit="10" stroke-width="1.43"><g fill="none"><path d="m707.8 700.8-222.45 10.82" stroke="#c630b1"/><path d="m611.68 595.17-14.2 135.17" stroke="#c630b1"/><g stroke="#141414"><path d="m471.44 783.62 221.24 80.88 15.12-4.11v-223.36l-212 22.83z"/><path d="m507.14 602.24-11.34 57.62 212-22.83v-48.36z"/></g></g><path d="m491.25 919.24-73.15 19.89-22.61-139.8 62.38 3.81z" fill="#141414" stroke="#141414"/></g><path d="m657.52 744.82-207.77 76.06 21.69 103.75 232.88-63.29z" fill="#49adea"/><path d="m600.33 706.21-204.84 93.12 54.26 21.55 207.77-76.06z" fill="#3282d8"/><g stroke-miterlimit="10" stroke-width="1.43"><path d="m589.62 892.51-34.85-110.07-63.52-26.64" fill="none" stroke="#f9bb1e"/><path d="m600.33 706.21-204.84 93.12 54.26 21.55" fill="none" stroke="#141414"/><path d="m170.35 579.47-22.76-6.15z" fill="#ce3c3c" stroke="#141414"/><g fill="none"><g stroke="#c630b1"><path d="m607.83 631.14s32.93-35.86 46.32-20.62-46.32 20.62-46.32 20.62z"/><path d="m607.42 630.7s-31.42-37.22-45.42-22.56 45.42 22.56 45.42 22.56z"/><path d="m607.42 630.7s18.27 3.16 17.33 8.73-17.33-8.73-17.33-8.73-4.26 13.12-7.72 8.3 7.72-8.3 7.72-8.3z"/></g><g stroke="#f9e0ac"><path d="m410.92 731.23s29.74-22.83 37.87-9.49-37.87 9.49-37.87 9.49z"/><path d="m410.67 730.84s-18.86-32.4-31.44-23.14 31.44 23.14 31.44 23.14z"/><path d="m410.67 730.84s13.44 4.83 12 8.93-12-8.93-12-8.93-5 9.38-7 5.27 7-5.27 7-5.27z"/></g><g stroke="#f9bb1e"><path d="m524.76 770.23s-.38-59.73 24.38-57.23-24.38 57.23-24.38 57.23z"/><path d="m524 770.18s-59.29-7.21-59.64 17.68 59.64-17.68 59.64-17.68z"/><path d="m524 770.18s19.05-12.43 22.86-6.64-22.86 6.64-22.86 6.64 7.13 15.34 0 13.92 0-13.92 0-13.92z"/><path d="m464.38 882.17 217.09-77.73"/></g><path d="m657.52 744.82-207.77 76.06 21.69 103.75 232.88-63.29" stroke="#141414"/><path d="m530.37 142.18 22.77 47.38" stroke="#7b3ad6"/><path d="m529.63 143.09s-27.09-12.92-25.79-1.42 25.79 1.42 25.79 1.42 19.8-12 13.76-19.43-13.76 19.43-13.76 19.43z" stroke="#7b3ad6"/><path d="m667.64 182.88s6.24 6.25 13.39 4.1" stroke="#141414"/></g></g><circle cx="694.77" cy="165.74" fill="#141414" r="1.96"/><circle cx="682.69" cy="155.47" fill="#141414" r="1.96"/><g fill="#fff"><path d="m287.91 200.19c4.6 0 4.6-7.14 0-7.14s-4.6 7.14 0 7.14z"/><path d="m320.76 337.3c4.59 0 4.6-7.14 0-7.14s-4.6 7.14 0 7.14z"/><path d="m440.73 125.93c4.59 0 4.6-7.14 0-7.14s-4.6 7.14 0 7.14z"/><path d="m626.4 105.93c4.59 0 4.6-7.14 0-7.14s-4.61 7.14 0 7.14z"/><path d="m793.5 297.31c4.59 0 4.6-7.14 0-7.14s-4.6 7.14 0 7.14z"/><path d="m742.08 387.29c4.6 0 4.6-7.14 0-7.14s-4.6 7.14 0 7.14z"/><path d="m843.49 437.28c4.59 0 4.6-7.14 0-7.14s-4.61 7.14 0 7.14z"/><path d="m230.78 505.83c4.6 0 4.6-7.14 0-7.14s-4.6 7.14 0 7.14z"/><path d="m189.36 395.86c4.6 0 4.61-7.14 0-7.14s-4.6 7.14 0 7.14z"/><path d="m357.89 220.19c4.6 0 4.61-7.14 0-7.14s-4.6 7.14 0 7.14z"/><path d="m626.4 477.27c4.59 0 4.6-7.14 0-7.14s-4.61 7.14 0 7.14z"/><path d="m486.43 425.85c4.6 0 4.6-7.14 0-7.14s-4.6 7.14 0 7.14z"/><path d="m389.31 573c4.6 0 4.61-7.14 0-7.14s-4.6 7.14 0 7.14z"/><path d="m373.6 782.91c4.6 0 4.61-7.15 0-7.15s-4.6 7.15 0 7.15z"/><path d="m635 798.62c4.59 0 4.6-7.15 0-7.15s-4.61 7.15 0 7.15z"/><path d="m823.49 540.11c4.6 0 4.6-7.14 0-7.14s-4.6 7.14 0 7.14z"/><path d="m369.32 143.6c3.44 0 3.45-5.35 0-5.35s-3.45 5.35 0 5.35z"/><path d="m287.91 273.57c3.45 0 3.45-5.36 0-5.36s-3.45 5.36 0 5.36z"/><path d="m793.5 372.12c3.44 0 3.45-5.36 0-5.36s-3.45 5.36 0 5.36z"/><path d="m663.53 674.9c3.45 0 3.45-5.36 0-5.36s-3.45 5.36 0 5.36z"/><path d="m239.35 291.24a1.79 1.79 0 0 0 0-3.57 1.79 1.79 0 0 0 0 3.57z"/><path d="m342.18 287a1.79 1.79 0 0 0 0-3.57 1.79 1.79 0 0 0 0 3.57z"/><path d="m437.87 181.27a1.79 1.79 0 0 0 0-3.57 1.79 1.79 0 0 0 0 3.57z"/><path d="m836.34 344.09a1.79 1.79 0 0 0 0-3.57 1.79 1.79 0 0 0 0 3.57z"/><path d="m794.93 441.21a1.79 1.79 0 0 0 0-3.57 1.79 1.79 0 0 0 0 3.57z"/><path d="m266.49 411.21a1.79 1.79 0 0 0 0-3.57 1.79 1.79 0 0 0 0 3.57z"/><path d="m280.77 525.47a1.79 1.79 0 0 0 0-3.57 1.79 1.79 0 0 0 0 3.57z"/><path d="m172.23 524a1.79 1.79 0 0 0 0-3.57 1.79 1.79 0 0 0 0 3.57z"/><path d="m466.44 222.69a1.79 1.79 0 0 0 0-3.57 1.79 1.79 0 0 0 0 3.57z"/><path d="m619.26 149.85a1.79 1.79 0 0 0 0-3.57 1.79 1.79 0 0 0 0 3.57z"/><path d="m496.43 104.15a1.79 1.79 0 0 0 0-3.57 1.79 1.79 0 0 0 0 3.57z"/><path d="m277.91 151.28a1.79 1.79 0 0 0 0-3.57 1.79 1.79 0 0 0 0 3.57z"/><path d="m315.05 391.22a1.79 1.79 0 0 0 0-3.57 1.79 1.79 0 0 0 0 3.57z"/><path d="m515 468.34a1.79 1.79 0 0 0 0-3.57 1.79 1.79 0 0 0 0 3.57z"/><path d="m757.79 429.78a1.79 1.79 0 0 0 0-3.57 1.79 1.79 0 0 0 0 3.57z"/><path d="m846.34 488.34a1.79 1.79 0 0 0 0-3.57 1.79 1.79 0 0 0 0 3.57z"/><path d="m222.21 364.08a1.79 1.79 0 0 0 0-3.57 1.79 1.79 0 0 0 0 3.57z"/></g></svg>