<svg viewBox="0 0 1000 1000" xmlns="http://www.w3.org/2000/svg"><path d="m847.1 393.91 66.41-246.96-516.76-121.95-335.16 418.72 138.8 296.11 708.6-78.07z" fill="#c0d8fc"/><g fill="#5195c4"><path d="m112.54 552.42 41.31 88.13 46.54-100.26-59.07-177.09z"/><path d="m239.5 462.1 41.32 88.13 46.53-100.26-59.06-177.09z"/><path d="m400.71 411.56 57.18 82.65 46.54-100.26-43.35-204.33z"/><path d="m505.09 522.66 57.18 82.65 46.54-100.26-43.35-204.34z"/><path d="m697.16 441.45 57.18 82.65 46.54-100.26-56.63-204.34z"/></g><path d="m701.51 755.35 102.82-529.78 109.18 436.19z" fill="#65aeea"/><g fill="none" stroke="#fff" stroke-miterlimit="10" stroke-width="1.56"><path d="m804.33 225.57 3.68 702.24"/><path d="m788.54 306.93 16.37 29.32"/><path d="m770.04 396.84 35.43 47.61"/><path d="m747.11 515.87 59.09 66.76"/><path d="m724.02 642.28 82.98 93.75"/><path d="m829.9 328.98-25.03 38.12"/><path d="m850.33 411.56-44.66 70.43"/><path d="m879.95 531.32-73.53 93.34"/><path d="m807 736.03 98.4-101.81"/><path d="m804.64 284.88 10.08-17.3"/></g><path d="m412.4 755.35 102.81-529.78 109.19 436.19z" fill="#65aeea"/><g fill="none" stroke="#fff" stroke-miterlimit="10" stroke-width="1.56"><path d="m515.21 225.57 3.69 702.24"/><path d="m499.43 306.93 16.37 29.32"/><path d="m480.93 396.84 35.43 47.61"/><path d="m457.99 515.87 59.1 66.76"/><path d="m434.91 642.28 82.98 93.75"/><path d="m540.79 328.98-25.04 38.12"/><path d="m561.22 411.56-44.66 70.43"/><path d="m590.84 531.32-73.53 93.34"/><path d="m616.29 634.22-98.4 101.81"/><path d="m515.53 284.88 10.08-17.3"/></g><path d="m123.61 750.62 98.02-505.06 120.26 480.48z" fill="#65aeea"/><g fill="none" stroke="#fff" stroke-miterlimit="10" stroke-width="1.56"><path d="m221.63 245.56 3.68 702.25"/><path d="m205.84 326.92 16.37 29.33"/><path d="m187.34 416.83 35.43 47.61"/><path d="m164.41 535.86 59.09 66.77"/><path d="m141.32 662.28 82.98 93.75"/><path d="m247.2 348.97-25.03 38.12"/><path d="m267.63 431.56-44.66 70.43"/><path d="m297.25 551.31-73.53 93.35"/><path d="m322.7 654.21-98.4 101.82"/><path d="m221.94 304.88 10.08-17.3"/></g><path d="m224.89 741.08 129.04-578.67 154.11 542.27z" fill="#8ac5ff"/><g fill="none" stroke="#fff" stroke-miterlimit="10" stroke-width="1.56"><path d="m353.93 162.41 4.63 767.03"/><path d="m334.12 251.28 20.54 32.03"/><path d="m310.9 349.48 44.47 52.01"/><path d="m282.12 479.5 74.16 72.92"/><path d="m253.14 617.57 104.15 102.4"/><path d="m386.03 275.36-31.42 41.64"/><path d="m411.67 365.56-56.05 76.93"/><path d="m448.84 496.37-92.28 101.96"/><path d="m480.79 608.76-123.5 111.21"/><path d="m354.32 227.2 12.66-18.89"/></g><path d="m520.3 716.38 129.04-654.52 154.11 613.35z" fill="#8ac5ff"/><g fill="none" stroke="#fff" stroke-miterlimit="10" stroke-width="1.56"><path d="m649.34 61.86 4.62 867.58"/><path d="m629.52 162.37 20.55 36.23"/><path d="m606.31 273.45 44.47 58.82"/><path d="m577.52 420.51 74.17 82.48"/><path d="m548.55 576.69 104.15 115.82"/><path d="m681.44 189.62-31.42 47.09"/><path d="m707.07 291.64-56.04 87.02"/><path d="m744.25 439.59-92.28 115.33"/><path d="m776.19 566.72-123.49 125.79"/><path d="m649.73 135.14 12.65-21.37"/></g><path d="m500.08 308.56 3.01-11.93h34.76l4.15-16.14-21.53-5.39 12.45-69.53-21.27-3.89 4.34-33.46 6.45 1.29-1.84 25.43 12.84 1.55 7.27-38.39 7.52 2.59-18.42 107.92 14.53 3.37 15.56-77.82 7.52 2.08-5.7 51.36 9.08 2.08 19.45-82.76 5.71 1.82-16.86 92.09-18.16-2.85-8.3 55.77-43.11-1.04z" fill="#995f37"/><g fill="none" stroke="#141414" stroke-miterlimit="10" stroke-width="1.56"><path d="m561.72 247.6 9.08 2.08 19.45-82.76"/><path d="m529.81 268.61 14.53 3.37 15.56-77.82"/><path d="m520.6 194.94 12.84 1.55 7.27-38.39"/><path d="m552.64 313.75-43.11-1.04-9.45-4.15 3.01-11.93h34.76l4.15-16.14-21.53-5.39 12.45-69.53-21.27-3.89 4.34-33.46"/><path d="m579.1 260.83-18.16-2.85"/><path d="m420.43 275.82 21.53-5.39"/></g><path d="m463.23 304.93-3.89-12.97h-34.76l-4.15-16.14 21.53-5.39-12.45-69.53 21.27-3.89-4.34-33.46-6.45 1.3 1.84 25.42-12.84 1.55-7.27-38.39-7.52 2.6 18.42 107.91-14.53 3.37-15.56-77.82-7.53 2.08 5.71 51.36-9.08 2.07-19.45-82.75-5.71 1.82 16.86 92.09 18.16-2.85 8.3 55.77 43.11-1.04z" fill="#995f37"/><path d="m429.51 200.9 21.27-3.89" fill="none" stroke="#141414" stroke-miterlimit="10" stroke-width="1.56"/><path d="m123.61 634.6 53.16-11.94 23.62 37.34 52.76 24.41 52.07-35.01 27.92 19.37 12.77 23.74h31.13l23.67 34.09-319.41 61.62" fill="#fff"/><g stroke="#141414" stroke-miterlimit="10" stroke-width="1.56"><g fill="none"><path d="m366.47 164.07 16.86 92.09 18.16-2.85 8.3 55.77 43.11-1.04 10.33-3.11-3.89-12.97h-34.76"/><path d="m395 191.57 5.71 51.36-9.08 2.07"/><path d="m414.2 156.03 18.42 107.91-14.53 3.37"/><path d="m439.99 164.85 1.84 25.42-12.84 1.55"/></g><g fill="#141414"><path d="m316.28 434-61.73 2.28c12.45 57.59-35.24 141.81-35.24 141.81l15.48 157.91s10.46-63.52 19.84-124.83c74.71-61.17 61.65-177.17 61.65-177.17"/><path d="m377.04 561.49 26.03 156.01 22.22-171.57z"/></g></g><path d="m497.88 295.84s2.12-18.93 9.12-22.84c1.36 12.06 3.77 51.78 3.77 51.78" fill="#f9a23a"/><path d="m497.88 295.84s2.12-18.93 9.12-22.84" fill="none" stroke="#141414" stroke-miterlimit="10" stroke-width="1.56"/><path d="m465 296.3s.48-19-5.93-23.86c-3 11.77-10.83 50.78-10.83 50.78" fill="#f9a23a"/><path d="m459.11 272.44c-3 11.77-10.83 50.78-10.83 50.78" fill="none" stroke="#141414" stroke-miterlimit="10" stroke-width="1.56"/><path d="m770.31 912.74 143.2-231.4-4.52-19.58-708.6 78.07 110.24 235.17z" fill="#d4e4fc"/><path d="m487.55 294.84 21.27 178.3-23.48 48.86-19.68 188.6-22.21-162.08s-89.24 35.28-143.72 27.48c-7.26-72.64-19.24-139.74-19.24-139.74l144.28-9.17 30.09-135.39z" fill="#f9a23a"/><path d="m453.31 326.46v48.25l61.22 3.12-5.64-80-21.34-2.99" fill="#f9a23a"/><g stroke="#141414" stroke-miterlimit="10" stroke-width="1.56"><path d="m453.31 326.46v48.25l61.22 3.12" fill="none"/><g fill="#141414"><path d="m530.22 693.3 13.26-15.85 53.8-14.1s7.89-53.55 31.63-82.13c16.44 57.78 17.59 100.72 17.59 100.72l-114 21z"/><path d="m843.49 646.34 19.41-23.68 23.56 18.73-36.62 18.61z"/></g></g><path d="m338.64 464.47s24.36 91.83-50.32 153.06c1.55 54-1 109.07-1 109.07l-42.07-148.51s47.69-84.22 35.24-141.81" fill="#f9a23a"/><g stroke="#141414" stroke-miterlimit="10" stroke-width="1.56"><path d="m287.31 726.6-42.06-148.51s47.69-84.22 35.24-141.81" fill="none"/><path d="m338.64 464.47s24.36 91.83-50.32 153.06" fill="none"/><path d="m266.01 446.83-39.43 39.43-14.53-30.09 42.5-19.9z" fill="#141414"/></g><path d="m918.7 550.23-38.75 48.1-57.76-16.89-43.29 36.09-61.64 5.13-25.9 63.42 247.05-24.32" fill="#fff"/><path d="m434.11 483.54 9.34 64.98" fill="#e59c3c" stroke="#141414" stroke-miterlimit="10" stroke-width="1.56"/><path d="m773.92 325.88-31.53 62.99-17.03-7.15 24.39-54.17 13.57 1.45 11.81-21.36-6.75-5.38-9.38 17.7-6.53-.43 7.91-20.26-10.13-3.95-24.15 60.22-18.54-6.37 18.32-53.47-9.62-3.38-19.48 62.7 25.5 10.05-23.83 59.44-9.8-.66-4.41 8.74 22.48 1.49 14.03-40.64 25.6 9.91 32.55-70.08z" fill="#995f37"/><g fill="none" stroke="#141414" stroke-miterlimit="10" stroke-width="1.56"><path d="m720.75 393.45 25.6 9.9"/><path d="m716.26 292.32-19.48 62.7 25.5 10.05-23.83 59.44-9.8-.66-4.41 8.74 22.48 1.49"/><path d="m750.25 295.32-24.15 60.22-18.54-6.37"/><path d="m768.38 302.26-9.38 17.7-6.53-.43"/><path d="m773.92 325.88-31.53 62.99-17.03-7.15 24.39-54.17 13.57 1.45"/></g><path d="m572.67 304 19.29 67.75 18.06-3.86-13.9-57.75-13.61-1.1-7.64-23.19 7.63-4.02 5.93 19.13 6.5.79-4-21.37 10.68-2.01 12.54 63.66 19.4-2.81-8.07-55.95 10.08-1.53 7.5 65.22-26.92 5.14 12.37 62.83 9.75 1.18 2.71 9.4-22.36-2.71-6.24-42.53-26.99 4.98-18.97-74.91z" fill="#995f37"/><g fill="none" stroke="#141414" stroke-miterlimit="10" stroke-width="1.56"><path d="m614.15 342.03 19.4-2.81-8.07-55.95"/><path d="m588.43 300.96 6.5.79-4-21.37"/><path d="m591.96 371.75 18.06-3.86-13.9-57.75-13.61-1.1-7.64-23.19"/><path d="m625.29 414.86 12.97 1.25 2.71 9.4-22.36-2.71-6.24-42.53-26.99 4.98-18.97-74.91"/><path d="m643.06 346.96-26.92 5.14"/></g><path d="m677.79 444.33-8.42 126.58s152.63-31.18 186.26 96.23c-177 20.94-276.74 31.13-276.74 31.13l62-262.63z" fill="#f9a23a"/><path d="m756.21 572.59c-21.71-5-42.75-5.52-58.69-4.77l.59 28.86 49-7.12z" fill="#ffd07d"/><path d="m669.37 570.91s152.63-31.18 186.26 96.23c-177.06 22.31-276.74 31.13-276.74 31.13l62-262.63" fill="none" stroke="#141414" stroke-miterlimit="10" stroke-width="1.56"/><path d="m636.81 415.09-20.89 79.94 69.89 4.65 5.07-76.32z" fill="#f9a23a"/><path d="m336.63 432.71 20.66 42.66 55.11-3.64 2.74-44z" fill="#ffd07d"/><g stroke="#141414" stroke-miterlimit="10" stroke-width="1.56"><path d="m636.81 415.09-20.89 79.94 69.89 4.65" fill="none"/><g fill="#f9a23a"><path d="m768.2 652.63 105.18 5.55 2.07 7.15-168.82 19.08s9.71-49.54 76.72-87.73"/><path d="m639.08 593.85s54.39 32.82 52.28 92.23l-172.29 18.86 11.15-11.64 99.21-21.3"/><path d="m599.23 634s15.57 20 18.07 40.58"/></g><path d="m698.45 424.51 6.12.14" fill="none"/><path d="m200.39 739.83 713.12-78.07" fill="none"/><path d="m642.1 465.05.96 15.96 11.62 1.16 7.2-15.11z" fill="#141414"/><path d="m504.18 341.7v14.59h-6.93l-5.67-15.95z" fill="#141414"/><g fill="none"><path d="m321.55 577.07c53.57-1.54 121.9-28.55 121.9-28.55l22.21 162.08"/><path d="m454.86 291.7 53.96 5.19-53.96-5.19-30.09 135.42-144.28 9.15"/><path d="m501.33 367s-6.91 2.33-12.26-1.56"/><path d="m658.24 489.76s7.4 0 9.93-6.22"/></g></g><g fill="#141414"><circle cx="479.38" cy="318.29" r="2.98"/><circle cx="509.34" cy="318.29" r="2.98"/><circle cx="645.08" cy="440.62" r="2.98"/><circle cx="674.68" cy="445.28" r="2.98"/></g><path d="m762.01 806.92-33.94-14.53-34.41 19.72-19.5-32.19-46.39 16.09 5.19 42.04-37.23 12.45-8.39 32.17" fill="none" stroke="#fff" stroke-miterlimit="10" stroke-width="1.56"/><path d="m913.51 731.15-48.54-13.65-21.79 23.58-42.3 9.54-9.84 29.3h114.36" fill="#fff"/><g stroke="#fff" stroke-miterlimit="10" stroke-width="1.56"><path d="m224.63 818.38 48.87-20.82 48.05 26.98 34.73-20.75 62.76 47.73h29.8" fill="none"/><path d="m452.57 814.16 34.98-34.24 27.66 8.3 15.01 18.68z" fill="#fff"/><path d="m260.48 906.51 66.87-8.3 21.67 17.64 76.27-13.49 27.28 25.45-172.08 19.99" fill="#fff"/><path d="m913.51 681.34-227.7 36.16-27.57-12.06-33.84 3.71-3.51 17.45" fill="none"/></g><g fill="#ffd07d"><path d="m671.69 585.27-6.18 11.41 12.15 6.32 8.15-11.93z"/><path d="m701.51 608.76-3.4 6.69 28.75-2.07v-10.38z"/><path d="m765.51 585.27-1.94 8.58 9.85-4.29v-4.29z"/><path d="m383.64 482.17 24.01-2.67-4.95 16.87h-14.25z"/><path d="m425.29 440.64-3.63 16.74h16.1l-4.23-14.89z"/><path d="m333.14 442.49h-11.59l11.59 10.52 5.12-.7z"/><path d="m377.04 486.26v7.95l-6.36-2.11v-5.84z"/></g></svg>