<svg viewBox="0 0 1000 1000" xmlns="http://www.w3.org/2000/svg" xmlns:xlink="http://www.w3.org/1999/xlink"><clipPath id="a"><path d="m679.33 474.08-79.17-8.63-109.5-184.27-15.42 52.69 49.69 143.82 66.48 82.67-21.16 167.3 91.8 44.61 116.47-54.28z"/></clipPath><clipPath id="b"><path d="m296.62 560.69 249.63-201.58 15.42 28.04-115.91 142.15 113.59 291.85-228.17-5.06 5.52-206.2z"/></clipPath><clipPath id="c"><path d="m682.99 537.22 10.55 63.82-95.57 88.31 47.55 40.94 119.86-110.56-50.51-142.04-39.87-4.09"/></clipPath><clipPath id="d"><path d="m296.62 560.69 4.26 186.32 144.9-99.01-16.64-46.96-80.04 38.05-1.28-47.25"/></clipPath><path d="m507.87 25 350.35 227-93.17 192.89 93.17 322.79-337.23 207.32-379.21-139.09 101.04-379.21-77.42-137.78z" fill="#f9d6bb"/><path d="m671.24 485.57 24.46-338.87-325.37-3.66-43.91 37.69 27.27 358.64 168.29 79.56z" fill="#f9b58f"/><path d="m651.92 523.62-277.81 12.72-25.01-361.75h323.32z" fill="#113c68" stroke="#fff" stroke-linecap="round" stroke-miterlimit="10" stroke-width="1.31"/><path d="m520.34 342.52-16.9-7.64 23.38-7.2 37.24 8.49 9.69-11.18 13.25 8.2 10.97-8.2 14.38 1.97 41.61 10.01 8.31 10.38-137.01-.96z" fill="#fff"/><path d="m587 175.16-18.02 389.63" fill="#113c68" stroke="#fff" stroke-linecap="round" stroke-miterlimit="10" stroke-width="1.31"/><path d="m416.52 175.16 18.02 389.63" fill="#113c68" stroke="#fff" stroke-linecap="round" stroke-miterlimit="10" stroke-width="1.31"/><g clip-path="url(#a)"><path d="m679.33 474.08-79.17-8.63-109.5-184.27-15.42 52.69 49.69 143.82 66.48 82.67-21.16 167.3 91.8 44.61 116.47-54.28z" fill="#72d8dd"/><g fill="none" stroke="#b8ffff" stroke-linecap="round" stroke-miterlimit="10" stroke-width="2.62"><path d="m473.06 331h324.8"/><path d="m473.06 350.51h324.8"/><path d="m473.06 370.03h324.8"/><path d="m473.06 389.54h324.8"/><path d="m473.06 409.05h324.8"/><path d="m473.06 428.57h324.8"/><path d="m473.06 448.08h324.8"/><path d="m473.06 467.59h324.8"/><path d="m473.06 487.11h324.8"/><path d="m473.06 506.62h324.8"/><path d="m473.06 526.13h324.8"/><path d="m473.06 545.65h324.8"/><path d="m473.06 565.16h324.8"/><path d="m473.06 584.67h324.8"/><path d="m473.06 604.19h324.8"/><path d="m473.06 623.7h324.8"/><path d="m473.06 643.21h324.8"/><path d="m473.06 662.73h324.8"/><path d="m473.06 682.24h324.8"/><path d="m473.06 701.75h324.8"/><path d="m473.06 721.27h324.8"/><path d="m473.06 740.78h324.8"/></g></g><path d="m679.33 474.08-79.17-8.63-109.5-184.27-15.42 52.69 49.69 143.82 66.48 82.67-21.16 167.3 91.8 44.61 116.47-54.28z" fill="none" stroke="#141414" stroke-linecap="round" stroke-miterlimit="10" stroke-width="1.31"/><path d="m672.42 473.33-18.24 94.9h-63.76l9.74-102.78 22.53-9.41h26.9z" fill="#ffc73b"/><path d="m600.16 465.45 22.53-9.41h26.9l22.83 17.29-18.24 94.9h-63.76" fill="none" stroke="#141414" stroke-linecap="round" stroke-miterlimit="10" stroke-width="1.31"/><circle cx="505.08" cy="195.25" fill="#fff" r="54.6"/><circle cx="505.08" cy="195.25" fill="none" r="58.98" stroke="#fff" stroke-linecap="round" stroke-miterlimit="10" stroke-width="1.31"/><circle cx="505.08" cy="195.25" fill="none" r="68.66" stroke="#fff" stroke-linecap="round" stroke-miterlimit="10" stroke-width="1.31"/><path d="m710.45 714.76 32.08-49.21 22.85 37.27z" fill="#ffc73b"/><path d="m742.53 665.55 22.85 37.27" fill="none" stroke="#141414" stroke-linecap="round" stroke-miterlimit="10" stroke-width="1.31"/><path d="m716 713.86-57.83-10.28 11.55 42.17z" fill="#ffc73b"/><path d="m716 713.85-57.83-10.27" fill="none" stroke="#141414" stroke-linecap="round" stroke-miterlimit="10" stroke-width="1.31"/><path d="m704.55 704.92h11.81v14.43h-11.81z" fill="#ffc73b" transform="matrix(.92534212 -.37913318 .37913318 .92534212 -216.95 322.52)"/><path d="m702.25 707.69 10.93-4.47 5.47 13.35" fill="none" stroke="#141414" stroke-linecap="round" stroke-miterlimit="10" stroke-width="1.31"/><path d="m302.52 400.91 11.81 57.09s-43.33 18.69-18.33 68.72c-19.68 6.08-45.93 20.41-40.68 57.2s152.21-2.57 152.21-2.57l-68.93-168.61z" fill="#ce346f"/><g fill="none" stroke="#141414" stroke-linecap="round" stroke-miterlimit="10" stroke-width="1.31"><path d="m255.28 583.92c5.25 36.8 152.21-2.57 152.21-2.57"/><path d="m322.2 455.06s-57.4 17.06-22.3 81.28"/><path d="m660.08 482.07-2.9 70.57-38.43 8.05-9.21-23.2-1.94-55.42"/></g><path d="m778.52 685.01-127.62 55.77 6.56 112.35h61.76l127.74-78.53z" fill="#fcaced"/><path d="m846.96 774.6-68.44-89.59-127.62 55.77" fill="none" stroke="#141414" stroke-linecap="round" stroke-miterlimit="10" stroke-width="1.31"/><g clip-path="url(#b)"><path d="m296.62 560.69 249.63-201.58 15.42 28.04-115.91 142.15 113.59 291.85-228.17-5.06 5.52-206.2z" fill="#ffc73b"/><g fill="none" stroke="#f9e5bb" stroke-linecap="round" stroke-miterlimit="10" stroke-width="2.62"><path d="m253.6 401.9 332.65 28.08"/><path d="m250.39 419.75 332.66 28.07"/><path d="m247.19 437.59 332.65 28.08"/><path d="m243.98 455.44 332.65 28.07"/><path d="m240.77 473.28 332.66 28.08"/><path d="m237.56 491.13 332.66 28.07"/><path d="m234.36 508.97 332.65 28.08"/><path d="m231.15 526.82 332.65 28.07"/><path d="m227.94 544.66 332.66 28.08"/><path d="m224.73 562.51 332.66 28.07"/><path d="m221.53 580.35 332.65 28.08"/><path d="m218.32 598.2 332.65 28.07"/><path d="m215.11 616.04 332.66 28.08"/><path d="m211.91 633.89 332.65 28.07"/><path d="m208.7 651.73 332.65 28.08"/><path d="m205.49 669.58 332.66 28.07"/><path d="m202.28 687.42 332.66 28.08"/><path d="m199.08 705.27 332.65 28.07"/><path d="m195.87 723.11 332.65 28.08"/><path d="m192.66 740.96 332.66 28.07"/><path d="m189.45 758.8 332.66 28.08"/><path d="m186.25 776.65 332.65 28.07"/></g></g><path d="m296.62 560.69 249.63-201.58 15.42 28.04-115.91 142.15 113.59 291.85-228.17-5.06 5.52-206.2z" fill="none" stroke="#141414" stroke-linecap="round" stroke-miterlimit="10" stroke-width="1.31"/><path d="m477.88 241.11 32.29-94.41 18.37 97.1-62.33-65.61 77.75-.65z" fill="#ffc73b"/><g stroke="#141414" stroke-linecap="round" stroke-miterlimit="10" stroke-width="1.31"><g fill="none"><path d="m477.88 241.11 14.6-42.71"/><path d="m543.96 177.54-26.59 25.58"/><path d="m466.21 178.19 37.23-.44"/><path d="m528.54 243.8-26.06-27.71"/><path d="m510.17 146.7 7.01 37.05"/></g><path d="m638.1 693.76-40.13-12.8-31.05 10.94-43.74 15.75-30.97-6.49h-31.14l-60.62 2.22-39.36 87.61-18.99 52.36 14.88 9.62 141.23 61.67 181.55-107.6-22.3-64.73z" fill="#38a583"/></g><path d="m465.01 238.01 19.24-13.13-3.93-8.79-21 13.17-3.93-8.31 20.99-10.5-1.75-8.75-22.31 10.94-1.75-6.13 21.44-10.93-3.5-10.06-21 11.81-2.62-6.56 21.43-10.94-2.62-5.24-38.06 15.74 49.6 143.54 15.42-52.69z" fill="#ff9f9f"/><g fill="none" stroke="#141414" stroke-linecap="round" stroke-miterlimit="10" stroke-width="1.31"><path d="m425.64 190.33 49.6 143.54 15.42-52.69"/><path d="m447.51 197.33-2.62-6.56 21.43-10.94-2.62-5.24"/><path d="m452.32 212.64-1.75-6.13 21.44-10.93-3.5-10.06"/><path d="m459.32 229.26-3.93-8.31 20.99-10.5-1.75-8.75"/><path d="m465.01 238.01 19.24-13.13-3.93-8.79"/></g><path d="m430.46 737.5 7.87 72.17 53.8-72.17 30.83 78.73 32.81-75.45 59.04 62.98 3.28-76.1 61.24 59.7-64.52-153.96-29.96-32.36-26.41 69.84-34.66-57.51-33.46 59.75-31-48.6-40.27 14.41-13.53 23.34-56.42 150.02 23.66-21.3z" fill="#2d8e72"/><g fill="none" stroke="#141414" stroke-linecap="round" stroke-miterlimit="10" stroke-width="1.31"><path d="m618.09 727.66 61.24 59.7"/><path d="m555.77 740.78 59.04 62.98"/><path d="m492.13 737.5 30.83 78.73"/><path d="m430.46 737.5 7.87 72.17"/><path d="m614.81 633.4-29.96-32.36-26.41 69.84-34.66-57.51-33.46 59.75-31-48.6-40.27 14.41-13.53 23.34-56.42 150.02"/></g><path d="m380.16 483.82 16.18-7.88 30.77 24.06-17.65 52.49-43.74 6.99-26.68-44.61 12.01-18.85z" fill="#72d8dd"/><path d="m427.11 500-17.65 52.49-43.74 6.99-26.68-44.61 12.01-18.85 29.11-12.2 16.18-7.88" fill="none" stroke="#141414" stroke-linecap="round" stroke-miterlimit="10" stroke-width="1.31"/><path d="m376.66 714.76 55.53-190.99 22.24-63.46 23.92 86.6 30.57-42.32 27.16 36.41 28.87-67.24 27.51 57.07 65 166.54-70.46-85.51-27.62 62-37.95-45.27-31.93 63.31-35.07-43.9z" fill="#38a583"/><g fill="none" stroke="#141414" stroke-linecap="round" stroke-miterlimit="10" stroke-width="1.31"><path d="m376.66 714.76 55.53-190.99"/><path d="m489.5 691.9-35.08-43.9"/><path d="m559.38 673.86-37.95-45.27"/><path d="m657.46 697.37-70.46-85.51"/></g><path d="m478.35 564.95 30.57-60.36 27.16 60.36 27.56-60.36 51.17 46.58-53.27-138.19-13.13-34.61-19.54-2.37-23.79-11.15-14.92 11.15h-23.62l-59.05 185.67 53.14-53.14z" fill="#2d8e72"/><g fill="none" stroke="#141414" stroke-linecap="round" stroke-miterlimit="10" stroke-width="1.31"><path d="m563.64 504.59 51.17 46.58"/><path d="m508.92 504.59 27.16 60.36"/><path d="m460.64 508.53 17.71 56.42"/><path d="m466.54 376-59.05 185.67"/></g><path d="m672.42 473.33-3.92 142.14-37.08 3.46 18.17-162.89z" fill="#ffc73b"/><path d="m633.84 597.22 15.75-141.18 22.83 17.29-3.92 142.14" fill="none" stroke="#141414" stroke-linecap="round" stroke-miterlimit="10" stroke-width="1.31"/><path d="m360.67 342.01 301.6 5.34" fill="#113c68" stroke="#fff" stroke-linecap="round" stroke-miterlimit="10" stroke-width="1.31"/><path d="m636.68 376-38.71 55.77 21 12.68-11.37 37.62 19.24 57.3 52.49-139.09-27.12-27.56z" fill="#ff9f9f"/><path d="m626.84 539.37 52.49-139.09-27.12-27.56" fill="none" stroke="#141414" stroke-linecap="round" stroke-miterlimit="10" stroke-width="1.31"/><path d="m296.1 772.65 43.51-15.18-1.05 29.49z" fill="#fcaced"/><path d="m339.61 757.47-1.05 29.49" fill="none" stroke="#141414" stroke-linecap="round" stroke-miterlimit="10" stroke-width="1.31"/><path d="m305.26 772.89-37.14-28.39-7.64 30.36z" fill="#fcaced"/><path d="m305.26 772.89-37.14-28.39" fill="none" stroke="#141414" stroke-linecap="round" stroke-miterlimit="10" stroke-width="1.31"/><path d="m308.67 776.96-13.19-1.29 1.41-14.85 13.19 1.29z" fill="#fcaced"/><g stroke="#141414" stroke-linecap="round" stroke-miterlimit="10" stroke-width="1.31"><path d="m296.89 760.82 13.19 1.29-1.41 14.85" fill="none"/><path d="m597.97 431.77 21 12.68" fill="none"/><circle cx="740.13" cy="364.26" fill="#ba2053" r="8.7"/></g><path d="m370.63 342.19-2.54-7.31 9.22-1.01 2.14-11.47h17.4l3.43 9.89 7.21-4.61h24.93l5.91 7.2 12.15-1.01 21.28 10.11z" fill="#fff"/><path d="m371.92 855.16-13.06-77.39-110.36-11.4-29.39 97.9 102.38 37.55z" fill="#8ff9f9"/><path d="m371.92 855.16-13.06-77.39-110.36-11.4-16.16 53.81-18.1 60.3 4.87-16.21" fill="none" stroke="#141414" stroke-linecap="round" stroke-miterlimit="10" stroke-width="1.31"/><path d="m653.09 344.29 4.42-18.09-33.6-11.17-9.1 50.26 45.71 35.42-10.5 40.24 15.75-20.99-4.97 29.41 29.13-11.7-5.57-17.71z" fill="#d34e2f"/><g fill="none" stroke="#141414" stroke-linecap="round" stroke-miterlimit="10" stroke-width="1.31"><path d="m660.8 449.37 29.13-11.7-5.57-17.71-31.27-75.67 4.42-18.09"/><path d="m650.02 440.95 15.75-20.99"/><path d="m614.81 365.29 50.96 39.49"/></g><path d="m669.27 349.76s32.06-17.43 59.7 0c36.41 23-26.9 64-39 64.95s-20.7-64.95-20.7-64.95z" fill="#ba2053"/><path d="m729 349.76c36.41 23-26.9 64-39 64.95s-20.66-64.95-20.66-64.95" fill="none" stroke="#141414" stroke-linecap="round" stroke-miterlimit="10" stroke-width="1.31"/><path d="m651.92 470.48 11.11 14.1-4.26 64.3" fill="none" stroke="#141414" stroke-linecap="round" stroke-miterlimit="10" stroke-width="1.31"/><path d="m686.32 426.19 21.33-7.87-30.84-78.4-23.72 4.37z" fill="#ce346f"/><path d="m653.09 344.29 33.23 81.9 21.33-7.87-30.84-78.4" fill="none" stroke="#141414" stroke-linecap="round" stroke-miterlimit="10" stroke-width="1.31"/><path d="m548.97 760.6 18.11-4.52 5.14 43.45 9.13-1.23-3.93-25.7 5.5-2.86 6.96 30.41 5.91-1.31-5.91-31.82 5.25-4.26 7.55 36.08 9.51-3.93-9.51-32.81 3.93-2.95 11.48 33.46 6.89-2.62-15.2-56.43 21.38-15.63-24.19-20.84-48.25 53.53z" fill="#ff9f9f"/><g fill="none" stroke="#141414" stroke-linecap="round" stroke-miterlimit="10" stroke-width="1.31"><path d="m618.09 792.61 6.89-2.62-15.2-56.43 21.38-15.63-24.19-20.84"/><path d="m602.68 798.84 9.51-3.93-9.51-32.81 3.93-2.95"/><path d="m589.88 800.15 5.91-1.31-5.91-31.82 5.25-4.26"/><path d="m572.22 799.53 9.13-1.23-3.93-25.7 5.5-2.86"/><path d="m548.97 760.6 18.11-4.52"/></g><path d="m370.63 353.69 46.7 36.09s1.2 42.64-23.35 50.52-50.89-51.83-50.89-51.83z" fill="#ba2053"/><path d="m417.33 389.78s1.2 42.64-23.35 50.52-50.89-51.83-50.89-51.83" fill="none" stroke="#141414" stroke-linecap="round" stroke-miterlimit="10" stroke-width="1.31"/><path d="m618.09 727.66 27.43 2.63 11.94-32.92-45.05-12.36-14.44 4.34-.52 18.3z" fill="#72d8dd" stroke="#141414" stroke-linecap="round" stroke-miterlimit="10" stroke-width="1.31"/><path d="m554.34 353.69 16.54-4.81 13.75 42.54-22.96 16.73z" fill="#ffc73b"/><path d="m584.63 391.42-22.96 16.73-7.33-54.46" fill="none" stroke="#141414" stroke-linecap="round" stroke-miterlimit="10" stroke-width="1.31"/><path d="m359.6 491.69-24.2 12.25-10.41 33.83 55.17 75.95 29.23-38.49-60.29-61.23" fill="#72d8dd"/><path d="m409.39 575.23-60.29-61.23" fill="none" stroke="#141414" stroke-linecap="round" stroke-miterlimit="10" stroke-width="1.31"/><path d="m359.6 491.69-24.2 12.25-10.41 33.83 55.17 75.95" fill="none" stroke="#141414" stroke-linecap="round" stroke-miterlimit="10" stroke-width="1.31"/><g clip-path="url(#c)"><path d="m682.99 537.22 10.55 63.82-95.57 88.31 47.55 40.94 119.86-110.56-50.51-142.04-39.87-4.09" fill="#72d8dd"/><g fill="none" stroke="#b8ffff" stroke-linecap="round" stroke-miterlimit="10" stroke-width="2.62"><path d="m473.06 331h324.8"/><path d="m473.06 350.51h324.8"/><path d="m473.06 370.03h324.8"/><path d="m473.06 389.54h324.8"/><path d="m473.06 409.05h324.8"/><path d="m473.06 428.57h324.8"/><path d="m473.06 448.08h324.8"/><path d="m473.06 467.59h324.8"/><path d="m473.06 487.11h324.8"/><path d="m473.06 506.62h324.8"/><path d="m473.06 526.13h324.8"/><path d="m473.06 545.65h324.8"/><path d="m473.06 565.16h324.8"/><path d="m473.06 584.67h324.8"/><path d="m473.06 604.19h324.8"/><path d="m473.06 623.7h324.8"/><path d="m473.06 643.21h324.8"/><path d="m473.06 662.73h324.8"/><path d="m473.06 682.24h324.8"/><path d="m473.06 701.75h324.8"/><path d="m473.06 721.27h324.8"/><path d="m473.06 740.78h324.8"/></g></g><path d="m682.99 537.22 10.55 63.82-95.57 88.31 47.55 40.94 119.86-110.56-50.51-142.04-39.87-4.09" fill="none" stroke="#141414" stroke-linecap="round" stroke-miterlimit="10" stroke-width="1.31"/><path d="m535.77 307.05-11.5-28.15-4.59 10.17-15.67 38.61-11.51-36.15-11.91-4.3-42.26 137.32 51.83-48.55 15.09 53.14 23.62-53.14 53.36 57.95z" fill="#38a583"/><g fill="none" stroke="#141414" stroke-linecap="round" stroke-miterlimit="10" stroke-width="1.31"><path d="m528.87 376 53.36 57.95"/><path d="m490.16 376 15.09 53.14"/><path d="m492.5 291.53-11.91-4.3-42.26 137.32"/></g><path d="m540.68 306.02-38.2-89.93-36.27 91.66 26.29-16.22 11.51 36.15 15.67-38.61z" fill="#2d8e72"/><path d="m519.68 289.07 21 16.95" fill="none" stroke="#141414" stroke-linecap="round" stroke-miterlimit="10" stroke-width="1.31"/><path d="m502.48 216.09-36.27 91.66 26.29-16.22 11.51 36.15" fill="none" stroke="#141414" stroke-linecap="round" stroke-miterlimit="10" stroke-width="1.31"/><path d="m375.35 400.93c-2-1.31 43.95 52.49 38.7 66.27s-25.58 15.09-25.58 15.09l26 41.33h-46.34l-41.33-93.82z" fill="#ff9f9f"/><path d="m414.47 523.62h-46.34l-41.33-93.82 48.55-28.87" fill="none" stroke="#141414" stroke-linecap="round" stroke-miterlimit="10" stroke-width="1.31"/><path d="m414.05 467.2c-5.24 13.77-25.58 15.09-25.58 15.09" fill="none" stroke="#141414" stroke-linecap="round" stroke-miterlimit="10" stroke-width="1.31"/><path d="m478.35 653.52 4.2-3.23-5.74-23.83 2.8-2.24 5.96 22.96 5.46-3.83-5.95-21.54 3.28-2.3 5.63 21.66 5.46-4.71-4.73-20.46 2.83-1.19 4.86 19.03 5.46-5.69-8.34-24.88 9.33-3.22-15.2-16.07-61.56 25.41 10.18 28.74 25.57-15.44z" fill="#ff9f9f"/><g stroke="#141414" stroke-linecap="round" stroke-miterlimit="10" stroke-width="1.31"><g fill="none"><path d="m499.53 603.27 9.33-3.22"/><path d="m494.72 616 2.83-1.19 4.86 19.03 5.46-5.69"/><path d="m485.08 621.81 3.28-2.3 5.63 21.66 5.46-4.71"/><path d="m476.81 626.46 2.8-2.24 5.96 22.96 5.46-3.83"/><path d="m493.66 583.98-61.56 25.41 10.18 28.74 25.57-15.44 10.5 30.83 4.2-3.23"/></g><path d="m444.93 604.8 9.5 25.99-8.65 17.21-23.03-25.15 6.39-21.81z" fill="#ffc73b"/><path d="m500.46 606.04-3.95-11.15" fill="none"/></g><path d="m347.79 484.91-4.59-46.58 21.65 32.15-6.56-44.62s47.65-29.52 12.34-72.17l-68.11 47.22" fill="#ce346f"/><path d="m352.82 429.14s55.77-30.18 17.81-75.45" fill="none" stroke="#141414" stroke-linecap="round" stroke-miterlimit="10" stroke-width="1.31"/><path d="m347.79 484.91-4.59-46.58 21.65 32.15" fill="none" stroke="#141414" stroke-linecap="round" stroke-miterlimit="10" stroke-width="1.31"/><path d="m559.43 345.29-37.45 20.38 2.46 5.9 21.81-12.46 1.48 4.75-18.86 12.14 1.8 7.38 19.85-10.66 1.97 5.09-20.51 10.49 1.48 5.25 22.14-9.68.82 3.61-21.48 10.83 2.62 6.23 36.19-16.51z" fill="#ff9f9f"/><path d="m534.94 398.31 2.62 6.23 36.19-16.51-14.32-42.74" fill="none" stroke="#141414" stroke-linecap="round" stroke-miterlimit="10" stroke-width="1.31"/><path d="m728.97 706.66 65.54 100.19-44.12 27.12-48.89-115.3z" fill="#ffc73b"/><g fill="none" stroke="#141414" stroke-linecap="round" stroke-miterlimit="10" stroke-width="1.31"><path d="m701.5 718.67 27.47-12.01 77.55 118.56"/><path d="m531.98 388.3 1.48 5.25 22.14-9.68.82 3.61"/><path d="m528.87 376 1.8 7.38 19.85-10.66 1.97 5.09"/><path d="m521.98 365.67 2.46 5.9 21.81-12.46 1.48 4.75"/></g><path d="m666.17 773.39 23.62-44.62 20.66 31.49z" fill="#72d8dd"/><path d="m689.79 728.77 20.66 31.49" fill="none" stroke="#141414" stroke-linecap="round" stroke-miterlimit="10" stroke-width="1.31"/><path d="m673.98 768.08-50.08-6.36 13.86 35.03z" fill="#72d8dd"/><path d="m673.98 768.08-50.08-6.36" fill="none" stroke="#141414" stroke-linecap="round" stroke-miterlimit="10" stroke-width="1.31"/><path d="m662.63 758.16h13.64v15.88h-13.64z" fill="#72d8dd" transform="matrix(.8660254 -.5 .5 .8660254 -293.36 437.36)"/><path d="m659.58 762.64 11.81-6.82 7.94 13.75" fill="none" stroke="#141414" stroke-linecap="round" stroke-miterlimit="10" stroke-width="1.31"/><path d="m530.28 827.95 51.34-26.12 3.67 36.71z" fill="#fcaced"/><path d="m581.62 801.83 3.67 36.71" fill="none" stroke="#141414" stroke-linecap="round" stroke-miterlimit="10" stroke-width="1.31"/><path d="m541.67 826.71-50.78-28.91-4.34 38.9z" fill="#fcaced"/><path d="m541.67 826.71-50.78-28.91" fill="none" stroke="#141414" stroke-linecap="round" stroke-miterlimit="10" stroke-width="1.31"/><path d="m546.59 831.18-16.56.63-.75-18.64 16.55-.63z" fill="#fcaced"/><path d="m529.28 813.17 16.55-.63.76 18.64" fill="none" stroke="#141414" stroke-linecap="round" stroke-miterlimit="10" stroke-width="1.31"/><path d="m396.77 790.37 37.47-5.75-5.28 23.7z" fill="#fff"/><path d="m434.24 784.62-5.28 23.7" fill="none" stroke="#141414" stroke-linecap="round" stroke-miterlimit="10" stroke-width="1.31"/><path d="m404.14 791.94-25.77-28.54-10.74 23.41z" fill="#fff"/><path d="m404.14 791.94-25.77-28.54" fill="none" stroke="#141414" stroke-linecap="round" stroke-miterlimit="10" stroke-width="1.31"/><path d="m406.29 795.74-10.47-3.02 3.37-11.8 10.47 3.02z" fill="#fff"/><path d="m399.19 780.92 10.47 3.02-3.37 11.8" fill="none" stroke="#141414" stroke-linecap="round" stroke-miterlimit="10" stroke-width="1.31"/><path d="m483.46 961.24 7.85-95.35-46.21-59.39-42.91 124.93z" fill="#141414"/><g clip-path="url(#d)"><path d="m296.62 560.69 4.26 186.32 144.9-99.01-16.64-46.96-80.04 38.05-1.28-47.25" fill="#ffc73b"/><g fill="none" stroke="#f9e5bb" stroke-linecap="round" stroke-miterlimit="10" stroke-width="2.62"><path d="m253.6 401.9 332.65 28.08"/><path d="m250.39 419.75 332.66 28.07"/><path d="m247.19 437.59 332.65 28.08"/><path d="m243.98 455.44 332.65 28.07"/><path d="m240.77 473.28 332.66 28.08"/><path d="m237.56 491.13 332.66 28.07"/><path d="m234.36 508.97 332.65 28.08"/><path d="m231.15 526.82 332.65 28.07"/><path d="m227.94 544.66 332.66 28.08"/><path d="m224.73 562.51 332.66 28.07"/><path d="m221.53 580.35 332.65 28.08"/><path d="m218.32 598.2 332.65 28.07"/><path d="m215.11 616.04 332.66 28.08"/><path d="m211.91 633.89 332.65 28.07"/><path d="m208.7 651.73 332.65 28.08"/><path d="m205.49 669.58 332.66 28.07"/><path d="m202.28 687.42 332.66 28.08"/><path d="m199.08 705.27 332.65 28.07"/><path d="m195.87 723.11 332.65 28.08"/><path d="m192.66 740.96 332.66 28.07"/><path d="m189.45 758.8 332.66 28.08"/><path d="m186.25 776.65 332.65 28.07"/></g></g><path d="m296.62 560.69 4.26 186.32 144.9-99.01-16.64-46.96-80.04 38.05-1.28-47.25" fill="none" stroke="#141414" stroke-linecap="round" stroke-miterlimit="10" stroke-width="1.31"/><path d="m445.1 806.5-86.24-28.73-60.11 115.71 117.25 43.01z" fill="#ff9f9f"/><path d="m416 936.49 29.1-129.99-86.24-28.73" fill="none" stroke="#141414" stroke-linecap="round" stroke-miterlimit="10" stroke-width="1.31"/><path d="m679.76 834.6-64.95-30.84-9.84 22.31 15.8 87.59 42.85-26.34z" fill="#141414"/><path d="m717.82 736.84-103.01 66.92 37.29 90.64 116.16-71.41z" fill="#7ec4fc"/><path d="m768.26 822.99-50.44-86.15-103.01 66.92" fill="none" stroke="#141414" stroke-linecap="round" stroke-miterlimit="10" stroke-width="1.31"/><path d="m620.77 913.66-15.8-87.59-134.49-4.92-25.61 125.93 76.12 27.92z" fill="#ffdc6c"/><g stroke="#141414" stroke-linecap="round" stroke-miterlimit="10" stroke-width="1.31"><path d="m620.77 913.66-15.8-87.59-134.49-4.92" fill="none"/><path d="m597.97 431.77 36.69 22.14" fill="#fff"/><path d="m396.85 480.69a50 50 0 0 1 -19.54 1.38" fill="#f9d6bb"/></g><path d="m615.47 197.88a1.64 1.64 0 0 0 0-3.28 1.64 1.64 0 0 0 0 3.28z" fill="#fff"/><circle cx="505.08" cy="351.06" fill="#fff" r="11.14"/><circle cx="462.04" cy="372.72" fill="#ffc73b" r="11.56"/><circle cx="535.53" cy="320.64" fill="#72d8dd" r="10.36"/><circle cx="505.86" cy="270.81" fill="#ff76ae" r="10.36"/><circle cx="512.48" cy="474.64" fill="#ff76ae" r="14.33"/><circle cx="452.44" cy="505.81" fill="#fff" r="14.12"/><circle cx="558.79" cy="437.67" fill="#ffc73b" r="13.77"/><circle cx="547.93" cy="596.77" fill="#72d8dd" r="16.07"/><circle cx="597.97" cy="550.11" fill="#fff" r="16.07"/><circle cx="614.04" cy="651.97" fill="#ff76ae" r="16.07"/><circle cx="518.37" cy="717.23" fill="#ffc73b" r="16.07"/><circle cx="416.52" cy="739.96" fill="#72d8dd" r="16.07"/><g stroke="#141414" stroke-linecap="round" stroke-miterlimit="10" stroke-width="1.31"><g fill="none"><path d="m427.11 500s91.89-31 134.43-87"/><path d="m458.15 360.13s48.85-10.13 75.51-58.27"/><path d="m592.46 530.83s-22.26 41.34-83.6 69.22"/><path d="m625.5 615.47s-76.5 114.82-246.05 108.91"/><path d="m482.3 267.1s21.6-.85 33.21-20.33"/><path d="m634.66 398.97-21.38 19.04 10.69 5.18"/></g><ellipse cx="641.31" cy="404.98" fill="#141414" rx="4.16" ry="1.59" transform="matrix(.5 -.8660254 .8660254 .5 -30.07 757.88)"/><ellipse cx="625.77" cy="397.7" fill="#141414" rx="4.16" ry="1.59" transform="matrix(.5 -.8660254 .8660254 .5 -31.54 740.79)"/><path d="m380.96 428.04 21.38 19.04-10.69 5.18" fill="none"/><ellipse cx="374.32" cy="434.05" fill="#141414" rx="1.59" ry="4.16" transform="matrix(.8660254 -.5 .5 .8660254 -166.88 245.31)"/><ellipse cx="389.85" cy="426.77" fill="#141414" rx="1.59" ry="4.16" transform="matrix(.8660254 -.5 .5 .8660254 -161.16 252.1)"/><path d="m630.3 438.77a7 7 0 0 0 7-7h-14a7 7 0 0 0 7 7z" fill="#fff"/><path d="m397.54 466.54c-6.66 3.06-9.72.41-11.27-3.13l12.82-5.62" fill="none"/><path d="m386.27 463.41a7 7 0 0 0 9.22 3.6s-3.85-3.22-2.81-6.41z" fill="#141414"/></g><path d="m683.05 759.15 46.96 87.35-38.47 23.65-29.49-97.88z" fill="#72d8dd"/><path d="m694.71 880.68-32.66-108.41 21-13.12 53.53 99.56" fill="none" stroke="#141414" stroke-linecap="round" stroke-miterlimit="10" stroke-width="1.31"/><path d="m551.14 824.1 14.47 123.35-44.62 27.55-28.86-10.59 30.83-141.34z" fill="#fcaced"/><path d="m567.53 963.85-16.39-139.75-28.18-1.03-31.65 147.34" fill="none" stroke="#141414" stroke-linecap="round" stroke-miterlimit="10" stroke-width="1.31"/><path d="m336.64 914.64 54.61-126.08 15.64 5.21-30.23 136.04" fill="#fff" stroke="#141414" stroke-linecap="round" stroke-miterlimit="10" stroke-width="1.31"/><path d="m309.76 772.7-20.61-2.13-36.11 106.15 31.01 11.37z" fill="#fcaced"/><path d="m280.63 903.46 29.13-130.76-20.61-2.13-39.33 115.63" fill="none" stroke="#141414" stroke-linecap="round" stroke-miterlimit="10" stroke-width="1.31"/><g fill="#fff"><path d="m626 238.88c4.22 0 4.23-6.56 0-6.56s-4.23 6.56 0 6.56z"/><path d="m607.6 280.21c4.22 0 4.23-6.56 0-6.56s-4.23 6.56 0 6.56z"/><path d="m593.16 383.87c4.22 0 4.23-6.56 0-6.56s-4.23 6.56 0 6.56z"/><path d="m639.74 283.49c4.23 0 4.23-6.56 0-6.56s-4.22 6.56 0 6.56z"/><path d="m553.14 278.9c4.22 0 4.23-6.56 0-6.56s-4.23 6.56 0 6.56z"/><path d="m396.34 292c4.22 0 4.23-6.56 0-6.56s-4.23 6.56 0 6.56z"/><path d="m441.61 299.9c4.22 0 4.23-6.56 0-6.56s-4.23 6.56 0 6.56z"/><path d="m438.33 377.31c4.22 0 4.23-6.56 0-6.56s-4.23 6.56 0 6.56z"/><path d="m380.59 201.48c4.23 0 4.23-6.56 0-6.56s-4.22 6.56 0 6.56z"/><path d="m393.06 236.91c4.22 0 4.23-6.56 0-6.56s-4.23 6.56 0 6.56z"/><path d="m400.93 256.92a1.64 1.64 0 0 0 0-3.28 1.64 1.64 0 0 0 0 3.28z"/><path d="m403.56 208.37a1.64 1.64 0 0 0 0-3.28 1.64 1.64 0 0 0 0 3.28z"/><path d="m373.38 241.18a1.64 1.64 0 0 0 0-3.28 1.64 1.64 0 0 0 0 3.28z"/><path d="m370.1 281.2a1.64 1.64 0 0 0 0-3.28 1.64 1.64 0 0 0 0 3.28z"/><path d="m433.74 263.48a1.64 1.64 0 0 0 0-3.28 1.64 1.64 0 0 0 0 3.28z"/><path d="m453.42 315.31a1.64 1.64 0 0 0 0-3.28 1.64 1.64 0 0 0 0 3.28z"/><path d="m397.65 366.49a1.64 1.64 0 0 0 0-3.28 1.64 1.64 0 0 0 0 3.28z"/><path d="m435.05 394.7a1.64 1.64 0 0 0 0-3.28 1.64 1.64 0 0 0 0 3.28z"/><path d="m447.51 361.9a1.64 1.64 0 0 0 0-3.28 1.64 1.64 0 0 0 0 3.28z"/><path d="m416.68 439.31a1.64 1.64 0 0 0 0-3.28 1.64 1.64 0 0 0 0 3.28z"/><path d="m562.33 302.19a1.64 1.64 0 0 0 0-3.28 1.64 1.64 0 0 0 0 3.28z"/><path d="m563 260.2a1.64 1.64 0 0 0 0-3.28 1.64 1.64 0 0 0 0 3.28z"/><path d="m603 255.61a1.64 1.64 0 0 0 0-3.28 1.64 1.64 0 0 0 0 3.28z"/><path d="m599.07 303.5a1.64 1.64 0 0 0 0-3.28 1.64 1.64 0 0 0 0 3.28z"/><path d="m651.55 305.47a1.64 1.64 0 0 0 0-3.28 1.64 1.64 0 0 0 0 3.28z"/><path d="m626.62 270a1.64 1.64 0 0 0 0-3.28 1.64 1.64 0 0 0 0 3.28z"/><path d="m654.18 214.93a1.64 1.64 0 0 0 0-3.28 1.64 1.64 0 0 0 0 3.28z"/><path d="m651.55 253a1.64 1.64 0 0 0 0-3.28 1.64 1.64 0 0 0 0 3.28z"/><path d="m604.32 222.15a1.64 1.64 0 0 0 0-3.28 1.64 1.64 0 0 0 0 3.28z"/><path d="m633.84 210.34a1.64 1.64 0 0 0 0-3.28 1.64 1.64 0 0 0 0 3.28z"/><path d="m641.71 195.25a1.64 1.64 0 0 0 0-3.28 1.64 1.64 0 0 0 0 3.28z"/><path d="m597.1 412.74c4.22 0 4.23-6.56 0-6.56s-4.23 6.56 0 6.56z"/><path d="m610.88 386.17a1.64 1.64 0 0 0 0-3.28 1.64 1.64 0 0 0 0 3.28z"/><path d="m601 367.8a1.64 1.64 0 0 0 0-3.28 1.64 1.64 0 0 0 0 3.28z"/><path d="m597.1 448.5a1.64 1.64 0 0 0 0-3.28 1.64 1.64 0 0 0 0 3.28z"/><path d="m551.17 319.25a1.64 1.64 0 0 0 0-3.28 1.64 1.64 0 0 0 0 3.28z"/><path d="m577.42 235.27a1.64 1.64 0 0 0 0-3.28 1.64 1.64 0 0 0 0 3.28z"/><path d="m591.85 266.76a1.64 1.64 0 0 0 0-3.28 1.64 1.64 0 0 0 0 3.28z"/><path d="m384.53 265.45a1.64 1.64 0 0 0 0-3.28 1.64 1.64 0 0 0 0 3.28z"/><path d="m362.22 195.25a1.64 1.64 0 0 0 0-3.28 1.64 1.64 0 0 0 0 3.28z"/><path d="m401.59 191.32a1.64 1.64 0 0 0 0-3.28 1.64 1.64 0 0 0 0 3.28z"/><path d="m433.08 235.27a1.64 1.64 0 0 0 0-3.28 1.64 1.64 0 0 0 0 3.28z"/><path d="m404.87 315.31a1.64 1.64 0 0 0 0-3.28 1.64 1.64 0 0 0 0 3.28z"/><path d="m625.31 303.5a1.64 1.64 0 0 0 0-3.28 1.64 1.64 0 0 0 0 3.28z"/><path d="m598.41 192.3c4.22 0 4.23-6.56 0-6.56s-4.23 6.56 0 6.56z"/><path d="m414.71 366.82c4.22 0 4.23-6.56 0-6.56s-4.23 6.56 0 6.56z"/></g></svg>