<svg viewBox="0 0 1000 1000" xmlns="http://www.w3.org/2000/svg" xmlns:xlink="http://www.w3.org/1999/xlink"><clipPath id="a"><path d="m481.69 102.51-252.8 28.89 18.65-45.71 236.45 12.38z"/></clipPath><path d="m680.07 75.76 203.29 180.97-27.79 462.96-427.05 232.53-239.85-340.76 200.36-510.41z" fill="#172338"/><path d="m765.57 619.42h-59.18v153.28h-11.15v-75.44h-102.43v75.44h-97.38v-100.79h11.52v-36.32h-11.52v-118.82h-94.83v63.33h16.69v63.54h-16.69v31.2h19.63v79.58h-27.17v-20.11h-50.98l-12.3 77.63 71.09 101 97.36 1.33 341.98-186.22v-16.16h-74.64z" fill="#2c4568"/><path d="m402.75 520.81-29.23 9.51 21.11 39.57 4.9 49.53 13.06-53.99-7.32-45.44z" fill="#b72929"/><path d="m394.63 569.89 4.9 49.53 13.06-53.99-7.32-45.44-2.52.82-29.23 9.51" fill="none" stroke="#141414" stroke-miterlimit="10" stroke-width="1.46"/><path d="m400.6 490.95-2.79-17.26-54.27.42 15.7 29.42 36.13-10.99z" fill="#b72929"/><path d="m395.37 492.54 5.23-1.59-2.79-17.26-54.27.42" fill="none" stroke="#141414" stroke-miterlimit="10" stroke-width="1.46"/><path d="m864.87 564.77-39.28-19.12 42.03-26.66-88.1-5 53.38-43.66-95.43 14.15 44.24-57.28-88.48 40.2-59.96 118.47 44.61 108.95v-87.75l73.12 116.27-24.13-99.45 113.34 99.45-27.05-55.57 44.06 24.36z" fill="#ffc533"/><path d="m879.56 563.42-44.32-21.57 47.42-30.08-99.41-5.64 60.24-49.27-107.68 15.96 49.92-64.63-99.84 45.37-67.66 133.67 50.33 122.94v-99.01l82.51 131.2-27.23-112.22 127.9 112.22-30.53-62.72 49.72 27.5z" fill="none" stroke="#fff" stroke-miterlimit="10" stroke-width="1.46"/><path d="m695.39 487.67 38.35-21.11-19.18 44.85 60.12-18.02-25.99 31.66h59.79l-24.05 24.7 68.25 30.55h-48.1l63.04 60.99-80.59-41.49 42.25 51.99-65.65-49.39 16.25 38.35-70.19-68.07 5.85 47.92-37.05-51.02-7.15 43.87-16.9-68.9z" fill="#fff"/><path d="m684.46 516.89 21.93-16.09-11.15 28.75 47.32-11.83-14.23 19.15 49.36-2.19-29.41 14.66 52.08 38.36-69.1-25.96 16.17 29.35-54.93-45.44 2.73 27.22-19.97-23.13z" fill="#ff7c33"/><g stroke="#141414" stroke-miterlimit="10" stroke-width="1.46"><g fill="none"><path d="m728.33 536.87 49.36-2.19"/><path d="m695.24 529.55 47.32-11.83"/><path d="m675.26 549.74 9.2-32.85 21.93-16.09"/><path d="m692.5 545.65 2.73 27.22"/><path d="m731.26 561.74 16.17 29.35"/><path d="m748.28 549.34 52.08 38.36"/></g><path d="m415.15 516.77-1.65-29.74-12.9 3.92 4.67 29.04z" fill="#fff"/></g><path d="m400.6 490.95-5.23 1.59-36.13 10.99-4.85 1.48-12.31 3.74 26.49 23.18 4.95-1.61 29.23-9.51 2.52-.82z" fill="#eae8e8"/><path d="m368.57 531.93 4.95-1.61 29.23-9.51 2.52-.82-4.67-29.04-5.23 1.59-36.13 10.99-4.85 1.48-12.31 3.74" fill="none" stroke="#141414" stroke-miterlimit="10" stroke-width="1.46"/><path d="m762.7 351.14-145.52 330.52-461.42-343.69z" fill="#3da591"/><g fill="none" stroke-miterlimit="10" stroke-width="1.46"><path d="m443.1 539.31-27.95-71.66 73.82-10.73-26.44-69.22 53.66-26.33-32.12-16.28" stroke="#fff"/><path d="m309.26 452.31-24.43-45.23 76.9-20.84" stroke="#fff"/><path d="m762.7 351.14-145.52 330.52-461.42-343.69" stroke="#141414"/><path d="m539.85 622.43-23.66-86.65 71.01-12.15-35.5-86.21 91.08-10.22-38.03-79.49" stroke="#fff"/></g><path d="m386.36 108.31-27.77-5.8-20.23 38.39h35.2z" fill="#eae8e8"/><path d="m373.56 140.9 12.8-32.59-27.77-5.8" fill="none" stroke="#141414" stroke-miterlimit="10" stroke-width="1.46"/><path d="m492.87 80.94-25.59 49.36h9.58l-4.83 14.63 38.76 2.19 22.3-58.14z" fill="#f9b3a0"/><path d="m433.37 152.42-85.51 53.93 16.94-43.14h-38.2l-51.25 97.25 108.3-6.58 83.63-81.17z" fill="#b72929"/><g fill="none" stroke="#141414" stroke-miterlimit="10" stroke-width="1.46"><path d="m342.84 219.15 21.96-55.94"/><path d="m275.35 260.46 108.3-6.58 83.63-81.17-33.91-20.29"/><path d="m467.28 130.3h9.58l-4.83 14.63 38.76 2.19 22.3-58.14"/></g><path d="m373.56 140.9h-35.2-8.92l-10.24 22.31h7.4 38.2 7.28l6.35-22.31z" fill="#eae8e8"/><path d="m446.07 578.31 6.58 60.21 16.27-67.29s-8.41-23.53-18.44-52.23l-33.2 13.78z" fill="#d83a3a"/><path d="m446.07 578.31 6.58 60.21 16.27-67.29s-8.41-23.53-18.44-52.23l-33.2 13.78" fill="none" stroke="#141414" stroke-miterlimit="10" stroke-width="1.46"/><path d="m604.75 347.71-271.13-28.71-26.92 38.81 94.3 149.19 39.88-15.64c-8.75-25.41-17.16-50.47-21.16-64.21 123.61-1.43 185.03-79.44 185.03-79.44z" fill="#d83a3a"/><path d="m401 507 39.88-15.64c-8.75-25.41-17.16-50.47-21.16-64.21 123.58-1.47 185-79.48 185-79.48l-271.1-28.67" fill="none" stroke="#141414" stroke-miterlimit="10" stroke-width="1.46"/><path d="m458.55 484.48-17.64 6.92-39.88 15.64-13.29 5.22 29.55 20.51 33.19-13.78 12.05-5z" fill="#fff"/><path d="m417.29 532.77 33.19-13.78 12.05-5-3.98-29.51-17.64 6.92-39.88 15.64-11.97 4.7" fill="none" stroke="#141414" stroke-miterlimit="10" stroke-width="1.46"/><path d="m319.2 163.21h7.4 38.2 7.28l6.35-22.31h-4.87-35.2-8.92" fill="none" stroke="#141414" stroke-miterlimit="10" stroke-width="1.46"/><path d="m524 136.52s76.41 95.06 80.8 211.19l-284.44-6.17 111.5-189.12z" fill="#d83a3a"/><path d="m524 136.52s76.41 95.06 80.8 211.19l-284.44-6.17" fill="none" stroke="#141414" stroke-miterlimit="10" stroke-width="1.46"/><path d="m490.68 69.61 17.91-41.68 46.8-2.93 76.78 77.51-87.02-35.1-4.38 13.53z" fill="#d83a3a"/><path d="m632.17 102.51-87.02-35.1-4.38 13.53-50.09-11.33" fill="none" stroke="#141414" stroke-miterlimit="10" stroke-width="1.46"/><path d="m538.21 90.45-2.2 31.44-25.59 55.58-67.64 41.68-33.64-30.35 4.02-39.49 63.7-19.01 11.62 1.83 2.2 6.58 19.74-8.05 5.77-28.15-12.35 11.52 6.95-28.34z" fill="#fff"/><g fill="none" stroke="#141414" stroke-miterlimit="10" stroke-width="1.46"><path d="m516.19 102.51-12.35 11.52"/><path d="m488.48 132.13 2.2 6.58 19.74-8.05"/><path d="m510.79 85.69 27.42 4.76-2.2 31.44-25.59 55.58-67.64 41.68-33.64-30.35"/></g><path d="m312.98 367.59v31.81l-28.15 7.68v-40.95h-19v-9.51l32.53-16.09z" fill="#fff"/><path d="m343.36 283.17h261.39l8.04 35.8h-292.16z" fill="#141414" stroke="#141414" stroke-miterlimit="10" stroke-width="1.46"/><path d="m344.48 267.84h53.38l-43.88 62.76h-47.28z" fill="#f9bb3e"/><g stroke="#141414" stroke-miterlimit="10" stroke-width="1.46"><path d="m344.48 267.84h53.38l-43.88 62.76h-47.28" fill="none"/><path d="m350.34 281.72h34.11l-28.03 40.1h-30.21z" fill="#141414"/><g fill="none"><path d="m284.83 366.13h-19v-9.51"/><path d="m298.36 340.53 14.62 27.06v31.81l-28.15 7.68"/></g></g><path d="m484.46 61.93 65.45 18.65-4.39 14.62-68.66-10.03z" fill="#fff"/><g stroke-miterlimit="10" stroke-width="1.46"><path d="m484.46 61.93 65.45 18.65-4.39 14.62-68.66-10.03" fill="none" stroke="#141414"/><path d="m538.21 267.77-225.23 97.88-14.62-25.12 214.62-155.75" fill="#d83a3a" stroke="#141414"/><path d="m235.05 397.03-9.82-35.66 40.6-9.75-13.3-11.55" fill="none" stroke="#fff"/></g><ellipse cx="239.23" cy="107.86" fill="#b4e7fc" rx="24.34" ry="15.8" transform="matrix(.36211268 -.93213433 .93213433 .36211268 52.07 291.81)"/><path d="m248 85.18c8.13 3.16 10.78 15.88 5.92 28.4s-15.41 20.13-23.54 17-10.79-15.88-5.92-28.41" fill="none" stroke="#141414" stroke-miterlimit="10" stroke-width="1.46"/><path d="m311.74 322.85 26.33 35.93-21.12 15.03-24.44-38.17z" fill="#fff"/><path d="m311.74 322.85 26.33 35.93-21.12 15.03-24.44-38.17" fill="none" stroke="#141414" stroke-miterlimit="10" stroke-width="1.46"/><g clip-path="url(#a)"><path d="m481.69 102.51-252.8 28.89 18.65-45.71 236.45 12.38z" fill="#f9bb3e"/><g fill="none" stroke="#fff" stroke-miterlimit="10" stroke-width="1.46"><path d="m293.61 83.13-18.26 42.96"/><path d="m331.28 83.13-18.26 42.96"/><path d="m368.96 83.13-18.26 42.96"/><path d="m406.64 83.13-18.26 42.96"/><path d="m444.32 83.13-18.26 42.96"/><path d="m482 83.13-18.26 42.96"/></g></g><path d="m396.15 90.79h8.12s-1.8 8.41-10.59 7.75z" fill="#eae8e8"/><path d="m404.27 90.79s-1.8 8.41-10.59 7.75" fill="none" stroke="#141414" stroke-miterlimit="10" stroke-width="1.46"/><path d="m481.68 102.51-250.72 28.16" fill="none" stroke="#141414" stroke-miterlimit="10" stroke-width="1.46"/><path d="m364.54 87.89-13.84 29.59 38.33-4.38 8.05-25.21z" fill="#eae8e8"/><path d="m364.54 87.89-13.84 29.59 38.33-4.38 8.05-25.21" fill="none" stroke="#141414" stroke-miterlimit="10" stroke-width="1.46"/><circle cx="631.86" cy="102.1" fill="#fff" r="10.05"/><path d="m641.91 102.1a10.05 10.05 0 1 1 -18.39-5.62" fill="none" stroke="#141414" stroke-miterlimit="10" stroke-width="1.46"/><path d="m250.95 77.89-25.96 63.56 19.62-1.67 24.86-62.47z" fill="#f9bb3e"/><g stroke="#141414" stroke-miterlimit="10" stroke-width="1.46"><g fill="none"><path d="m224.99 141.45 19.62-1.67 24.86-62.47-18.52.58"/><path d="m467.28 130.3h13.89v-8.53"/><path d="m490.68 103.73s5.85-4.45 9.5 2.93"/></g><path d="m481.17 153.46c11.21 0 14.26-7.21 14.26-7.21l-14.72-.25s3.48 4.29.46 7.46z" fill="#141414"/><path d="m472.85 146.02h9.33" fill="#141414"/><g fill="none"><path d="m520.66 57.72 24.49 9.69"/><path d="m419.75 427.19s-30.72 1.46-61.43-23"/></g></g><circle cx="561.68" cy="578.76" fill="#f75e5e" r="18.14"/><circle cx="566.01" cy="580.1" fill="none" r="18.14" stroke="#141414" stroke-miterlimit="10" stroke-width="1.46"/><circle cx="638.58" cy="453" fill="#76d6f4" r="12.23"/><circle cx="642.22" cy="456.8" fill="none" r="12.23" stroke="#141414" stroke-miterlimit="10" stroke-width="1.46"/><circle cx="642.78" cy="549.74" fill="#ed72bc" r="12.23"/><circle cx="645.5" cy="552.29" fill="none" r="12.23" stroke="#141414" stroke-miterlimit="10" stroke-width="1.46"/><circle cx="495.43" cy="511.44" fill="#ffc533" r="17.55"/><circle cx="501.47" cy="513.99" fill="none" r="17.55" stroke="#141414" stroke-miterlimit="10" stroke-width="1.46"/><circle cx="692.5" cy="385.15" fill="#ffc533" r="16.26"/><circle cx="697.66" cy="387.45" fill="none" r="16.26" stroke="#141414" stroke-miterlimit="10" stroke-width="1.46"/><circle cx="584.47" cy="390.62" fill="#ed72bc" r="10.8"/><circle cx="588.79" cy="392.91" fill="none" r="10.8" stroke="#141414" stroke-miterlimit="10" stroke-width="1.46"/><circle cx="521.22" cy="442.2" fill="#f75e5e" r="10.8"/><circle cx="525.21" cy="444.58" fill="none" r="10.8" stroke="#141414" stroke-miterlimit="10" stroke-width="1.46"/><circle cx="206.39" cy="356.62" fill="#f75e5e" r="9.51"/><circle cx="209.31" cy="360.37" fill="none" r="9.51" stroke="#141414" stroke-miterlimit="10" stroke-width="1.46"/><circle cx="455.73" cy="442.2" fill="#76d6f4" r="10.8"/><circle cx="459.23" cy="444.58" fill="none" r="10.8" stroke="#141414" stroke-miterlimit="10" stroke-width="1.46"/><circle cx="326.09" cy="438" fill="#ffc533" r="10.8"/><circle cx="329.41" cy="442.2" fill="none" r="10.8" stroke="#141414" stroke-miterlimit="10" stroke-width="1.46"/><circle cx="259.55" cy="384.61" fill="#76d6f4" r="10.8"/><circle cx="262.78" cy="388" fill="none" r="10.8" stroke="#141414" stroke-miterlimit="10" stroke-width="1.46"/><path d="m121.03 362.47 34.73-69.47 18.29 77.15-57.41-61.79 86.29 10.61z" fill="#f9bb3e"/><g fill="none" stroke="#141414" stroke-miterlimit="10" stroke-width="1.46"><path d="m164.91 331.58 9.14 38.57"/><path d="m155.76 293 6.16 25.97"/><path d="m155.76 344.02-34.73 18.45"/><path d="m202.93 318.97-35.78 19"/><path d="m116.64 308.36 29.63 3.64"/></g><path d="m393.06 710.91-50.98-59.12h-125.02l211.46 300.43 285.6-155.51h-56.4v-46.14h21.39l-33.61-33.61h-93.53l-32.95 32.95h28.85v115.05h-54.47v-53.05h31.81l-50.97-39.21h-112.99v-61.79z" fill="#3a5e89"/><g fill="#ffc533"><path d="m292.51 723.34h14.2v19.01h-14.2z"/><path d="m329.78 761.37h14.2v19.01h-14.2z"/><path d="m366.58 815.72h14.2v19.01h-14.2z"/><path d="m425.79 815.72h14.2v19.01h-14.2z"/><path d="m572.38 815.72h14.2v19.01h-14.2z"/><path d="m611.13 780.38h14.2v19.01h-14.2z"/><path d="m448.63 702.13h14.2v19.01h-14.2z"/><path d="m767.22 728.95h14.2v19.01h-14.2z"/><path d="m418.69 886.65h14.2v19.01h-14.2z"/></g><path d="m455.73 975 400.69-209.98v69.72z" fill="#3a5e89"/></svg>