<svg viewBox="0 0 1000 1000" xmlns="http://www.w3.org/2000/svg"><path d="m816.55 935.28-380.58 39.72-238.76-74.6 32.2-252.29-127.73-267.76 208.33-322.88 314.14 91.84 186.82.82-95.32 337.56 188.38 244.73z" fill="#7fbaba"/><path d="m316.36 341.44 17.71 44.81 28.71 16.91-26.56-64.94z" fill="#492417"/><path d="m424.5 410.54 27.37 41.46-49.51 25.76-19.32-55.95z" fill="#fff"/><path d="m424.5 410.54 27.37 41.46-49.51 25.76" fill="none" stroke="#0f0f0f" stroke-miterlimit="10" stroke-width="1.61"/><path d="m324.68 341.71 49.91 97.41 66.82-27.37-41.86-109.49z" fill="#fff"/><path d="m374.59 439.12 66.82-27.37-41.86-109.49-74.87 39.45" fill="none" stroke="#0f0f0f" stroke-miterlimit="10" stroke-width="1.61"/><path d="m424.5 295.02-.98 69.95-13.37-34.98-2.15 7.29 6.44 24.55-19.73-34.61-67.08 20.24-34.35-13 19.72-23.34 109.09-22.54z" fill="#492417"/><path d="m467.97 288.58-212.53 57.56-21.33-15.7 16.1-13.08 180.73-46.49 44.68 2.01z" fill="#f4b856"/><path d="m430.94 270.87 44.68 2.01-7.65 15.7-212.53 57.56" fill="none" stroke="#0f0f0f" stroke-miterlimit="10" stroke-width="1.61"/><path d="m313 311.12 7.65-61.99h28.18l24.15-16.1 19.32 59.17z" fill="#f4b856"/><g stroke-miterlimit="10" stroke-width="1.61"><path d="m313 249.13h35.83l24.15-16.1 19.32 59.17-79.3 18.92" fill="none" stroke="#0f0f0f"/><g stroke="#fff"><path d="m389.71 505.99-2.64-39.1 68.02-31.39 29.79 23.34z" fill="#0f0f0f"/><g fill="none"><path d="m397.02 462.3 8.16 31.96"/><path d="m408.77 455.9 10.58 29.68"/><path d="m422.83 450.66 13.14 29.68"/><path d="m434.94 444.56 15.93 27.97"/><path d="m446.69 439.12 19.67 25.36"/></g></g><path d="m307.77 533.22 35.42 355.11h449.21l-250.36-470.14z" fill="#0f0f0f" stroke="#0f0f0f"/></g><path d="m197.21 849.41v50.99l238.76 74.6 380.58-39.72 36.77-85.87z" fill="#82571d"/><path d="m185.94 870.35 686.43-6.8-13.96 67.44h-87.48l-343.08 25.76-241.91-68.42 414.33-2.33 202.06-11.21 46.42 13.54-12.07 23.88-348.58 23.07-132.03-17.44 23.83-17.44h382.97l-13.94 9.75-346.17 2.06" fill="none" stroke="#fff" stroke-miterlimit="10" stroke-width="1.61"/><path d="m391.5 557.46-35.43 315.57h-85.87l37.57-339.81 23.08-11.33" fill="#0f0f0f" stroke="#0f0f0f" stroke-miterlimit="10" stroke-width="1.61"/><path d="m535.86 621.32h-73.68v-21.53l69.39-6.38z" fill="#f4b856"/><path d="m608.85 614.35-63.86 4.29-6.98-27.37 68.7-4.29z" fill="#f4b856"/><path d="m600.27 661.04-118.08-7.78v-21.74l118.08-4.83z" fill="#e58645"/><path d="m547.06 687.87-67.55 3.22-2.68-30.05 70.3 9.12z" fill="#f4b856"/><path d="m559.48 671.77 44.01-4.29 2.14 19.86h-46.15z" fill="#f4b856"/><path d="m482.19 701.29 126.66-3.83-3.22 20.2-138.46 12.07-4.99-25.22z" fill="#e58645"/><path d="m499.02 575.63 83.54-7.44v15.56l-87.48 6.45z" fill="#e58645"/><g fill="#f4b856"><path d="m482.19 552.09 2.69 19.32 56.35-9.12-2.41-18.79z"/><path d="m550.09 543.5 2.41 16.64 39.18-2.68v-16.64z"/><path d="m612.61 752.27-124.51 6.45 3.09-22.01 121.42-13.42z"/><path d="m479.51 758.72 2.68-20.94-27.37 3.22v17.72z"/></g><path d="m472 783.94 143.29-4.83-6.44-17.18-136.85 6.45z" fill="#e58645"/><path d="m474.68 810.77 60.84 3.76-2.34-21.47h-61.18z" fill="#f4b856"/><path d="m550.36 814.53-3.23-21.47 82.65-6.44-3.22 27.91z" fill="#f4b856"/><path d="m472 822.58h152.95l2.69 26.83h-155.64z" fill="#e58645"/><path d="m466.07 857.13 84.29 2.48v10.74h-81.85z" fill="#f4b856"/><path d="m568.6 857.13v10l64.4 3.22v-13.22z" fill="#f4b856"/><path d="m796.28 783.94-59.43-25.23-3.34-3.93a29.36 29.36 0 0 0 -5.13 20.49l14.11 83.81 15 22 45.08 2.68 34.08-6.44 25.4-90.7a62.64 62.64 0 0 0 2.22-20.2z" fill="#f7ce23"/><path d="m863.16 758.94c-3.16-12.54-13.16-24.2-40.16-22.23l4.82-75.71-50.45 2.14-2.18 76c-20.93.13-32.61 5.75-39.11 12.51l60.2 10.23z" fill="#fff"/><path d="m798.91 788.9 65.39-22.48a41.56 41.56 0 0 0 -1.14-7.48l-66.88 3-60.2-10.23a26.72 26.72 0 0 0 -2.57 3.08l3.34 3.93z" fill="#f9ad48"/><path d="m819.22 669.46-4.22 66.74-.59 9.21 9.21-.67c1.79-.13 3.54-.2 5.2-.2 11.06 0 18.82 2.91 23.07 8.64 7 9.38 4.19 25.62 2.54 31.07v.1.1l-24.06 85.89-28.19 5.33-40.14-2.39-11.91-17.28-13.81-82.07v-.07a21 21 0 0 1 4.58-15.49c6-7.18 17.86-11 34.36-11.13h7.77l.22-7.77 2-68.51 34-1.45m8.6-8.42-50.45 2.14-2.18 76c-53.18.33-46.81 36.08-46.81 36.08l14.11 83.81 15 22 45.08 2.68 34.08-6.44 25.4-90.7s15.49-50.13-33.3-50.13c-1.83 0-3.77.07-5.79.22l4.83-75.75z" fill="#fff"/><path d="m694.43 781.26-36.74 11 6.11 31.62 2.74 14.2 10.47 54.27 22.54 8.05h45.62l12.88-17.34v-50.31-18.22-33.27z" fill="#fff"/><path d="m758.05 883.06v-50.31-18.22-33.27h-63.62l-36.74 11" fill="none" stroke="#0f0f0f" stroke-miterlimit="10" stroke-width="1.61"/><path d="m711.72 844.23-37.26-10.13 8.61 48.5 18.51 7.2h37.48l10.58-15.5v-44.97z" fill="#f7ce23"/><path d="m773.62 670.16 60.11 2.69v-19.59l-62.8 2.41z" fill="#fff"/><path d="m773.62 670.16 60.11 2.68" fill="none" stroke="#0f0f0f" stroke-miterlimit="10" stroke-width="1.61"/><path d="m758.05 781.26c.6 8-23.44 23.27-46.42 25s-53.23-3.78-53.82-11.83 17.55-16 40.53-17.67 59.12-3.56 59.71 4.5z" fill="#fff"/><path d="m657.81 794.41c-.6-8.06 17.55-16 40.53-17.67s59.12-3.54 59.71 4.52-23.44 23.27-46.42 25c-13.57 1-29.67-.5-40.71-3.55 0 0-20.2-9.09 29.17-18.75" fill="none" stroke="#0f0f0f" stroke-miterlimit="10" stroke-width="1.61"/><path d="m749.64 829.33v-16.28l-37.59 5.12-39.84 3.24 2.25 12.69 37.26 10.13z" fill="#f9ad48"/><path d="m365.73 354.86 4.57 37.83 12.74-4.56" fill="none" stroke="#0f0f0f" stroke-miterlimit="10" stroke-width="1.61"/><path d="m312.06 873.03h99.29l16.66-173.49-56.08-25.42-45.37 127.53" fill="#0f0f0f"/><g stroke-miterlimit="10" stroke-width="1.61"><path d="m411.35 873.03 16.66-173.49-56.08-25.42-45.37 127.53" fill="none" stroke="#fff"/><path d="m435.97 591.27 9.19-10.74 22.54 21.47 14.49-9.12-32.2-30.59-41.32 8.58-28.77 80.86 50.77 20.04 43.29-40.76 2.06-9.69h-13.84z" fill="#fff" stroke="#0f0f0f"/><path d="m371.93 674.12 56.08 25.42 2.66-27.77-50.77-20.04z" fill="#0f0f0f" stroke="#fff"/></g><path d="m838.39 213.87-71.51 218.02 29.4-18.61 120.88-162.03z" fill="#7fbaba"/><path d="m223.24 894.76 52.33 23.08 67.62-20.66-4.49-38.32-102.02-4.7z" fill="#d1d84c"/><path d="m223.24 894.76 52.33 23.08 67.62-20.66-4.49-38.32" fill="none" stroke="#0f0f0f" stroke-miterlimit="10" stroke-width="1.61"/><path d="m239.08 858 31.12 24.69 63.6-16.1z" fill="#0f0f0f"/><path d="m286.44 859.61s.13 31.4-24.29 23.08-4.83-36-4.83-36l-11-26 11.54-54.47-24.15-37.84 26.29-75.12-31.39-104.66 13.95-50.45-18-22.81-3.76-36.22 66.55-36-40.79 51 26.83 48-19.29 60.17 16.1 82.92-23.34 76.47 23.34 24.15-4.29 49.92-11.81 28.17 8.32 21.47s25.43-5.1 24.02 14.22z" fill="#fff"/><path d="m266.61 874.79 94.83-36.11-3.22-12.61-98.75 29.52z" fill="#fff"/><path d="m270.2 873.03 91.24-34.35-3.22-12.61-93.98 28.09z" fill="none" stroke="#0f0f0f" stroke-miterlimit="10" stroke-width="1.61"/><path d="m555.72 189.56 31.67-9.93 56.88 2.68-49.37 39.45z" fill="#0f0f0f" stroke="#0f0f0f" stroke-miterlimit="10" stroke-width="1.61"/><path d="m270.46 852.3-10.99 3.29 7.14 19.2 11.06-4.21z" fill="#f97a69"/><path d="m266.61 874.79 11.06-4.21-7.21-18.28-10.99 3.29" fill="none" stroke="#0f0f0f" stroke-miterlimit="10" stroke-width="1.61"/><path d="m586.83 25-23.06 51.05 20.13 82.92-28.18-52.33-27.14 33.01 27.14-10.35 25.23 67.77h24.95l46.29-112.69 29.65-30.34-60.11 14.39-21.73 100.2z" fill="#d1d84c"/><g fill="none" stroke="#0f0f0f" stroke-miterlimit="10" stroke-width="1.61"><path d="m580.95 197.07h24.95l46.29-112.69 29.65-30.34-60.11 14.39"/><path d="m590.53 171.29-34.81-64.65-27.14 33.01"/><path d="m600.56 174.74-13.73-149.74-23.06 51.05"/></g><path d="m600 200.83 21.2-65.21 40.79-14.49v71.65l-17.72-31.8-19.32 39.85z" fill="#d1d84c"/><path d="m600 200.83h24.95l19.32-39.85 17.72 31.8v-71.65l-40.79 14.49-9.03 27.77" fill="none" stroke="#0f0f0f" stroke-miterlimit="10" stroke-width="1.61"/><path d="m591.66 200.83-30.72-57.81-45.47 39.29 40.25-11.8 17.71 35.95z" fill="#d1d84c"/><path d="m515.47 182.31 40.25-11.8 17.71 35.95 18.23-5.63-30.72-57.81" fill="none" stroke="#0f0f0f" stroke-miterlimit="10" stroke-width="1.61"/><path d="m582.29 272.07-26.57-82.51 41.86 6.71 46.69-13.96-8.85 89.76z" fill="#0f0f0f" stroke="#0f0f0f" stroke-miterlimit="10" stroke-width="1.61"/><path d="m205.26 407.18 41.33-33.4h-4.56l-30.32 13.28-19.33-6.17-5.9 8.05 1.88 13.15-28.98 16.1 17.44 10.19 55.28-16.63 2.68-8.59z" fill="#fff"/><path d="m209.83 432.14-23.89 6.98 11.94 5.1 13.02-7.52z" fill="#fff"/><path d="m750.14 174.74-3.03 10.69-25.99 1.36 3.26-12.05h-25.14l2.6-11.35h-26.17l-27.57 103.53 28.91 5.15 1.79-7.8 20.44 3.37 1.82-6.71 23.32 4.7h30.18l23.35-90.89z" fill="#d86666"/><path d="m786.77 260.4h-236.68v32.2h236.68" fill="#896336" stroke="#0f0f0f" stroke-miterlimit="10" stroke-width="1.61"/><path d="m503.13 206.46-26.3 139.68h11.27l53.13-113.11z" fill="#fff"/><circle cx="476.83" cy="370.69" fill="#fff" r="13.28"/><g stroke-miterlimit="10" stroke-width="1.61"><g stroke="#0f0f0f"><path d="m477.3 346.14h11.27l55.87-118.95" fill="none"/><path d="m477.3 357.41a13.28 13.28 0 0 1 0 26.56" fill="none"/><g fill="#0f0f0f"><ellipse cx="393.98" cy="408.93" rx="10.94" ry="5.77" transform="matrix(.93257604 -.3609736 .3609736 .93257604 -121.04 169.76)"/><circle cx="389.69" cy="358.31" r="3.45"/><circle cx="354.87" cy="370.69" r="3.45"/></g><path d="m376.33 346.14s5.37-5.77 17.45-5.24" fill="none"/><path d="m341 359.32s5.36-5.77 17.44-5.23" fill="none"/><path d="m565.11 502.98 173.35 26.3-31.05 95.36 55.46 27.09 73.81-165.12-4.03-15.87-255.97-69.3-48.1 23.35" fill="#0f0f0f"/><path d="m677.82 643.6-12.61 12.07-18.25-8.59-19.86 32.47 6.98 4.57-7.25 12.61 12.08 9.12 7.51-15.56 10.2 4.02-8.59 17.71 15.03 8.59 5.37-11 59.57 20.12 26.02-58.22-52.87-27.65-4.55 13.96z" fill="#fff"/></g><path d="m754.02 671.51 8.85-19.78-55.46-27.09-6.26 19.22z" fill="#0f0f0f" stroke="#fff"/><path d="m748.93 495.2-10.47 34.08" fill="none" stroke="#fff"/><g stroke="#0f0f0f"><path d="m665.21 655.67 33.14 14.76" fill="#0f0f0f"/><path d="m687.21 683.31-46.83-25.47" fill="#0f0f0f"/><path d="m685.47 691.63-45.09-18.11-6.3 10.6" fill="none"/><path d="m687.21 702.63-30.59-8.32" fill="#fff"/><path d="m462.18 621.32-31.13 28.92-28.29-27.37" fill="none"/><g fill="#fff"><path d="m413.63 610.99 28.43 29.02"/><path d="m424.9 600.73 28.09 29.13"/><path d="m435.97 591.27-6.84-7.65"/></g></g></g><path d="m90.41 439.12 112.57 214.14-120.15-63.06z" fill="#7fbaba"/><g fill="#fff"><path d="m758.06 814.53h-.01v18.22"/><path d="m845.93 765.15 5.24 10.12-10.87 34.16 1.61-28.17-9.56-16.11z"/><path d="m768.25 776.67 3.62 80.46h6.04v-89.96z"/><path d="m682.51 828.64 6.44 46h7.25l-2.42-48.71z"/></g><g stroke-miterlimit="10" stroke-width="1.61"><g stroke="#0f0f0f"><g fill="none"><path d="m823 736.71s-6.08 9.12-23.37 6.31"/><path d="m701.83 163.39-23.94 97.01"/><path d="m724.38 174.74-23.32 86.19"/><path d="m747.11 185.43-20.13 75.5"/></g><path d="m765.46 799.35 66.89.33-5.61 39.52h-60.81z" fill="#0f0f0f"/></g><g fill="none"><path d="m777.91 174.74-22.43 86.19" stroke="#0f0f0f"/><g stroke="#fff"><path d="m718.8 630.2-7.42 19.01"/><path d="m731.24 636.02-8.18 19.3"/><path d="m743.87 642.45-9.26 18.91"/><path d="m754.03 648.07-8.45 19.68"/><path d="m389.01 655.33-6.7 23.49"/><path d="m400.16 658.76-5.52 25.65"/><path d="m411.37 663.97-5.58 25.5"/><path d="m422.88 668.89-5.04 26.04"/><path d="m766.7 334.19-94.79 6.68-3.48 33.27h87.05z"/><path d="m707.08 403.4 4.3-29.26h-84.55l-4.56 26.94z"/><path d="m241.22 148.5 71.78 5.37v31.56h-110.02z"/><path d="m379.9 185.43h-66.9v-31.56h70.04z"/><path d="m257.99 185.43-2.55 32.3 85.57.11v-32.41z"/><path d="m133.88 302.26 64.54 6.24v18.27l-84.93 7.42z"/><path d="m671.91 340.87h-66.7"/></g></g></g></svg>