<svg viewBox="0 0 1000 1000" xmlns="http://www.w3.org/2000/svg"><path d="m735.97 911.71-527.24 22.37-86.27-221.01 172.55-247.11-116.63-238.28 222.07-202.68 404.22 123.02-25.03 234.33 133.67 34.08z" fill="#ffd366" opacity=".75"/><g stroke="#0c0c0c" stroke-miterlimit="10" stroke-width="1.6"><path d="m608.7 519.36 104.37-3.87-104.39 238.58-3.72 164.03h-68.18z" fill="#fff"/><path d="m560.8 408.86s10.25 12.72 2 19.93c-4 1.84-12.79-6.36-12.79-6.36z" fill="#fc7777"/><path d="m128.28 795.3h276.17v-67.32h-276.17" fill="none"/></g><path d="m526.25 521.99 27.18-161.88-44.87 35.02-22.17 101.87z" fill="#fc7777"/><path d="m486.39 497 39.86 24.99 27.18-161.88" fill="none" stroke="#0c0c0c" stroke-miterlimit="10" stroke-width="1.6"/><path d="m310.19 783.1-8.79-21.97h-20.27l6.5 21.97z" fill="#f7c639"/><path d="m281.13 761.13 6.5 21.97h22.56l-8.79-21.97" fill="none" stroke="#0c0c0c" stroke-miterlimit="10" stroke-width="1.6"/><path d="m270.24 783.1h17.39l-6.5-21.97h-5.3z" fill="#0c0c0c" stroke="#0c0c0c" stroke-miterlimit="10" stroke-width="1.6"/><path d="m368.91 783.1-8.79-21.97h-20.27l6.5 21.97z" fill="#f7c639"/><path d="m339.85 761.13 6.5 21.97h22.56l-8.79-21.97" fill="none" stroke="#0c0c0c" stroke-miterlimit="10" stroke-width="1.6"/><path d="m531.03 493.52-44.64-34.96-8.26 44.68 45.17 36.28z" fill="#fff" stroke="#0c0c0c" stroke-miterlimit="10" stroke-width="1.6"/><path d="m441.19 304.59h275.6v14.38h-275.6z" fill="#fff"/><path d="m716.79 304.59v14.38h-275.6" fill="none" stroke="#0c0c0c" stroke-miterlimit="10" stroke-width="1.6"/><path d="m510.17 304.59h-45.01l-29.83-119.02h45.01z" fill="#fff"/><path d="m542.45 304.59h-33.88l-37.42-153.37h33.88z" fill="#fff"/><path d="m328.96 783.1h17.39l-6.5-21.97h-5.29z" fill="#0c0c0c" stroke="#0c0c0c" stroke-miterlimit="10" stroke-width="1.6"/><path d="m562.08 540.72-70.56 188.06.28-1.68 34.45-205.11-39.86-24.99-32-20.07-84.32 380.3 11.06 22.63 11.91 11.21 38.43 27.03 16.5-7.19h61.92l76.29-305.42z" fill="#2093b2"/><path d="m370.07 857.23 11.06 22.63 11.91 11.21 38.43 27.03 16.5-7.19h61.92l76.29-305.42-24.1-64.77-70.56 188.06.28-1.68 34.45-205.11-39.86-24.99-32-20.07" fill="none" stroke="#0c0c0c" stroke-miterlimit="10" stroke-width="1.6"/><path d="m627.9 599s-14.35 107.7 0 154c-18.68 18.64-62.12 4.27-62.12 4.27s33.2-121 45.47-154.42c12.97-35.29 16.65-3.85 16.65-3.85z" fill="#5ae5e1"/><path d="m627.9 599s-14.35 107.7 0 154c-18.68 18.64-62.12 4.27-62.12 4.27" fill="none" stroke="#0c0c0c" stroke-miterlimit="10" stroke-width="1.6"/><g fill="#fff"><path d="m610.12 318.97h-45.01l-29.83-119.02h45.01z"/><path d="m695.2 306.59h-45.02l-29.83-119.03h45.01z"/><path d="m572.7 318.97h-26.7l-37.43-153.37h25.6z"/><path d="m659.68 319.77h-24.96l-34.98-137h23.92z"/><path d="m635.31 318.97h-26.7l-37.42-153.37h25.59z"/></g><g stroke="#0c0c0c" stroke-miterlimit="10" stroke-width="1.6"><g fill="none"><path d="m480.34 185.57 29.83 119.02h-45.01"/><path d="m505.03 151.22 37.42 153.37h-33.88"/><path d="m580.29 199.95 27.86 119.02"/><path d="m665.36 187.56 29.84 119.03"/><path d="m534.17 165.6 38.53 153.37h-26.7"/><path d="m623.66 182.77 36.02 137h-24.96"/><path d="m596.78 165.6 38.53 153.37"/></g><path d="m567.81 259.46h-36.35s7.19 92.27 54.72 113.43v74.7h8v38.74s-38.74-4.39-45.53 19.17c-2.8 22.37-11.86 84.57-11.86 84.57l109.34-72.46-16.4-231z" fill="#0c0c0c"/></g><path d="m551.85 543.78-49.03 150.56 21.45 68.79-36.9 150.15 61.9-1.29 26.93-154.45 9.98-233.38z" fill="#87d6f9"/><path d="m487.37 913.28 61.9-1.29 26.93-154.45 9.98-233.38-34.33 19.62" fill="none" stroke="#0c0c0c" stroke-miterlimit="10" stroke-width="1.6"/><path d="m627.89 500.32-76.04 43.46 16.76 85.02-30.51 49.68 38.1 79.06 26.36-198.91z" fill="#3db6e0"/><path d="m538.1 678.48 38.1 79.06 26.36-198.91 25.33-58.31-76.04 43.46 20.19 102.44" fill="none" stroke="#0c0c0c" stroke-miterlimit="10" stroke-width="1.6"/><path d="m586.18 346.53s-66.7 74.69-75.09 94.67c-2.39 9.58 18 52.32 18 52.32l15.48-1.6 30.85-37.14v-12l-22-16.37 32.75-35.9 15.18-1.25 22.29-33.55z" fill="#f7c639" stroke="#0c0c0c" stroke-miterlimit="10" stroke-width="1.6"/><path d="m611.35 605.49s-46.33-66 24-110.24c24.99 6.39-9.62 98.52-24 110.24z" fill="#5ae5e1"/><path d="m635.31 495.25c25 6.39-9.58 98.52-24 110.24 0 0-16.57-23.61-14.86-52" fill="none" stroke="#0c0c0c" stroke-miterlimit="10" stroke-width="1.6"/><path d="m316.79 930.66 110.84-3.77-.55-60.98-54.58-86.01h-96.67l34.62 89.21z" fill="#f7c639"/><g stroke="#0c0c0c" stroke-miterlimit="10" stroke-width="1.6"><path d="m316.79 930.66 110.84-3.77-.55-60.98-54.58-86.01h-42.19-54.48l34.62 89.21z" fill="none"/><path d="m231.1 855-3.99 78.3 89.68-2.64-6.34-61.55-34.62-89.21h-11.98z" fill="#0c0c0c"/><path d="m586.18 317.77v129.82s16 17.17 39.55 8c1.2 20.77 4 86.28 4 86.28l62-68.3-22.5-169z" fill="#fc7777"/></g><path d="m567.81 259.46h134.61l14.37 45.13 37.15 5.2s20.77 27.56 4.79 78.68c18.78 10.39 44.74 27.53 44.74 27.53s24 53.12-18.37 71.5c-2.4 5.59-1.6 21.57-1.6 21.57s38.34 4.79 42.34 27.16-13.18 49.92-27.56 49.92-113.84-112.6-113.84-112.6l-6.52-73.1s-38.35-21.3-6.39-59.64c-30.89 6.39-100.92 15.19-103.72-81.35z" fill="#b7632a"/><g fill="none" stroke="#0c0c0c" stroke-miterlimit="10" stroke-width="1.6"><path d="m695.2 407.1s-63.7-17.16-23.67-66.29c-30.89 6.39-100.92 15.19-103.72-81.35"/><path d="m825.84 536.26c4 22.36-13.18 49.92-27.56 49.92s-113.84-112.63-113.84-112.63"/><path d="m803.47 416s24 53.12-18.37 71.5c-2.4 5.59-1.73 28-1.73 28"/><path d="m753.94 309.79s25.7 32.62 0 92"/><path d="m702.42 259.46 14.37 45.13"/></g><path d="m690.17 500.58-93.8 245.77-20.97 171.75 259.57-7.2-55.33-387.96z" fill="#87d6f9"/><path d="m575.4 918.1 259.57-7.2-55.33-387.96-89.47-22.36" fill="none" stroke="#0c0c0c" stroke-miterlimit="10" stroke-width="1.6"/><path d="m721.05 690.7 39.95 113.43-62.47 11.56-152.39 28.19 6.73 76.35 3.09 35.15 339.35-46.47 12.14-37.82-127.81-348.15-89.47-22.36-7.1 41.27" fill="#87d6f9"/><path d="m683.07 541.85 7.1-41.27 89.47 22.36 127.81 348.15-12.14 37.82" fill="none" stroke="#0c0c0c" stroke-miterlimit="10" stroke-width="1.6"/><path d="m721.05 690.7 39.95 113.43-62.47 11.56-152.39 28.19" fill="none" stroke="#0c0c0c" stroke-miterlimit="10" stroke-width="1.6"/><path d="m779.64 522.94-95.2 112.37 47.6 19.18-135.67 91.86 93.8-245.77z" fill="#3db6e0"/><path d="m690.17 500.58 89.47 22.36-95.2 112.37 47.6 19.18-135.67 91.86" fill="none" stroke="#0c0c0c" stroke-miterlimit="10" stroke-width="1.6"/><path d="m611.35 605.49s-5.86-24 18.37-63.64 54.72-68.3 54.72-68.3 36.62 4.66 39.28 33.95-75.63 97.99-112.37 97.99z" fill="#5ae5e1"/><path d="m684.44 473.55s36.62 4.66 39.28 33.95-75.63 98-112.37 98c0 0-2.51-29.31 21.72-69" fill="none" stroke="#0c0c0c" stroke-miterlimit="10" stroke-width="1.6"/><path d="m508.56 395.13 43.29-39.41 18.09-2.26 16.24 37.06-32.75 35.9-14.27-33.89-7.7 2.86" fill="#fc7777"/><path d="m551.85 355.72 18.09-2.26 16.24 37.06-32.75 35.9-14.27-33.89-7.7 2.86" fill="none" stroke="#0c0c0c" stroke-miterlimit="10" stroke-width="1.6"/><path d="m553.43 426.42-15.33-8.39" fill="#fff" stroke="#0c0c0c" stroke-miterlimit="10" stroke-width="1.6"/><path d="m398.12 128.85h-111.45l-108.29 98.83 116.63 238.28-172.55 247.11 5.82 14.91h269.84z" fill="#9ce0f7"/><path d="m398.12 269.59v-38.28l-26.04 34.08-40.82-14.94-24.62 27.33h-21.33l-14.5 9.83h127.31z" fill="#fff"/><path d="m206.57 285.28 46.3 94.59v-137.59h-67.35z" fill="#0c0c0c"/><path d="m356.34 441.16v136.48h-17.22v-171.59l-64.1-52.59v71.66l19.99 40.84-169.43 242.64v12.46l2.7 6.92h78.29 7.41 25.92 12.97 22.15 28.98 10 25.12 17.22 21.77 19.44v-303.22z" fill="#0c0c0c"/><path d="m128.28 727.98h269.84v-599.13h-111.45" fill="none" stroke="#0c0c0c" stroke-miterlimit="10" stroke-width="1.6"/><path d="m101.69 727.98h296.43v-599.13h-164.36" fill="none" stroke="#0c0c0c" stroke-miterlimit="10" stroke-width="1.6"/><ellipse cx="348.94" cy="847.71" fill="#fff" rx="33.03" ry="60.27" transform="matrix(.96428056 -.26488299 .26488299 .96428056 -212.09 122.71)"/><g stroke-miterlimit="10" stroke-width="1.6"><g stroke="#0c0c0c"><path d="m333 789.59c17.59-4.83 39 17.27 47.81 49.37s1.71 62-15.88 66.86" fill="none"/><ellipse cx="349.02" cy="848" fill="#b7b6b6" rx="25.52" ry="50.2" transform="matrix(.96428056 -.26488299 .26488299 .96428056 -212.16 122.75)"/><g fill="#fff"><ellipse cx="349.02" cy="848" rx="8.57" ry="16.86" transform="matrix(.96428056 -.26488299 .26488299 .96428056 -212.16 122.75)"/><ellipse cx="398.11" cy="890.2" rx="5.15" ry="9.75" transform="matrix(.98546725 -.16986552 .16986552 .98546725 -145.37 80.53)"/></g></g><path d="m319.77 779.9s26-15.48 10.54-40.74-43.59 34.35 4.25 22c48.38-12.52 14.24-84.28-2.81-77.89s-11.75 45.73 29.25 28.73 5.86-98.55-18.63-86.55-12.79 46.61 14.91 37 43.13-63.9 18.1-87.34-31.95 31.43-7.72 35.15 56.72-31.95 42.34-75.62c-10.12-29.29-35.38 4.79-19.29 20.24s53.91-24.68 45.39-57.07-32-13.23-28.23 2.75 54.32 17.57 63.91-32c3.19-25-26.1-24-21.84 0s51.82 12.37 66.33-5.07" fill="none" stroke="#fff"/><g stroke="#0c0c0c"><path d="m514.53 458.56-9.03 8-2 7.19 5.82 4.99 11.41-4.01z" fill="#f7c639"/><ellipse cx="548.96" cy="463.37" fill="#0c0c0c" rx="24.76" ry="9.99" transform="matrix(.67236681 -.74021813 .74021813 .67236681 -163.13 558.18)"/><g fill="#fff"><circle cx="339.08" cy="811.85" r="5.9"/><circle cx="356.34" cy="822.64" r="5.9"/><circle cx="365.7" cy="839.82" r="5.9"/><circle cx="368.91" cy="862.5" r="5.9"/><circle cx="330.31" cy="831.47" r="5.9"/><circle cx="331.95" cy="850.96" r="5.9"/><circle cx="341.76" cy="871.66" r="5.9"/></g></g></g><path d="m378.81 893.41-20.69-24.84-3.74 3.09 14.52 32.52c4.04-2.18 7.37-5.92 9.91-10.77z" fill="#fff"/><g stroke-miterlimit="10" stroke-width="1.6"><path d="m368.9 904.18c4-2.21 7.37-5.92 9.91-10.77l-20.69-24.84-3.74 3.09" fill="none" stroke="#0c0c0c"/><path d="m231.1 854.99 15.98 13.58" fill="#fff" stroke="#fff"/><path d="m310.45 869.11-34.61 2.55" fill="#fff" stroke="#fff"/><path d="m597.77 362.91-11.59 45h18.24" fill="none" stroke="#0c0c0c"/></g><path d="m597.77 426.42 27.42-6.42s-3.46 18.5-13.71 20.9-13.71-14.48-13.71-14.48z" fill="#fff"/><path d="m599.73 424.42 27.43-6.42s-3.46 18.51-13.71 20.9-13.72-14.48-13.72-14.48z" fill="none" stroke="#0c0c0c" stroke-miterlimit="10" stroke-width="1.6"/><path d="m502.44 852-75.36 13.94-36.33 62.58 17.41-.51s-.52 2.68-13 28.47c7.42 21.8 52.84 18.32 52.84 18.32l25.49-51.95 31.45-1z" fill="#fc6a63"/><path d="m390.75 928.49 17.41-.51s-.52 2.68-13 28.47c7.42 21.83 52.84 18.35 52.84 18.35l25.49-51.95 31.45-1" fill="none" stroke="#0c0c0c" stroke-miterlimit="10" stroke-width="1.6"/><path d="m546.14 843.88-43.7 8.09 2.49 69.84 47.94-1.58z" fill="#fff"/><g stroke="#0c0c0c" stroke-miterlimit="10" stroke-width="1.6"><path d="m546.14 843.88 6.73 76.35-47.94 1.58-1.18-33.27" fill="none"/><g fill="#fff"><path d="m548.96 386.72 13.12 30.22"/><path d="m556.76 376.22 14.29 30.88"/><path d="m565.78 367.7 13.12 29.29"/></g></g><path d="m109.51 668.97 143.36-210.59-5.05-12.83-161.13 91.68z" fill="#ffd366" opacity=".75"/><g stroke-miterlimit="10" stroke-width="1.6"><g fill="none" stroke="#fff"><path d="m216.02 304.59h182.09"/><path d="m255.88 521.99h142.23"/><path d="m252 527.55v200.43"/><path d="m252 160.49v217.6"/></g><g stroke="#0c0c0c"><ellipse cx="608.7" cy="359.79" fill="#0c0c0c" rx="2.86" ry="6.65" transform="matrix(.99374845 -.11164238 .11164238 .99374845 -36.36 70.21)"/><ellipse cx="588.79" cy="360.11" fill="#0c0c0c" rx="2.86" ry="6.65" transform="matrix(.99374845 -.11164238 .11164238 .99374845 -36.52 67.99)"/><path d="m716.79 304.59 10.01 33.56" fill="#b7632a"/></g></g><path d="m169.78 204.47h137.29l-47.51-10.65 4.26-18.11h-36.3l-5.24 9.86-29.82-9.86z" fill="#fff"/><g stroke="#0c0c0c" stroke-miterlimit="10" stroke-width="1.6"><g fill="#fff"><path d="m408.16 927.98 16.07-34.33"/><path d="m404.45 967.35 32.15-71.22"/><path d="m416.92 973.06 33.66-70.93"/><path d="m431.47 975 32.35-66.64"/></g><g fill="none"><path d="m684.44 635.31-17.19-6.38"/><path d="m751.72 805.85 48.15-8.11"/><path d="m653.29 439.16s-15.57 13.77-27.56 16.41"/><path d="m705.18 480.68s15.88 33.74-42.17 82.21"/><path d="m615.07 577.54s-16-24.7 3.5-55.76"/><path d="m618.57 605.49a864.43 864.43 0 0 0 -16.41 85.21"/><path d="m695.2 485.59s-1.72 27-19.35 38.57"/><path d="m494.92 707.89-17.8 107.1"/></g></g></svg>