<svg viewBox="0 0 1000 1000" xmlns="http://www.w3.org/2000/svg" xmlns:xlink="http://www.w3.org/1999/xlink"><clipPath id="a"><path d="m323.51 100.32-199.69 255.01 11.52 37.3 505.63-57.07z"/></clipPath><path d="m382.49 25 382.89 36.65 101.27 268.12-16.4 456.19-245.93 189.04-302.85-44.37-177.65-575.3z" fill="#02151e" stroke="#141414" stroke-linecap="round" stroke-miterlimit="10" stroke-width="1.45"/><path d="m865.22 369.58-98.71-232.45-29.67 279.44-101.66-339.49-48.72 346.99-163.46-369.17-35.69 139.85 175.53 397.36 290.44 109.72z" fill="#123b54"/><path d="m697.48 151.51 199.49 425.75-214.88 9.38z" fill="#204e70"/><path d="m728.2 879.78 122-93.82 3.68-102.11c-91.36-77.65-250-80.41-250-80.41z" fill="#3f80b2"/><g fill="none" stroke="#3f80b2" stroke-linecap="round" stroke-miterlimit="10" stroke-width="1.45"><path d="m698.27 154.56 137.32 533.3"/><path d="m695.53 206.65 20.5 16.88"/><path d="m693.47 284.89 48.45 39.2"/><path d="m690.78 372.01 73.05 37.16"/><path d="m686.89 450.96 99.91 47.41"/><path d="m685.11 532.95 122.16 43.53"/><path d="m736.2 234.15-7.91 37.01"/><path d="m766.51 298.84-16.23 53.96"/><path d="m807.27 390.59-30.98 66.95"/><path d="m846.77 470.14-48.83 71.49"/></g><path d="m526.19 64.54 227.73 486.04-245.29 10.71z" fill="#295c89"/><g fill="none" stroke="#3f80b2" stroke-linecap="round" stroke-miterlimit="10" stroke-width="1.45"><path d="m527.09 68.02 148.11 575.2"/><path d="m523.97 127.5 23.4 19.27"/><path d="m521.61 216.81 55.32 44.76"/><path d="m535.6 424.05 94.51 44.03"/><path d="m548.62 513.02 102.91 36.67"/><path d="m570.4 158.88-9.03 42.26"/><path d="m605 232.74-18.54 61.6"/><path d="m666.58 364.17-45.04 70.64"/><path d="m708.65 453.96-64.59 70.64"/></g><path d="m537.77 378.02-399.79 23.17 163.49 529.44 302.85 44.37 131.46-101.05z" fill="#053a51"/><path d="m747.72 903.86-209.95-525.84" fill="none" stroke="#141414" stroke-linecap="round" stroke-miterlimit="10" stroke-width="1.45"/><path d="m279.88 860.72 340.35-77.89-124.99-334.91-327.11 50.9z" fill="#f9c626"/><path d="m620.23 782.83-124.99-334.91-327.11 50.9" fill="none" stroke="#141414" stroke-linecap="round" stroke-miterlimit="10" stroke-width="1.45"/><path d="m440.12 628.03-9.05-87.16 5.81-2.17 9.02 13.74 18.81 1.81v19.53l-3.95 7.6 11.54 43.76z" fill="#fff"/><path d="m440.12 628.03-9.05-87.16 5.81-2.17 10.65 17.72" fill="none" stroke="#141414" stroke-linecap="round" stroke-miterlimit="10" stroke-width="1.45"/><g fill="#fff"><path d="m394.18 672.52 66.58 129.5-173.27 36.87-49.19-172.16 57.14-44.12 58.6-10.13" stroke="#141414" stroke-linecap="round" stroke-miterlimit="10" stroke-width="1.45"/><path d="m389.68 463.24-86.74 304.89 26.53 3.14 86.9-312.38z" opacity=".58"/><path d="m424.73 458.89-75.2 282.72 7.35 5.87 73.37-288.59z" opacity=".58"/><path d="m365.93 608.52 78.16 93.31-16.27-85.01 50.27-3.62 22.03 150.64-19.89 32.19-31.8 8.5-75.04-146.48"/></g><path d="m365.93 608.52 78.16 93.31-16.27-85.01 50.27-3.62" fill="none" stroke="#141414" stroke-linecap="round" stroke-miterlimit="10" stroke-width="1.45"/><g clip-path="url(#a)"><path d="m323.51 100.32-199.69 255.01 11.52 37.3 505.63-57.07z" fill="#084960"/><g fill="none" stroke="#141414" stroke-linecap="round" stroke-miterlimit="10" stroke-width="1.45"><path d="m269.16 114.7 312.97 238.1"/><path d="m226.09 157.76 312.97 238.11"/><path d="m183.03 200.83 312.97 238.11"/><path d="m139.96 243.9 312.97 238.11"/><path d="m183.23 152.7 285.96-36.29"/><path d="m183.23 198.16 285.96-36.3"/><path d="m183.23 243.61 301.01-38.2"/><path d="m161.58 291.81 379.81-48.2"/><path d="m183.23 334.52 393.7-49.97"/></g></g><path d="m640.97 335.56-317.46-235.24" fill="none" stroke="#141414" stroke-linecap="round" stroke-miterlimit="10" stroke-width="1.45"/><path d="m351.14 616.46-6.87 60.05 15.55 61.11 42.68-14.47-37.98-119.03h-9.04" fill="#fff"/><path d="m380.54 654.32-16.02-50.2h-9.04" fill="none" stroke="#141414" stroke-linecap="round" stroke-miterlimit="10" stroke-width="1.45"/><path d="m351.14 616.46-6.87 60.05 15.55 61.11 42.68-14.47-13.43-42.1" fill="none" stroke="#141414" stroke-linecap="round" stroke-miterlimit="10" stroke-width="1.45"/><path d="m137.98 290.56 60.54 22.36 12.29 28.67h12.3l15.19-23.35 36.89 6.71 11.57 20.98 35.45-11.58 25.32 5.07 10.56 13.38-255.06 27.07" fill="#fff"/><g stroke="#141414" stroke-linecap="round" stroke-miterlimit="10" stroke-width="1.45"><g fill="none"><path d="m286.77 345.93 35.44-11.58"/><path d="m210.81 341.59h12.3l15.19-23.35 36.89 6.71"/><path d="m137.98 290.57 60.54 22.35"/></g><path d="m361.92 623.18 6.09 62-56.18 17.35-38.45-64.01v-22.06l42.32-12.34h44.12" fill="#fff"/></g><path d="m374.29 355.62 19.89-15.48 24.24-4.34 18.46-17.56 47.36-5.32 7.23 11.17h25.54l10.08-19.6h28.04l6.24 13.75 15.56-8.48 38.24-5.27 25.8 31.07" fill="#fff"/><g fill="none" stroke="#141414" stroke-linecap="round" stroke-miterlimit="10" stroke-width="1.45"><path d="m561.37 318.24 15.56-8.48 38.24-5.27"/><path d="m491.47 324.09h25.54l10.08-19.6h28.04"/><path d="m374.29 355.62 19.89-15.48 24.24-4.34 18.46-17.56 47.36-5.32"/></g><path d="m147.5 432.01 522.75-60.02-16.21-53.75-523.59 58.57z" fill="#08536d"/><path d="m108.43 436.49 561.82-64.5-16.21-53.75-537.51 60.12" fill="none" stroke="#141414" stroke-linecap="round" stroke-miterlimit="10" stroke-width="1.45"/><path d="m277.45 852.85 357.73-82.32 8.88 33.76-355.01 86.1" fill="#08536d"/><path d="m277.45 852.85 357.73-82.32 8.88 33.76-378.77 91.86" fill="none" stroke="#141414" stroke-linecap="round" stroke-miterlimit="10" stroke-width="1.45"/><path d="m338.61 528.85 15.43 58.43-24.6 9.65 8.81 31.1-5.89 34.37-32.4-29.79-17.78-87.28z" fill="#fff"/><path d="m338.25 628.03-5.89 34.37-32.4-29.79-17.78-87.28 56.43-16.48" fill="none" stroke="#141414" stroke-linecap="round" stroke-miterlimit="10" stroke-width="1.45"/><path d="m354.04 587.28-24.6 9.65" fill="none" stroke="#141414" stroke-linecap="round" stroke-miterlimit="10" stroke-width="1.45"/><path d="m326.21 511.16-53.33 36.58s-14.95-17.36-11.58-32.74 31.93-25 64.91-3.84z" fill="#fff"/><path d="m326.21 511.16-53.33 36.58s-14.95-17.36-11.58-32.74c1.52-6.92 8.09-12.65 17.86-15" fill="none" stroke="#141414" stroke-linecap="round" stroke-miterlimit="10" stroke-width="1.45"/><path d="m464.71 547.38.48 37.25h20.25v-5.78l-14.1-.12-.87-24.74 8.95.86-.24-7.47z" fill="#fff" stroke="#141414" stroke-linecap="round" stroke-miterlimit="10" stroke-width="1.45"/><path d="m329.93 513.58-11.82-12.27-61.02 38.71 12.07 10.13z" fill="#fff"/><path d="m318.11 501.31-61.02 38.71 12.07 10.13 60.77-36.57" fill="none" stroke="#141414" stroke-linecap="round" stroke-miterlimit="10" stroke-width="1.45"/><path d="m354.04 523.63-55.46 33.27 2.89 38.58-14.85-28.37 6.21 30.49-15.95-8.39-7.72-39.06 13.02-9.16 60.28-40.99z" fill="#fff"/><path d="m354.04 523.63-55.46 33.27 2.89 38.58-14.85-28.37 6.21 30.49-15.95-8.39-7.72-39.06 13.02-9.16 52.22-35.51" fill="none" stroke="#141414" stroke-linecap="round" stroke-miterlimit="10" stroke-width="1.45"/><circle cx="257.09" cy="507.1" fill="#fff" r="8.2" stroke="#141414" stroke-linecap="round" stroke-miterlimit="10" stroke-width="1.45"/><path d="m476.76 554.44-25.07-1.8v15.11l24.38 1.93z" fill="#fff"/><path d="m451.69 552.64v15.11l24.38 1.93.69-15.24" fill="none" stroke="#141414" stroke-linecap="round" stroke-miterlimit="10" stroke-width="1.45"/><path d="m476.39 562.64-24.7-2.51" fill="#fff" stroke="#141414" stroke-linecap="round" stroke-miterlimit="10" stroke-width="1.45"/><path d="m460.76 581.38-15.7-1.57 1.2-10.8 17.97 1.24.48 3.53z" fill="#fff"/><path d="m464.71 568.36v5.42l-3.95 7.6-15.7-1.57 1.32-11.94" fill="none" stroke="#141414" stroke-linecap="round" stroke-miterlimit="10" stroke-width="1.45"/><path d="m464.71 573.78-18.97-.12" fill="#fff" stroke="#141414" stroke-linecap="round" stroke-miterlimit="10" stroke-width="1.45"/><path d="m481.27 578.76-2.82-38 35.45-1.57-1.31 38.95a15.41 15.41 0 0 1 -15.48 14.62 15.47 15.47 0 0 1 -15.84-14z" fill="#fff"/><path d="m512.59 578.17a15.41 15.41 0 0 1 -15.48 14.62 15.47 15.47 0 0 1 -15.84-14l-2.82-38 35.45-1.57" fill="none" stroke="#141414" stroke-linecap="round" stroke-miterlimit="10" stroke-width="1.45"/><ellipse cx="496.17" cy="539.8" fill="#fff" rx="17.72" ry="3.56" transform="matrix(.99869273 -.05111586 .05111586 .99869273 -26.98 26.1)"/><path d="m513.87 538.89c.1 2-7.74 4-17.51 4.46s-17.78-.69-17.88-2.65" fill="none" stroke="#141414" stroke-linecap="round" stroke-miterlimit="10" stroke-width="1.45"/><path d="m431.07 500c19.41 16.4 35.09-9.16 41.23 4.82s-1.27 27.81 22.93 24c0 0-11.47.57-4.72-18.24s-37.13-14.47-20.26-45.81c3.07-5.7 5.85-10.4 8.34-14.29l-53.86 8.38c-3.49 11.9-6.2 30.54 6.34 41.14z" fill="#fff"/><g stroke="#141414" stroke-linecap="round" stroke-miterlimit="10" stroke-width="1.45"><path d="m430.25 458.89c-3.49 11.87-6.2 30.51 6.34 41.11 19.41 16.4 35.08-9.16 41.23 4.82s-1.27 27.81 22.93 24" fill="none"/><g fill="#fff"><path d="m349.53 470.59 102.16 342.17"/><path d="m230.82 701.83 329.75-78.85"/></g></g><path d="m238.3 812.76 31.83-16.67 21.22 1.93 4.82 25.56 14.47-25.56h19.77l26.04 18.71 16.94-12.2 13.92 2.17 8.38 9.17 34.54-11.34 17.84-27.73 26.04-6.27 21.13 18.65 15.76-12.86 10.37 5.3 11.58-11.09h10.6l5.31 10.61 13.98-3.86-2.27-13.5h15.78l5.78 6.75 35.05 4.14-361.52 84.11" fill="#fff"/><g stroke="#141414" stroke-linecap="round" stroke-miterlimit="10" stroke-width="1.45"><g fill="none"><path d="m617.19 774.67-361.53 84.11"/><path d="m548.86 781.14 13.98-3.86-2.27-13.5h15.78l5.78 6.75"/><path d="m521.37 781.62 11.58-11.09h10.6"/><path d="m495.23 789.18 15.77-12.86"/><path d="m395.69 815.87 34.54-11.34 17.84-27.73 26.04-6.27"/><path d="m356.45 816.73 16.94-12.2 13.92 2.17"/><path d="m296.17 823.58 14.47-25.56h19.77"/><path d="m238.3 812.76 31.83-16.67 21.22 1.93"/></g><path d="m287.13 672.52 37.61 124.05" fill="#fff"/><g fill="none"><path d="m429.97 628.03 50.26-5.05"/><path d="m313.35 603.24 24.73-9.7"/><path d="m402.5 723.15 27.73 81.38"/><path d="m329.93 550.15 14.34 23.51-9.4 3.01"/></g><g fill="#141414"><circle cx="318.38" cy="556.45" r="1.72"/><circle cx="338.61" cy="550.15" r="1.72"/><path d="m327.48 583.27a4.88 4.88 0 0 0 9.73-.8z"/></g></g><g fill="#fff"><path d="m203.1 507.1-12.06 40.64 6.03 15.67 33.75-63.41z" opacity=".74"/><path d="m236.37 500.48-34.24 80.9 2.9 10.73 40.99-92.11z" opacity=".74"/><path d="m559.67 632.61-38.3 131.23 11.09-.06 33.04-113.8z" opacity=".58"/><path d="m591.78 80.7c4.65 0 4.66-7.24 0-7.24s-4.66 7.24 0 7.24z"/><path d="m488.58 109.63c4.65 0 4.66-7.23 0-7.23s-4.66 7.23 0 7.23z"/><path d="m381.52 82.63c4.66 0 4.67-7.24 0-7.24s-4.66 7.24 0 7.24z"/><path d="m737.41 118.31c4.66 0 4.66-7.23 0-7.23s-4.66 7.23 0 7.23z"/><path d="m588.88 130a1.81 1.81 0 0 0 0-3.62 1.81 1.81 0 0 0 0 3.62z"/><path d="m695.94 95.29a1.81 1.81 0 0 0 0-3.62 1.81 1.81 0 0 0 0 3.62z"/><path d="m682.44 137.72a1.81 1.81 0 0 0 0-3.61 1.81 1.81 0 0 0 0 3.61z"/><path d="m740.31 163.76a1.81 1.81 0 0 0 0-3.61 1.81 1.81 0 0 0 0 3.61z"/><path d="m759.6 107.82a1.81 1.81 0 0 0 0-3.61 1.81 1.81 0 0 0 0 3.61z"/><path d="m660.25 219.7a1.81 1.81 0 0 0 0-3.61 1.81 1.81 0 0 0 0 3.61z"/><path d="m505 175.34a1.81 1.81 0 0 0 0-3.62 1.81 1.81 0 0 0 0 3.62z"/><path d="m444.21 162.8a1.81 1.81 0 0 0 0-3.62 1.81 1.81 0 0 0 0 3.62z"/><path d="m432.64 103a1.81 1.81 0 0 0 0-3.62 1.81 1.81 0 0 0 0 3.62z"/><path d="m478.94 75a1.81 1.81 0 0 0 0-3.62 1.81 1.81 0 0 0 0 3.62z"/><path d="m376.7 115.54a1.81 1.81 0 0 0 0-3.62 1.81 1.81 0 0 0 0 3.62z"/><path d="m415.28 43.2a1.81 1.81 0 0 0 0-3.61 1.81 1.81 0 0 0 0 3.61z"/><path d="m662.18 300.72a1.81 1.81 0 0 0 0-3.62 1.81 1.81 0 0 0 0 3.62z"/><path d="m816.5 294.93a1.81 1.81 0 0 0 0-3.62 1.81 1.81 0 0 0 0 3.62z"/><path d="m595.64 229.35a1.81 1.81 0 0 0 0-3.62 1.81 1.81 0 0 0 0 3.62z"/><path d="m582.13 410.67a1.81 1.81 0 0 0 0-3.62 1.81 1.81 0 0 0 0 3.62z"/><path d="m671.83 455a1.81 1.81 0 0 0 0-3.62 1.81 1.81 0 0 0 0 3.62z"/><path d="m723 516.76a1.81 1.81 0 0 0 0-3.62 1.81 1.81 0 0 0 0 3.62z"/><path d="m810.71 462.75a1.81 1.81 0 0 0 0-3.62 1.81 1.81 0 0 0 0 3.62z"/><path d="m846.4 532.19a1.81 1.81 0 0 0 0-3.62 1.81 1.81 0 0 0 0 3.62z"/><path d="m728.73 447.32a1.81 1.81 0 0 0 0-3.62 1.81 1.81 0 0 0 0 3.62z"/><path d="m833.86 368.23a1.81 1.81 0 0 0 0-3.62 1.81 1.81 0 0 0 0 3.62z"/><path d="m769.24 204.27a1.81 1.81 0 0 0 0-3.62 1.81 1.81 0 0 0 0 3.62z"/><path d="m636.14 166.66a1.81 1.81 0 0 0 0-3.62 1.81 1.81 0 0 0 0 3.62z"/><path d="m725.84 651.78a1.81 1.81 0 0 0 0-3.61 1.81 1.81 0 0 0 0 3.61z"/><path d="m804 695.18a1.81 1.81 0 0 0 0-3.61 1.81 1.81 0 0 0 0 3.61z"/><path d="m761.52 754a1.81 1.81 0 0 0 0-3.62 1.81 1.81 0 0 0 0 3.62z"/><path d="m768.28 676.86a1.81 1.81 0 0 0 0-3.62 1.81 1.81 0 0 0 0 3.62z"/><path d="m677.62 659.5a1.81 1.81 0 0 0 0-3.62 1.81 1.81 0 0 0 0 3.62z"/><path d="m708.48 719.3a1.81 1.81 0 0 0 0-3.62 1.81 1.81 0 0 0 0 3.62z"/><path d="m809.75 756.91a1.81 1.81 0 0 0 0-3.62 1.81 1.81 0 0 0 0 3.62z"/><path d="m760.56 824.42a1.81 1.81 0 0 0 0-3.61 1.81 1.81 0 0 0 0 3.61z"/><path d="m836.75 784.88a1.81 1.81 0 0 0 0-3.62 1.81 1.81 0 0 0 0 3.62z"/><path d="m838.68 686.5a1.81 1.81 0 0 0 0-3.61 1.81 1.81 0 0 0 0 3.61z"/><path d="m766.35 608.38a1.81 1.81 0 0 0 0-3.61 1.81 1.81 0 0 0 0 3.61z"/><path d="m777 361.48a1.81 1.81 0 0 0 0-3.62 1.81 1.81 0 0 0 0 3.62z"/><path d="m714.27 277.57a1.81 1.81 0 0 0 0-3.62 1.81 1.81 0 0 0 0 3.62z"/><path d="m543.55 215.72c4.66 0 4.67-7.23 0-7.23s-4.66 7.23 0 7.23z"/><path d="m614.92 507c4.66 0 4.67-7.23 0-7.23s-4.66 7.23 0 7.23z"/><path d="m695.94 636.23c4.65 0 4.66-7.23 0-7.23s-4.66 7.23 0 7.23z"/><path d="m746.09 714.35c4.66 0 4.66-7.23 0-7.23s-4.66 7.23 0 7.23z"/><path d="m726.8 793.44c4.66 0 4.67-7.23 0-7.23s-4.66 7.23 0 7.23z"/><path d="m724.87 372.93c4.66 0 4.67-7.23 0-7.23s-4.66 7.23 0 7.23z"/><path d="m792.39 264c4.65 0 4.66-7.24 0-7.24s-4.67 7.24 0 7.24z"/></g></svg>