<svg viewBox="0 0 1000 1000" xmlns="http://www.w3.org/2000/svg" xmlns:xlink="http://www.w3.org/1999/xlink"><clipPath id="a"><path d="m549.42 947.37-85.15-225.1 180.08-9.59 13.42-35.01-55.3-129.01-62.84 19.29 44.29 87.67-229.84 8.33-83.31 8.93-34.53 132.36 68.58 35.01 11.58 62.76 104.98 38.54 88.52 32.51 3.3.39z"/></clipPath><path d="m191.17 857.03 230.21 84.52-162.12-481.59z" fill="#152a44" stroke="#0f0f0f" stroke-miterlimit="10" stroke-width="1.44"/><path d="m835.69 733.3-67.14-124.68 41.24-261.84-111.25-304.04-202.49 44.12-244.94-61.86-86.8 142.43 79.5 382.67 72.59 352.91 196.07 71.99z" fill="#935448"/><path d="m776.93 777.24-110.07-507.6-329.91 29.37 106.6 543.23 80.81 123.87z" fill="#0f0f0f"/><path d="m356.13 318.97 130.84 646.67 25.5 9.36 247.29-184.92-107.35-497.05z" fill="#fcc438"/><path d="m759.76 790.08-107.35-497.05-296.28 25.94 130.84 646.67 25.5 9.36" fill="none" stroke="#0f0f0f" stroke-miterlimit="10" stroke-width="1.44"/><path d="m663 73.52-58.5 71.94 9.98 82.6 76.34-7.79z" fill="#ef5959"/><path d="m604.5 145.46 58.5-71.94-347.2 38.37-62.82 71 23.61 77.52c0 .16 0 .33.05.5 2.31 16.12 19.18 27 37.68 24.39 16.8-2.4 29.16-15.18 29.56-29.58h.38c2.51 15.92 19.26 26.66 37.62 24 17.3-2.48 29.9-16 29.56-30.89l.69-.07c4.69 13.34 19.92 21.82 36.45 19.46 15.42-2.22 27.15-13.22 29.24-26.22l.92-.09c0 .16 0 .32.05.48 2.31 16.12 19.18 27 37.68 24.4 17.63-2.53 30.37-16.48 29.52-31.75h.39a26.63 26.63 0 0 0 .25 3.77c2.31 16.13 19.18 27 37.68 24.4s32.62-17.77 30.31-33.89c0-.34.06.34 0 0l-.14-1.23z" fill="#f98787"/><g stroke-miterlimit="10" stroke-width="1.44"><g fill="none"><path d="m663 73.52-363.27 40.14" stroke="#0f0f0f"/><path d="m276.59 260.38c0 .16 0 .33.05.5 2.31 16.12 19.18 27 37.68 24.39 16.8-2.4 29.16-15.18 29.56-29.58h.38c2.51 15.92 19.26 26.66 37.62 24 17.3-2.48 29.9-16 29.56-30.89l.69-.07c4.69 13.34 19.92 21.82 36.45 19.46 15.42-2.19 27.15-13.19 29.24-26.19l.92-.09c0 .16 0 .32.05.48 2.31 16.12 19.18 27 37.68 24.4 17.63-2.53 30.37-16.48 29.52-31.75h.39a26.63 26.63 0 0 0 .25 3.77c2.31 16.13 19.18 27 37.68 24.4s32.48-19 30.17-35.12" stroke="#0f0f0f"/><path d="m270.9 241.7c2.3 16.12 22.6 26.23 41 23.58 16.71-2.41 27.17-14 27.56-28.41 2.5 15.92 21.37 25.45 39.63 22.82 17.21-2.48 29.74-16 29.4-30.9l.69-.07c4.67 13.35 19.81 21.83 36.26 19.46 15.37-2.21 27-13.2 29.07-26.16l.92-.1c0 .16 0 .32.05.48 2.3 16.13 19.08 27 37.47 24.4 17.54-2.53 30.21-16.48 29.36-31.74l-.76-3.1c0 1.25 1.23 5.56 1.41 6.83 2.29 16.12 19.07 27 37.47 24.39s34.34-17.86 32-34" stroke="#fff"/></g><g stroke="#0f0f0f"><g fill="none"><path d="m546.38 235.01-15.26-72.77 46.52-64.74"/><path d="m614.48 228.06-9.98-93.78"/><path d="m478.79 242.4-14.32-80.16 43.46-60.49"/><path d="m412.48 249.92-14.33-80.16 43.46-60.49"/><path d="m342.94 256.31-14.33-80.16 43.46-60.49"/></g><path d="m376.27 539.67 10.08 19.08-7.68 16.3-18.22-35.38z" fill="#0f0f0f"/><path d="m372.92 551.55 26.85 57.07-23.97 6.71 26.37 57.55-44.12 4.79-34.53-119.4z" fill="#fff"/><path d="m347.02 553.47 9.11 48.91-15.34-15.34-2.81 21.22-14.46 1.8-16.3-23.02 17.97-23.02z" fill="#0f0f0f"/><g fill="none"><path d="m542.15 569.15-86.87 10.37-53.63-228.96 86.84-10.51z"/><path d="m666.86 552.3-86.87 10.37-53.63-228.96 86.84-10.51z"/><path d="m531.42 941.55-71.01-327.15 86.83-10.51 76.86 337.66"/></g></g></g><path d="m506.06 428.55 16.72-57.55 11.47 60.42 53.99-31.65-29.49 43.16 50.23 23.74-42.32 12.95 12.4 40.28-35.35-15.13 7.12 28.08-31.65-38.84-4.31 54.65-14.87-36.15-37.4 20.34 21.73-56.11-44.59-4.31 49.71-19.43-37.17-51.07z" fill="#fff"/><path d="m509.87 425.8 16.72-57.55 11.48 60.42 53.98-31.65-29.49 43.16 50.23 23.74-42.32 12.95 12.4 40.28-35.34-15.13 7.12 28.08-31.65-38.85-4.32 54.66-14.87-36.15-37.4 20.34 21.73-56.11-44.59-4.31 49.71-19.43-37.16-51.07z" fill="none" stroke="#0f0f0f" stroke-miterlimit="10" stroke-width="1.44"/><path d="m659.45 924.17-74.33-326.62 86.83-10.51 62.74 275.66" fill="none" stroke="#0f0f0f" stroke-miterlimit="10" stroke-width="1.44"/><path d="m404.09 540-83.93 30.42-29.25-18.91 24.94-42.68s124.69 14.91 88.24 31.17z" fill="#f9b77a"/><path d="m315.85 508.87s17.15 2.05 36.87 5.45c33.45 5.78 74.3 15.46 51.37 25.72l-83.93 30.42-29.25-18.91" fill="none" stroke="#0f0f0f" stroke-miterlimit="10" stroke-width="1.44"/><path d="m336.95 669.52 10.05-30.06 70.53 22.19-44.13 23.22z" fill="#fff"/><path d="m341.75 637.8 75.78 23.85-44.13 23.22-36.45-15.35" fill="none" stroke="#0f0f0f" stroke-miterlimit="10" stroke-width="1.44"/><g clip-path="url(#a)"><path d="m549.42 947.37-85.15-225.1 180.08-9.59 13.42-35.01-55.3-129.01-62.84 19.29 44.29 87.67-229.84 8.33-83.31 8.93-34.53 132.36 68.58 35.01 11.58 62.76 104.98 38.54 88.52 32.51 3.3.39z" fill="#6bc1b0"/><g fill="none" stroke="#fff" stroke-miterlimit="10" stroke-width="1.44"><path d="m194.74 581.2 80.94 490.65"/><path d="m220.73 576.91 80.94 490.66"/><path d="m246.72 572.62 80.94 490.66"/><path d="m272.71 568.34 80.93 490.65"/><path d="m298.7 564.05 80.93 490.66"/><path d="m324.68 559.76 80.94 490.66"/><path d="m350.67 555.48 80.94 490.65"/><path d="m376.66 551.19 80.93 490.66"/><path d="m402.65 546.9 80.93 490.66"/><path d="m428.63 542.62 80.94 490.65"/><path d="m454.62 538.33 80.94 490.66"/><path d="m480.61 534.04 80.94 490.66"/><path d="m506.6 529.76 80.93 490.65"/><path d="m532.59 525.47 80.93 490.66"/><path d="m558.57 521.18 80.94 490.66"/><path d="m584.56 516.9 80.94 490.65"/><path d="m610.55 512.61 80.93 490.65"/><path d="m636.54 508.32 80.93 490.66"/><path d="m251.52 1075.78 490.65-80.94"/><path d="m247.23 1049.79 490.66-80.93"/><path d="m242.94 1023.8 490.66-80.93"/><path d="m238.66 997.82 490.65-80.94"/><path d="m234.37 971.83 490.65-80.94"/><path d="m230.08 945.84 490.66-80.93"/><path d="m225.8 919.85 490.65-80.93"/><path d="m221.51 893.87 490.65-80.94"/><path d="m217.22 867.88 490.66-80.94"/><path d="m212.94 841.89 490.65-80.94"/><path d="m208.65 815.9 490.65-80.93"/><path d="m204.36 789.91 490.66-80.93"/><path d="m200.07 763.93 490.66-80.94"/><path d="m195.79 737.94 490.65-80.94"/><path d="m191.5 711.95 490.66-80.93"/><path d="m187.21 685.96 490.66-80.93"/><path d="m182.93 659.98 490.65-80.94"/><path d="m178.64 633.99 490.66-80.94"/></g></g><path d="m236.24 805.24 68.58 35.01 11.58 62.76 104.98 38.54 88.52 32.51 3.3.39 36.22-27.08-85.15-225.1 180.08-9.59 13.42-35.01-55.3-129.01-62.84 19.29" fill="none" stroke="#0f0f0f" stroke-miterlimit="10" stroke-width="1.44"/><path d="m607.3 655.62-253.22 8.33-83.31 8.93" fill="none" stroke="#0f0f0f" stroke-miterlimit="10" stroke-width="1.44"/><path d="m542.2 498.8 10.55-30.69-31.17-11.03-13.37 15.35h-8.21l-10.55 16.78 24.94 28.77 25.24 49.97 39.43-12.1z" fill="#fff"/><g stroke="#0f0f0f" stroke-miterlimit="10" stroke-width="1.44"><path d="m539.63 567.95 39.43-12.1-36.86-57.05 10.55-30.69-31.17-11.03-13.37 15.35h-8.21l-10.55 16.78 24.94 28.77" fill="none"/><path d="m304.82 840.24-20.14-117.01" fill="#fff"/><circle cx="687.78" cy="570.46" fill="#fff" r="13.95"/><circle cx="687.78" cy="570.46" fill="#0f0f0f" r="13.95"/><path d="m373.4 564.81 20.62 20.31-16.78 3.84" fill="#fff"/><path d="m311.42 564.81 82.6-31.96" fill="none"/><path d="m495.77 487.41 12.44-14.98" fill="#fff"/><path d="m542.2 498.8-6.76-11.39 7.66-10.31" fill="#fff"/><g fill="#fcc438"><path d="m544.01 465.02-16.62 19.99"/><path d="m528.17 459.41-19.06 22.73"/><path d="m536.14 462.23-17.5 21.35"/></g></g><path d="m572.41 530.32-44.61 14.22 11.83 23.41 49.22-15.11z" fill="#fff"/><g stroke-miterlimit="10" stroke-width="1.44"><g fill="none"><path d="m539.63 567.95 49.22-15.11-16.44-22.52-48.91 14.22" stroke="#0f0f0f"/><g stroke="#fff"><path d="m805.48 335-83.93 14.66 8.64 35.49 99.74-14.15"/><path d="m759.76 380.95 5.91 31.05 64.26-10.55"/><path d="m715.45 493.73 32-5.78 7.67 30.51-33.57 3.41"/><path d="m794.85 275.81-50.28 5.75 4.8 25.9 66.18-7.67"/><path d="m786.03 338.4 8.82 37.58"/><path d="m328.61 360.07-51.12 15.91 7.67 28.35 51.79-13.43z"/><path d="m311.42 428.31-5.15-29.45-43.17 14.72 8.63 24.32z"/><path d="m180.86 285.67 45.07-10.82 7.68 30.69-42.2 11.51"/></g></g><g stroke="#0f0f0f"><circle cx="382.63" cy="600.17" fill="#0f0f0f" r="3.72"/><path d="m354.27 565.94 13.85-1.13" fill="none"/><circle cx="367.29" cy="572.51" fill="#0f0f0f" r="2.05"/></g></g></svg>