<svg viewBox="0 0 1000 1000" xmlns="http://www.w3.org/2000/svg" xmlns:xlink="http://www.w3.org/1999/xlink"><clipPath id="a"><path d="m413.41 451.85-44.91-30.9-56.77 30.9 18.63 255.92 37.17-1.45 5.28-196.98 88.74-6.47.88 86.33 39.02-1.51 7.53-135.84z"/></clipPath><path d="m791.75 780.98 87.67-204.09-25.87-228.52-510.21-202.64-222.76 406.73 281.69 403.86z" fill="#81b753"/><path d="m791.75 780.98 87.67-204.09-25.87-228.52-510.21-202.64-222.76 406.73 281.69 403.86z" fill="#81b753"/><path d="m343.34 145.73 484.34-35.93 25.87 238.57z" fill="#b8d353"/><path d="m827.68 109.8-415.35-84.8-68.99 120.73z" fill="#9bebf9"/><path d="m853.55 362.19 25.87 214.7-87.67 204.09-389.48 175.34-281.69-403.86z" fill="#379372"/><path d="m855.01 374.27-402.44 422.51-16.92 144.51 356.1-160.31 87.67-204.09z" fill="#c5c9c5"/><path d="m452.57 680.16h253.91v59.61h-253.91z" fill="#fff"/><path d="m385.02 739.78h253.91v67.07h-253.91z" fill="#e3e5e3"/><path d="m663.53 525.71h145.89v48.5h-145.89z" fill="#e3e5e3"/><path d="m605.08 574.22h177.09v50.61h-177.09z" fill="#fff"/><path d="m693.63 480.96h131.52v44.75h-131.52z" fill="#fff"/><path d="m736.47 443.94h107.02v37.02h-107.02z" fill="#e3e5e3"/><path d="m771.64 411.23h98.95v32.71h-98.95z" fill="#fff"/><path d="m859.49 383.59h-55.22v27.64h58.07z" fill="#e3e5e3"/><path d="m825.15 362.19h45.44v21.4h-45.44z" fill="#fff"/><path d="m855.43 344.28h-14.47v17.91h16.32z" fill="#e3e5e3"/><g fill="#fff"><path d="m829.84 326.12v-18.17h-46.74v-18.16h-50.35v-14.58h-44.1v-13.82h-30.93v-14.5h-61.84v14.5h30.92v13.82h44.1v18.16h38.46v14.58h36.2v18.17h37.54v18.16h80.58v-18.16z"/><path d="m556.67 231.19h61.85v15.38h-61.85z"/><path d="m519.45 218.04h61.85v12.82h-61.85z"/><path d="m551.2 217.95v-15.4h-30.93v-15.4h-30.92v-11.14h-30.92v-10.78h-30.93v-10.21h-30.92v-9.29h-61.85v9.29h30.92v10.21h30.93v10.78h30.92v12.15h30.93v14.39h30.92v15.4z"/></g><path d="m557.97 624.83h177.09v55.33h-177.09z" fill="#e3e5e3"/><path d="m252.73 806.85h308.59v67.07h-308.59z" fill="#fff"/><path d="m402.27 956.32 84.79-38.18v-44.22h-142.27z" fill="#e3e5e3"/><path d="m343.34 145.73 23.23-1.73 474.39 200.28v7.6l-177.43 49.4-328.8-239.83z" fill="#81b753"/><path d="m343.34 145.73 477.78-56.06 6.56 20.13z" fill="#fff"/><circle cx="435.65" cy="73.39" fill="#f4a925" r="16.29"/><g fill="#b8d353"><path d="m516.46 240.56-13.02 39.57h18.29z"/><path d="m538.08 263.87-5.77 17.55h8.11z"/><path d="m705.8 301.24-14.52 73.02 32.44-3.96z"/></g><g fill="#f4eb53"><path d="m761.09 199.03-11.95 60.11 26.7-3.26z"/><path d="m634.79 152.31-6.77 34.07 15.13-1.85z"/><path d="m728.99 215.88-6.78 34.07 15.14-1.85z"/><path d="m796.76 122.75-6.78 34.07 15.14-1.85z"/></g><g fill="#b8d353"><path d="m383.21 203.78-5.77 17.55h8.11z"/><path d="m402.62 180.41-11.72 39.98 18.28-.6z"/><path d="m572.35 479.76 40.48-169 30.42 154.16z"/></g><g fill="none" stroke="#379372" stroke-linecap="round" stroke-miterlimit="10" stroke-width="1.44"><path d="m612.83 310.76-10.85 201.17"/><path d="m620.81 351.23-10.55 14.62"/><path d="m628.89 392.15-21.09 25.96"/><path d="m635.58 429-31.25 39.32"/><path d="m606.18 338.53 4.82 7.16"/><path d="m596.69 378.15 11.11 14.6"/><path d="m585.44 425.1 20.22 18.6"/></g><path d="m521.73 506.78 25.53-106.58 19.19 97.22z" fill="#b8d353"/><g fill="none" stroke="#379372" stroke-linecap="round" stroke-miterlimit="10" stroke-width="1.44"><path d="m547.26 400.2-6.84 126.87"/><path d="m552.3 425.72-6.66 9.23"/><path d="m557.39 451.53-13.3 16.37"/><path d="m561.61 474.77-19.71 24.8"/><path d="m543.07 417.71 3.04 4.52"/><path d="m537.08 442.7 7.01 9.21"/><path d="m529.99 472.31 12.75 11.73"/></g><path d="m167.64 555.08 25.53-106.59 19.18 97.23z" fill="#b8d353"/><g fill="none" stroke="#379372" stroke-linecap="round" stroke-miterlimit="10" stroke-width="1.44"><path d="m193.17 448.49-6.85 126.88"/><path d="m198.2 474.01-6.66 9.23"/><path d="m203.3 499.83-13.31 16.37"/><path d="m207.52 523.07-19.71 24.79"/><path d="m188.97 466.01 3.04 4.51"/><path d="m182.99 490.99 7 9.21"/><path d="m175.89 520.6 12.75 11.74"/></g><path d="m490.66 662.76 4.31-60.32-28.03.82 2.88 76.9h53.18l-3-9.49z" fill="#ff976e"/><path d="m490.66 662.76 29.34 7.91 3 9.49h-53.18l-2.88-76.9" fill="none" stroke="#141414" stroke-miterlimit="10" stroke-width="1.44"/><path d="m501.45 587.69-39.02 1.51-9.86.39v13.89l10-.22 38.06-.82 10.51-.22v-14.91z" fill="#bf528e"/><path d="m511.14 587.31-9.69.38-39.02 1.51-9.86.39v13.89l10-.22 38.06-.82 10.51-.22" fill="none" stroke="#141414" stroke-miterlimit="10" stroke-width="1.44"/><path d="m341.65 790.3-9.09 16.55h40.01l-12.52-17 2.7-68.81-27.06.77z" fill="#ff976e"/><path d="m335.69 721.81 5.96 68.49-9.09 16.55h40.01l-12.52-17 .4-10.25" fill="none" stroke="#141414" stroke-miterlimit="10" stroke-width="1.44"/><g clip-path="url(#a)"><path d="m413.41 451.85-44.91-30.9-56.77 30.9 18.63 255.92 37.17-1.45 5.28-196.98 88.74-6.47.88 86.33 39.02-1.51 7.53-135.84z" fill="#aa527e"/><g fill="none" stroke="#ef7bbb" stroke-miterlimit="10" stroke-width=".72"><path d="m331.91 452.85v269.2"/><path d="m355.2 452.85v269.2"/><path d="m378.5 452.85v269.2"/><path d="m401.79 452.85v269.2"/><path d="m425.09 452.85v269.2"/><path d="m448.38 452.85v269.2"/><path d="m471.67 452.85v269.2"/><path d="m494.97 452.85v269.2"/><path d="m277.77 463.8h261.99"/><path d="m277.77 487.5h261.99"/><path d="m277.77 511.19h261.99"/><path d="m277.77 534.89h261.99"/><path d="m277.77 558.58h261.99"/><path d="m277.77 582.28h261.99"/><path d="m277.77 605.97h261.99"/><path d="m277.77 629.67h261.99"/><path d="m277.77 653.36h261.99"/><path d="m277.77 677.06h261.99"/><path d="m277.77 700.75h261.99"/><path d="m277.77 724.45h261.99"/></g></g><path d="m356.64 509.34 104.91-6.47.88 86.33 39.02-1.51" fill="none" stroke="#141414" stroke-miterlimit="10" stroke-width="1.44"/><path d="m368.5 420.95-56.77 30.9 18.63 255.92 37.17-1.45" fill="none" stroke="#141414" stroke-miterlimit="10" stroke-width="1.44"/><path d="m367.53 706.32-37.17 1.45-10.01.38v13.9l11.03-.24 35.76-.77 11.78-.25v-14.91z" fill="#bf528e"/><path d="m378.92 705.88-11.39.44-37.17 1.45-10.01.38v13.9l11.03-.24 35.76-.77 11.78-.25" fill="none" stroke="#141414" stroke-miterlimit="10" stroke-width="1.44"/><path d="m343.34 301.31-24.79-68.63 24.79-25.87 13.3 7.18 17.24 34.88-21.91 11.47 20.12 34.14z" fill="#ff976e"/><path d="m373.88 248.87-21.91 11.47" fill="none" stroke="#141414" stroke-miterlimit="10" stroke-width="1.44"/><path d="m372.09 294.48-28.75 6.83-24.79-68.63 24.79-25.87 13.3 7.18" fill="none" stroke="#141414" stroke-miterlimit="10" stroke-width="1.44"/><path d="m334.73 299.51v-20.12h37.36l10.42 21.92z" fill="#f4d851"/><path d="m334.73 299.51v-20.12h37.36" fill="none" stroke="#141414" stroke-miterlimit="10" stroke-width="1.44"/><path d="m483.11 435.32 19.69-140.48h-50.95v42.29l9.34-.61 6.47 115.33 41.32 4.32v-8.99z" fill="#ff976e"/><g stroke="#141414" stroke-miterlimit="10" stroke-width="1.44"><path d="m451.85 294.84v42.29l9.34-.61 6.47 115.33 41.32 4.32v-8.99l-25.87-11.86" fill="none"/><path d="m320.63 396.35-6.75-101.51h-14.01l-22.1 100.48h41.38z" fill="#f4d851"/><path d="m323.22 435.32-2.59-38.97-1.48-1.03h-41.38l-8.8 40z" fill="#ff976e"/></g><path d="m406.95 294.84-7.02 42.09-.18 3.16-.36 6.13 52.46-1.8v-7.29-42.29z" fill="#f4d851"/><path d="m399.93 336.93-.18 3.16-.36 6.13 52.46-1.8v-7.29-42.29" fill="none" stroke="#141414" stroke-miterlimit="10" stroke-width="1.44"/><path d="m334.73 229.09 21.91-15.1 5.39-35.21h-27.3l-4.68 17.61-31.98 14.37 28.2 43.3 1.26-18.87 11.5 15.45z" fill="#28608e"/><g fill="none" stroke="#141414" stroke-miterlimit="10" stroke-width="1.44"><path d="m334.73 229.08 21.91-15.09"/><path d="m327.53 235.19 11.5 15.45"/><path d="m362.03 178.78h-27.3l-4.68 17.61-31.98 14.37 28.2 43.3"/></g><path d="m299.87 294.84h113.54v157.01h-101.68z" fill="#f4d851"/><g stroke="#141414" stroke-miterlimit="10" stroke-width="1.44"><path d="m299.87 294.84h64.07" fill="none"/><path d="m413.41 335.44v116.41h-101.68l-8.62-114.04" fill="none"/><path d="m491.3 653.78h-22.47l.99 26.38h53.18l-3-9.49-29.34-7.91z" fill="#141414"/><path d="m372.57 806.85-12.52-17 .4-10.25h-19.73l.93 10.7-9.09 16.55z" fill="#141414"/><g fill="none"><path d="m452.57 680.16h249.12"/><path d="m557.97 624.83h177.09"/><path d="m605.08 574.22h179.01"/><path d="m663.53 525.71h145.88"/><path d="m693.63 480.96h131.52"/><path d="m736.47 443.94h107.02"/><path d="m771.64 411.23h90.7"/><path d="m804.27 383.59h58.07"/><path d="m825.15 362.19h37.19"/><path d="m385.02 739.78h253.91"/><path d="m299.87 806.85h253.91"/><path d="m349.63 873.92h137.44"/></g><path d="m355.08 219.98 16.29 9.11-9.34 3.83" fill="#ff976e"/><g fill="#141414"><path d="m363.94 244-6.48 3.58s-1.74-5.28 4.83-7.46c.63 1.74 1.65 3.88 1.65 3.88z"/><path d="m351.97 260.34-6.95 3.72"/></g></g><circle cx="351.97" cy="224.41" fill="#141414" r="1.78"/><circle cx="363.22" cy="217.11" fill="#141414" r="1.78"/><path d="m390.9 175.91-5.35 55.28 5.35-.33 18.28-52.08z" fill="#fff"/><path d="m409.18 178.78-18.28-2.87-5.35 55.28" fill="none" stroke="#141414" stroke-miterlimit="10" stroke-width="1.44"/><circle cx="385.55" cy="242.92" fill="#fff" r="5.57"/><path d="m385.55 248.49a5.57 5.57 0 1 1 0-11.14" fill="none" stroke="#141414" stroke-miterlimit="10" stroke-width="1.44"/><path d="m418.35 975 371.63-168.15-18.34 96.29z" fill="#c5c9c5"/></svg>