<svg viewBox="0 0 1000 1000" xmlns="http://www.w3.org/2000/svg"><path d="m369.25 84.57 168.66-18.56 376.02 229.01 4.64 406.96-335.79 273.02-501.35-185.97 92.85-235.6-80.47-187.23z" fill="#fcbbe4"/><path d="m558.8 183.66-95.4 3.13-13.71 85.13-45.37 1.49v-16.56l-107.27-7.13-9.56 53.11h-26.42l9.94-32.39h-49.1l-12.32 32.39h-20.31l-25.28 66.47h-45.31l-11.05 29.07 29.89 69.56 5.63-18.34 107.13 60.01 11.7-65 142.33 59.83v-21.62l108.18 34.59-7.7-109.6 71.36 22.83z" fill="#ea7dd0"/><path d="m915.37 422.03-51.99-151.6-66.94-.39 3.8 25.81-16.87 2.31-28.28-84.13-43.93 6-6.61-19.67-73.99 10.12 28.85 195.9 49.68 7.73.87 5.94 64.8 10.08 9.97 67.69 91.03-28.46-6.43-24.89z" fill="#ea7dd0"/><path d="m169.25 821.61 361.76 134.18 338.56-268.76 46.92-167.36-1.12-97.64-24.14-66.39-66.54 14.68-20.11-54.86-37.14 8.44-28.89-94.65-90.52 13.16-17.19-56.1-148.9 15.87 12.18 127.91-69.95 3.1-.25-94.91-74.27-4.37-24.68 110.63-81.58 4.12-29.4 95.94-92.4-13.76 52.69 122.59-76.47 194.04z" fill="#f78fd4"/><g stroke-miterlimit="10" stroke-width="1.55"><g stroke="#231f20"><path d="m213.99 444.6-92.4-13.76" fill="none"/><path d="m97.81 747.47 71.44 74.14 361.76 134.18 338.56-268.76 46.92-167.36-1.12-97.64-24.14-66.39" fill="none"/><g fill="#191919"><ellipse cx="748.64" cy="703.48" rx="32.56" ry="49.21"/><ellipse cx="644.97" cy="792.07" rx="32.56" ry="49.21"/><ellipse cx="442.31" cy="801.53" rx="49.21" ry="32.56" transform="matrix(.2198462 -.97553454 .97553454 .2198462 -436.83 1056.88)"/></g><g fill="#f78fd4"><path d="m630.84 186.31 128.73 421.54"/><path d="m738.56 229.25 115.77 381.79"/><path d="m804.58 315.46 81.38 220.77"/><path d="m481.93 202.18 59.71 654.27"/><path d="m423.92 225.39v617.92"/><path d="m349.65 233.91-124.31 552.15"/><path d="m243.39 348.66-108.23 354.15"/></g><ellipse cx="291.33" cy="767.52" fill="#191919" rx="49.21" ry="32.56" transform="matrix(.2198462 -.97553454 .97553454 .2198462 -521.45 883.06)"/></g><path d="m772.34 609.14s24.76 37.91 25.92 75.43c0 25.53-30.56 23.6-30.56 23.6s-27.6-24.76-49.2-5.33c-26.3 28.53-3 54.46-3 54.46s-59.6 51.45-102.93 33.7c-4.64-51.07 90.52-174.09 113.74-181.82s46.03-.04 46.03-.04z" fill="#191919" stroke="#191919"/></g><path d="m668.67 492.79-65 59.44 22 37.18 22.33-25.66s16 23.21 19.09 35.07c7.92-8.36 32.7-39.41 37.43-70-11.59-11.91-23.79-24.14-35.85-36.03z" fill="#ffcc29"/><g fill="none" stroke="#231f20" stroke-miterlimit="10" stroke-width="1.55"><path d="m667.12 598.82c7.92-8.36 32.7-39.41 37.43-70-11.62-12-23.82-24.18-35.88-36.07"/><path d="m654.13 506.09 51.2 49.92"/><path d="m635.94 521.94 52.52 62.96"/><path d="m619.65 535.64 39.91 63.11"/></g><path d="m577.37 405.66 44.1-189.49-8.9-21.5-26.37 6.27-3.41 28.31-61.79 183.37 61.6 104 57-52.15c-34.6-33.35-62.23-58.81-62.23-58.81z" fill="#8eccef"/><path d="m582.61 516.61 57-52.15c-34.57-33.34-62.23-58.8-62.23-58.8l44.1-189.49-8.9-21.5-26.37 6.27-3.41 28.31" fill="none" stroke="#231f20" stroke-miterlimit="10" stroke-width="1.55"/><g fill="#fff" opacity=".34"><path d="m666.86 258.91 7.74 27.86 20.61-4.65-9.27-26.82z"/><path d="m716.89 315.46 9.8 33.63 24.24-7.13-12.38-34.05z"/><path d="m710.7 391.99 9.73 33.85 23.28-10.13-11.58-30.73z"/><path d="m766.92 438.41 8.77 31.46 20.75-6.7-11.98-33.53z"/><path d="m748.64 509.6 20.86-5.68 6.71 31.72-21.15 10.16z"/><path d="m807.16 563.75 13.92-7.74 3.61 28.89-12.89 2.58z"/><path d="m789.1 349.09 7.34 18.14 10.72-5.67-5.16-15.99z"/><path d="m815.92 423.97 8.77-5.68 6.71 17.02-11.28 7.09z"/><path d="m842.75 524.86 14.95-11.66 8.77 23.03-16.5 5.34z"/><path d="m845.27 384.98 9.06 25.58 16.27-8.26-8.77-24.75z"/><path d="m880.4 425.84 7.22 23.92 16.51-11.96-8.87-17.65z"/><path d="m626.11 249.72 9.83 37.05-22.57 5.15v-40.94z"/><path d="m544.4 270.82 9.83 37.05-22.58 5.16v-40.95z"/><path d="m613.13 340.64 9.74 36.57-21.24 9.22-7.53-40.25z"/><path d="m673.55 393.61 9.74 36.58-21.25 9.21-7.52-40.25z"/><path d="m539.91 469.89 9.74 36.57-21.24 9.22-7.52-40.25z"/><path d="m566.05 587.48 4.36 45.74-27.55-.17-3.25-40.81z"/><path d="m433.46 356.4v28.58h18.96l3.22-28.58z"/><path d="m359.19 255.3-8.51 31.47h12.98l8.56-32.05z"/><path d="m393.26 271.03-.03 32.5h17.41l-6.32-30.12z"/><path d="m355.1 333.7-5.45 36.99h22.57v-36.99z"/><path d="m380.85 397.08-5.41 47.52h26.49l-4.06-47.52z"/><path d="m323.74 475.62-10.62 55.43 28.58 5.65 1.69-61.08z"/><path d="m250.29 363.76-10.25 29.52h16.25l7.73-29.75z"/><path d="m275.63 420.84-11.61 35.11 20.08 3.86 5.34-38.97z"/><path d="m225.34 492.79-15.47 43.91 22.43 3.58 11.09-42.46z"/><path d="m232.3 574.81-10.83 41.78 21.92 4.15 9.8-37.91z"/><path d="m146.42 459.81 21.37 6.97-10.68 46.7-21.95-14.38z"/></g><path d="m652.84 452.34-13.24 12.12-56.99 52.15-22.23 20.35 27.35 29.89 15.98-14.62 64.96-59.44 11.53-10.56z" fill="#6ebde0"/><path d="m587.73 566.85 15.98-14.62 64.96-59.44 11.53-10.56-27.36-29.89-13.24 12.12-56.99 52.15-22.23 20.35" fill="none" stroke="#231f20" stroke-miterlimit="10" stroke-width="1.55"/><path d="m591.3 707.4c-34 46.42 21.27 83.56 21.27 83.56s27.94-29.26 60.43-64.42c24.85-26.86 52.37-57.16 72.13-80.47 15.48-18.26 26.2-32.23 27.18-36.93-7.08-15.3-35.11-46.66-67.79-80.28-4.73 30.55-29.51 61.6-37.43 70-3.09-11.86-19.09-35.11-19.09-35.11l-22.3 25.66a72.16 72.16 0 0 1 -8.13 9.41c32.53 27.6 7.77 62.18-26.27 108.58z" fill="#fff"/><path d="m612.57 791s27.94-29.3 60.43-64.46c24.85-26.86 52.37-57.16 72.13-80.47 15.48-18.26 26.2-32.23 27.18-36.93-7.08-15.3-35.11-46.66-67.79-80.28-2.22 14.32-8.84 28.75-16.07 40.9a179.71 179.71 0 0 1 -21.36 29.06c-3.09-11.82-19.09-35.07-19.09-35.07l-22.3 25.66a72.16 72.16 0 0 1 -8.13 9.41" fill="none" stroke="#231f20" stroke-miterlimit="10" stroke-width="1.55"/><path d="m494.58 344.54 118-149.87-10.7-3.84-58.8 15.47-13.93 22.95-80.59 99.81-31.46 198.08 84.27 9.56c.93-102.19-6.79-192.16-6.79-192.16z" fill="#badcf7"/><path d="m417.1 527.14 84.27 9.56c.93-102.19-6.79-192.16-6.79-192.16l118-149.87-10.7-3.84-58.8 15.47-13.93 22.95" fill="none" stroke="#231f20" stroke-miterlimit="10" stroke-width="1.55"/><path d="m501.37 536.7-84.27-9.56-19.27-2.19-4.57 40.26 17.48 1.99 89.78 10.19 17.28 1.96 4.57-40.26z" fill="#8eccef"/><path d="m393.26 565.21 17.48 1.99 89.78 10.19 17.28 1.96 4.57-40.26-21-2.39-84.27-9.56-19.27-2.19" fill="none" stroke="#231f20" stroke-miterlimit="10" stroke-width="1.55"/><path d="m416.77 80.49-3.81 13.95 12.38 22.63-14.7 10.83 23.98 34.04 44.49-21.27 2.84-25.53-61.25-49.13z" fill="#5e2a54"/><g stroke="#231f20" stroke-miterlimit="10" stroke-width="1.55"><path d="m434.62 161.94 44.49-21.27 2.84-25.53-61.25-49.13-3.93 14.48" fill="none"/><path d="m429.4 114.08-18.76 13.82" fill="none"/><path d="m214 688.05s-7.74 68.61 28.89 74.28c24.75-3.1 40.05-12.07 40.05-12.07s69.65-36.25 91.65 27.11c16.85 48.92 47.79 28.8 47.79 28.8s45.31-9.62 55.19-51.06-234.69-121.21-263.57-67.06z" fill="#191919"/></g><path d="m434.24 82.25-34.43-3.48-4.26-34.04 46.42-17.41 13.16 17.41 23.98-19.73 8.9 1.93 5.03 23.99 23.21-11.22 21.66 9.67-7.74 47.2-58.02 10.83z" fill="#77366e"/><g stroke="#231f20" stroke-miterlimit="10" stroke-width="1.55"><g fill="none"><path d="m516.25 39.7 21.66 9.67-7.74 47.2-58.02 10.83-37.91-25.15-34.43-3.48"/><path d="m479.11 25 8.9 1.93 6.11 29.18"/><path d="m441.97 27.32 16.45 21.77"/></g><path d="m640.45 110.2 32.47 18.86-12.67 11.45-16.54-13.38v10.06l-5.22-1.92-4.65-19.22z" fill="#f78b8b"/></g><path d="m291.88 630.8c-71.18-16.5-77.88 57.25-77.88 57.25l263.57 67.06c9.52-31.34 15.52-70.44 19.13-112-38.43 14.46-85.41-6.4-85.41-6.4l12.64-23.21-19.6-5.93s-8.77-2.06-20.63-8.77c-8.78 28.91-20.64 48.51-91.82 32z" fill="#fff"/><path d="m214 688.05 263.57 67.06c9.52-31.34 15.52-70.44 19.13-112-38.43 14.46-85.41-6.4-85.41-6.4l12.64-23.21-19.6-5.93s-8.77-2.06-20.63-8.77" fill="none" stroke="#231f20" stroke-miterlimit="10" stroke-width="1.55"/><path d="m476.4 98.89 23.6-10.82 86.2 112.87-61.44 28.31-74.56-100.08z" fill="#fff" stroke="#231f20" stroke-miterlimit="10" stroke-width="1.55"/><path d="m444.68 66 31.72 32.89-5.41 24-20.89-22.84s-11.22 11.22-16.25-.78-13.15-33.27-13.15-33.27z" fill="#f78b8b"/><g stroke="#231f20" stroke-miterlimit="10" stroke-width="1.55"><path d="m420.7 66.01h23.98l31.72 32.88-5.41 23.98" fill="none"/><path d="m638.14 97.52s10.81 12 2.3 21.28-21.67.38-22.44-3.87 20.14-17.41 20.14-17.41z" fill="#93f9e5"/><path d="m393.23 190.83-10.44-15.35-4.65 7.68-13.54-14.64-11.6 22.31 35.21 13.28z" fill="#f78b8b"/></g><path d="m915.53 435.31s-83.62 429.15-397.74 421.41c-233.26-5.75-351-114.16-396.2-169.59l-40.16 101.87 501.36 186 335.78-273z" fill="#af489c"/><path d="m915.53 435.31s-83.62 429.15-397.74 421.41c-233.26-5.75-351-114.16-396.2-169.59" fill="none" stroke="#231f20" stroke-miterlimit="10" stroke-width="1.55"/><path d="m562.67 202.18 5.88 18.56 47.68-29.22-10.23-18.36-36.37 13.15z" fill="#93f9e5"/><g stroke="#231f20" stroke-miterlimit="10" stroke-width="1.55"><path d="m568.55 220.74 47.68-29.22-10.23-18.36-36.37 13.15" fill="none"/><path d="m407.54 184s-15.86.46-20.89 10.68 1.35 26.07 8 26.07 12.89-36.75 12.89-36.75z" fill="#93f9e5"/><path d="m451.26 60.2v23.99l-13.54-14.7-23.99 3.48-6.19-6.96" fill="#77366e"/></g><path d="m452.8 133.32s-10.8 10.44-13.53 79.68c-10.84-22.18-18.57-35.43-28.63-34.35s-29 38.22-20.12 50.59 56.86 26.41 65.77 17.82c10.44-10.08 20.11-72.36 20.11-72.36" fill="#9c6ae5"/><path d="m390.52 229.25c8.9 12.38 56.86 26.41 65.77 17.82 10.44-10.08 20.11-72.36 20.11-72.36" fill="none" stroke="#231f20" stroke-miterlimit="10" stroke-width="1.55"/><path d="m443.65 220.74c-10.83-22.18-22.95-43.16-33-42.08" fill="none" stroke="#231f20" stroke-miterlimit="10" stroke-width="1.55"/><path d="m482 96.38s73.37-34.63 111.28-26.89 47.2 25 47.2 25 1.93 30.75-29.79 32.3c-8.13-11.22-24.37-31.33-24.37-31.33s-12.38 15.47-43.33 17.79c29 8.9 63.83 30.56 63.83 30.56s13.15 20.89 2.32 34.43c-7.35 7.74-46.42 24-46.42 24l-11.22-28.24s-60.63-13.3-69.5-77.62z" fill="#9c6ae5"/><g stroke="#231f20" stroke-miterlimit="10" stroke-width="1.55"><path d="m481.95 96.38-5.55 34.62" fill="#fff"/><g fill="none"><path d="m586.27 95.41s-12.38 15.47-43.33 17.79c29 8.9 63.83 30.56 63.83 30.56s13.15 20.89 2.32 34.43c-7.35 7.74-46.42 24-46.42 24l-14.2-35.75"/><path d="m482 96.38s73.37-34.63 111.28-26.89 47.2 25 47.2 25 1.93 30.75-29.79 32.3"/></g></g><path d="m527.47 220.74 10.44 13.93-21.73 12.4-12.31-23.62z" fill="#93f9e5"/><path d="m527.47 220.74 10.44 13.93-21.73 12.4" fill="none" stroke="#231f20" stroke-miterlimit="10" stroke-width="1.55"/><path d="m510.23 84.68c-2.18-8.13-5.43-13.25-10.23-12.48-19.34 3.09-18 24.18-18 24.18 3.9 28.12 17.67 46.47 31.93 58.23.58-15.05 1.41-50.81-3.7-69.93z" fill="#ffcc29"/><path d="m513.88 154.61c.63-15.05 1.46-50.81-3.65-69.93-2.18-8.13-5.43-13.25-10.23-12.48" fill="none" stroke="#231f20" stroke-miterlimit="10" stroke-width="1.55"/><path d="m448.55 140.5 11.26-16.31 67.66 96.55-18.96 12.38-20.5-4.77-23.58-52.49" fill="#9c6ae5"/><path d="m488.01 228.36-23.58-52.5" fill="none" stroke="#231f20" stroke-miterlimit="10" stroke-width="1.55"/><path d="m448.55 140.5 11.26-16.31 67.66 96.55-18.96 12.38" fill="none" stroke="#231f20" stroke-miterlimit="10" stroke-width="1.55"/><path d="m494.12 173.16-34.31-49s-2.07-7.66-11.26-1.32c-11.22 7.77 4.11 35.62 45.57 50.32z" fill="#ffcc29"/><path d="m494.12 173.16-35.7-52.17" fill="none" stroke="#231f20" stroke-miterlimit="10" stroke-width="1.55"/><path d="m404.32 607.59 19.6 5.93-12.64 23.21s47 20.86 85.41 6.4c1.87-21.51 3.09-43.67 3.83-65.74l-89.79-10.2z" fill="#ffcc29"/><g stroke="#231f20" stroke-miterlimit="10" stroke-width="1.55"><path d="m411.28 636.73s47 20.86 85.41 6.4c1.87-21.51 3.09-43.67 3.83-65.74" fill="none"/><ellipse cx="792.13" cy="691.23" fill="#b9bec1" rx="32.56" ry="49.21"/><ellipse cx="792.13" cy="691.23" fill="#191919" rx="10.38" ry="15.69"/><ellipse cx="688.46" cy="779.82" fill="#b9bec1" rx="32.56" ry="49.21"/><ellipse cx="688.46" cy="779.82" fill="#191919" rx="10.38" ry="15.69"/><ellipse cx="400.78" cy="800.43" fill="#fff" rx="49.21" ry="32.56" transform="matrix(.2198462 -.97553454 .97553454 .2198462 -468.16 1015.5)"/><ellipse cx="400.78" cy="800.43" fill="#b9bec1" rx="49.21" ry="32.56" transform="matrix(.20893589 -.97792934 .97792934 .20893589 -465.72 1025.11)"/><ellipse cx="400.78" cy="800.43" fill="#191919" rx="15.69" ry="10.38" transform="matrix(.20893589 -.97792934 .97792934 .20893589 -465.72 1025.11)"/><ellipse cx="250.29" cy="764.13" fill="#b9bec1" rx="49.21" ry="32.56" transform="matrix(.20893589 -.97792934 .97792934 .20893589 -549.27 849.23)"/><ellipse cx="250.29" cy="764.13" fill="#191919" rx="15.69" ry="10.38" transform="matrix(.20893589 -.97792934 .97792934 .20893589 -549.27 849.23)"/><path d="m580.31 158.66s2.17 20.27 17.56 14.5" fill="none"/><g fill="#231f20"><ellipse cx="436.8" cy="79.8" rx="3.16" ry="5.02" transform="matrix(.92887421 -.37039532 .37039532 .92887421 1.51 167.48)"/><ellipse cx="424.17" cy="84.19" rx="3.16" ry="5.02" transform="matrix(.92887421 -.37039532 .37039532 .92887421 -1.01 163.11)"/><path d="m427.1 83.02 17.43-6.13"/></g><path d="m429.4 78.39 1.39 13.42 4.67-2.08" fill="none"/><path d="m438.36 95.53s4.13-.49 5.29-3.72" fill="#381434"/><path d="m270.67 628.41c1.66 14.34 9.57 34.49 39.78 41.41 48.74 11.17 44.89-35.65 44.89-35.65" fill="#fff"/><g fill="none"><path d="m585.8 716.25c27.18 14 69.71-32.84 70.1-56.34s-24-23-24-23"/><path d="m623.53 659.19s21.67-2 26.63 18.67"/><path d="m612.27 677.86s21.38.57 24.57 18.34"/><path d="m599.46 696.2s16.53-.51 19.66 15"/></g><path d="m423.92 613.52-26.05 47.84" fill="#fff"/><g fill="none"><path d="m674.27 625.77s-7.41-39.33-26.24-62"/><path d="m335.56 632.89s6.61 21.2-7.31 38.47"/><path d="m317.36 631.61s2.46 29-11.93 36.88"/><path d="m294.39 629.83s3.5 20.19-10.29 26.77"/></g><g fill="#fff"><path d="m350.68 627.23s-38.8-21-27.89-33.66 27.89 33.66 27.89 33.66z"/><path d="m356.14 625.24s-6-43.71 10.7-42.38-10.7 42.38-10.7 42.38z"/><path d="m620.29 638.93s-37.7 22.91-43.13 7.09 43.13-7.09 43.13-7.09z"/><path d="m621.33 633.22s-40.75-16.91-31.19-30.63 31.19 30.63 31.19 30.63z"/></g><path d="m450.1 100.05 6.96-6.38" fill="none"/><g fill="#ffcc29"><path d="m481.07 574.81-5.17 73.22"/><path d="m455.64 571.93-8.06 74.32"/><path d="m432.37 569.29-8.6 72.73"/></g></g><path d="m734.52 560.61c-3.36-3.7-6.88-7.5-10.5-11.37-46.23 39.84-28.18 112.69-18.46 141.76 10.48-11.59 20.63-23 29.74-33.47-32.03-48.53-10.48-84.61-.78-96.92z" fill="#a2f9f7"/><path d="m705.56 691c10.48-11.59 20.63-23 29.74-33.47-32-48.51-10.48-84.62-.78-96.93-3.36-3.7-6.88-7.5-10.5-11.37" fill="none" stroke="#231f20" stroke-miterlimit="10" stroke-width="1.55"/><path d="m494 669.82c-81.13-27.38-122.59 21.61-140.26 53.78l40.21 10.23c17.56-50.34 77.06-50.87 98-47.74q1.05-8.01 2.05-16.27z" fill="#a2f9f7"/><path d="m353.72 723.6 40.21 10.23c17.56-50.34 77.06-50.87 98-47.74q1.11-8 2.08-16.27" fill="none" stroke="#231f20" stroke-miterlimit="10" stroke-width="1.55"/><circle cx="454.31" cy="718.65" fill="#f96e6e" r="13.5"/><circle cx="457.81" cy="722.25" fill="none" r="13.5" stroke="#231f20" stroke-miterlimit="10" stroke-width="1.55"/><circle cx="744.13" cy="607.85" fill="#f96e6e" r="13.5"/><circle cx="748.64" cy="607.85" fill="none" r="13.5" stroke="#231f20" stroke-miterlimit="10" stroke-width="1.55"/><path d="m571.42 717.17 4.36 45.75-27.55-.17-3.25-40.82z" fill="#fff"/></svg>