<svg viewBox="0 0 1000 1000" xmlns="http://www.w3.org/2000/svg" xmlns:xlink="http://www.w3.org/1999/xlink"><clipPath id="a"><path d="m721.13 576.09-50.83 150.91 6.75-93.86-10.96-25.03-45.68-3.19-21.15 24.59-3.06 307.37 107.58-74.89 62.98-216.41 46.67-23.85-21.81-73.38z"/></clipPath><clipPath id="b"><path d="m164.11 530.49 148.89-8.18 21.78 125.8 6.89-60.59 63.83 6.8 19.48 327.9-192.88-60.91z"/></clipPath><path d="m423.46 25 488.5 212.46-73.12 530.51-281.59 196.02-325.15-102.68-127.57-620.74z" fill="#172338"/><g fill="#3a5e89"><path d="m473.49 127 24.56-37.34 23.42 22.82-36.82 26.45-26.26-2.6-33.38-30.59 22.3-18.44z"/><path d="m291.6 168.43 13.02-42.75 28.91 15.29-27.87 35.75-25.92 4.93-40.65-19.94 16.19-23.98z"/><path d="m644.9 156.84 20.4-21.03 19.45 12.85-30.58 14.9-21.81-1.46-27.72-17.23 18.52-10.39z"/></g><path d="m397.01 786.64h212.49v49.16h-212.49z" fill="#233856"/><g fill="#2c4568"><path d="m665.1 279.62-117.26-12.82-16.26-101.17 51.02-10.45z"/><path d="m452.97 292.56-133.96 3.17 25.88-132.17h77.74z"/><path d="m690.53 204.27 57.18 2.61 4.53 63.77-65.34 5.78z"/></g><g fill="#4678aa"><path d="m557.25 281.31-148.27-.02-14.94-148.85h173.34z"/><path d="m375.23 292.56-133.96 3.17-21.52-111.17 125.14-21z"/><path d="m702.46 279.62-117.26-12.82-2.6-111.62 124.19 5.16z"/></g><path d="m286.51 171.43h4.67v110.55h-4.67z" fill="#3a5e89" transform="matrix(.98768834 -.15643447 .15643447 .98768834 -31.91 47.97)"/><path d="m228.59 222.95h129.57v4.67h-129.57z" fill="#3a5e89" transform="matrix(.99444868 -.10522275 .10522275 .99444868 -22.06 32.1)"/><path d="m222.29 330.05h567.81v456.59h-567.81z" fill="#37577c"/><path d="m222.29 330.05h567.81v456.59h-567.81z" fill="#2c4568"/><path d="m383.94 784.22s-58-269.05 22.65-308.08 216.52-10.37 231 2.79 55 231.3 46.68 305.29-308.21 42.18-300.33 0z" fill="#231f20"/><path d="m530.15 265.85 23.99-24.25 19.71 12.13 21.52-9.53 18.97 12.44 46-10.89 40.22 17.12 47.53-4.67 32.41 21.78 31.9-2.59 5.7 20.13-287.95 6.02-290.27-.73-5.7-27.46 20.74-9.37 35.89 15.31 17.37-29.83 26.08-5.71 29.49 24.27 11.48-15.45 12.74-1.04 2.82-22.3 24.26-2.07 14.11 19.88 29.91-13.79z" fill="#5898cc"/><path d="m644.19 903.47-86.94 60.52-199.2-64.1 32.48-64.09h230.86z" fill="#2c4568"/><path d="m702.46 846.45h-380.75v-257.21c0-96.68 78.66-175.33 175.33-175.33h30.08c96.68 0 175.34 78.65 175.34 175.33zm-318.52-62.23h256.29v-195a113.23 113.23 0 0 0 -113.11-113.1h-30.12a113.23 113.23 0 0 0 -113.1 113.1z" fill="#3a5e89"/><path d="m512.08 400.81v75.33" fill="none" stroke="#2c4568" stroke-miterlimit="10" stroke-width="1.56"/><path d="m171.56 290.34h705.4v60.01h-705.4z" fill="#3a5e89"/><path d="m308.18 308.94s97.76 39.41 193.64 2.93c88.88 34.31 180.56 30.74 217.56-12.87" fill="none" stroke="#5898cc" stroke-miterlimit="10" stroke-width="1.56"/><path d="m515.05 380.37 16.65-63-52.26-13.8-19.44 66.15a39.94 39.94 0 0 0 21.52 47.48l43.21 20 20.5-47.93z" fill="#4678aa"/><path d="m524.75 437.22 20.5-47.93-30.2-8.92 16.65-63.03" fill="none" stroke="#231f20" stroke-miterlimit="10" stroke-width="1.56"/><path d="m497 374.99 18.05 5.38" fill="#3a5e89" stroke="#231f20" stroke-miterlimit="10" stroke-width="1.56"/><path d="m465.06 309.98h72.6v37.93h-72.6z" fill="#5898cc" transform="matrix(.96682339 .25544576 -.25544576 .96682339 100.65 -117.15)"/><path d="m541.3 319.88-9.69 36.67-70.19-18.55" fill="none" stroke="#231f20" stroke-miterlimit="10" stroke-width="1.56"/><path d="m462.52 373.42a17 17 0 0 0 -3.45.35 39.88 39.88 0 0 0 8.82 33 17.11 17.11 0 0 0 -5.37-33.35z" fill="#5898cc"/><path d="m467.89 406.77a17.11 17.11 0 0 0 -8.82-33" fill="none" stroke="#231f20" stroke-miterlimit="10" stroke-width="1.56"/><path d="m326.23 372 16.65-63-52.26-13.81-19.42 66.12a39.93 39.93 0 0 0 21.52 47.48l43.2 20 20.51-47.92z" fill="#4678aa"/><path d="m335.93 428.81 20.5-47.93-30.2-8.91 16.65-63.03" fill="none" stroke="#231f20" stroke-miterlimit="10" stroke-width="1.56"/><path d="m308.18 366.58 18.05 5.39" fill="#3a5e89" stroke="#231f20" stroke-miterlimit="10" stroke-width="1.56"/><path d="m276.24 301.58h72.6v37.93h-72.6z" fill="#5898cc" transform="matrix(.96682339 .25544576 -.25544576 .96682339 92.24 -69.2)"/><path d="m352.48 311.48-9.69 36.66-70.19-18.54" fill="none" stroke="#231f20" stroke-miterlimit="10" stroke-width="1.56"/><path d="m273.69 365a17.68 17.68 0 0 0 -3.44.34 39.93 39.93 0 0 0 8.81 33 17.1 17.1 0 0 0 -5.37-33.34z" fill="#5898cc"/><path d="m279.06 398.37a17.1 17.1 0 0 0 -5.37-33.37 17.68 17.68 0 0 0 -3.44.34" fill="none" stroke="#231f20" stroke-miterlimit="10" stroke-width="1.56"/><path d="m732.61 369.9 16.65-63-52.26-13.83-19.42 66.18a39.94 39.94 0 0 0 21.53 47.48l43.2 20 20.5-47.93z" fill="#4678aa"/><path d="m742.31 426.75 20.5-47.93-30.2-8.92 16.65-63.03" fill="none" stroke="#231f20" stroke-miterlimit="10" stroke-width="1.56"/><path d="m714.56 364.52 18.05 5.38" fill="#3a5e89" stroke="#231f20" stroke-miterlimit="10" stroke-width="1.56"/><path d="m682.62 299.51h72.6v37.93h-72.6z" fill="#5898cc" transform="matrix(.96682339 .25544576 -.25544576 .96682339 105.2 -173.07)"/><path d="m758.86 309.41-9.69 36.67-70.19-18.55" fill="none" stroke="#231f20" stroke-miterlimit="10" stroke-width="1.56"/><path d="m680.08 363a17.11 17.11 0 0 0 -3.45.35 39.92 39.92 0 0 0 8.82 33 17.11 17.11 0 0 0 -5.37-33.35z" fill="#5898cc"/><path d="m685.45 396.3a17.11 17.11 0 0 0 -8.82-33" fill="none" stroke="#231f20" stroke-miterlimit="10" stroke-width="1.56"/><g fill="#5898cc"><circle cx="557.25" cy="338.21" r="6.07"/><circle cx="588.56" cy="344.28" r="6.07"/><path d="m415.26 697.18-12.3-81.16 39.27 28.26v-96.64l33.64 74.77 16.11-132.9 27.03 108.36 5.96-55.49 26.26 70.21 12.93-77.6 24.88 81.03 28.8-46.67 10.38 132.76z"/></g><path d="m406.59 710.4-5.09-68.54 48.79 26.19v-69.6l32.48 53.84 15.55-95.71 26.1 78.04 5.75-39.96 25.35 50.56 12.49-55.88 24.02 58.35 27.81-33.61 10.01 95.61z" fill="#90dbfc"/><g fill="#5898cc"><circle cx="620.41" cy="346.08" r="6.07"/><circle cx="654.27" cy="344.28" r="6.07"/><circle cx="360.71" cy="333.64" r="6.07"/><circle cx="387.97" cy="338.23" r="6.07"/><circle cx="415.05" cy="339.46" r="6.07"/><circle cx="448.76" cy="335.83" r="6.07"/></g><path d="m390.53 690.09 45.91-12.56-11.46-31.15 34.64 24.82 46.57-12.73 126.91 31.62 7.13 94.13h-128.15-128.14z" fill="#2c4568"/><path d="m508.39 756.26 42.81 12.84-33.23 11.64 5.95 6.85 40.4-9.75 44.9 9.74 4.76-26.38-97.62-19.5z" fill="#3a5e89"/><path d="m609.5 751.61-154.5-30.96 25.95-52.36 67.94 18.13 4.47-24.26 9.76 2.6 6.61 27.22 54.42 14.52z" fill="#3a5e89"/><path d="m397.01 716.99 115.07-36.18 15.22 56.4-86.38 23.34 40.03 8.16-9.65 7.39-42.25-5.83-41.37 10.11z" fill="#4678aa"/><path d="m484.13 784.22 62.56-40.51v-26.33h6.81l4.44 20.08 14-11.53 4.86 7.52-64.72 50.77z" fill="#4678aa"/><g fill="#3a5e89"><circle cx="418.81" cy="172.12" r="13.46"/><circle cx="490.27" cy="168.18" r="16.77"/><circle cx="531.58" cy="191.2" r="13.46"/><circle cx="545.25" cy="150.84" r="11.37"/><circle cx="484.59" cy="214.63" r="11.37"/><circle cx="432.27" cy="217.4" r="11.37"/><circle cx="450.04" cy="149.02" r="11.37"/></g><path d="m519.14 494.5 3.5 29.86 4.66-27.29-4.08-11.47z" fill="#9fd0f4"/><path d="m511.28 261.79h41.82l26.97 28.55-171.09.72 39.78-34.68z" fill="#68bbea"/><path d="m511.28 261.79h41.82l26.97 28.55-171.09.72" fill="none" stroke="#231f20" stroke-miterlimit="10" stroke-width="1.56"/><path d="m539.58 551.72-2.55-15.56 5.44-4.84z" fill="#9fd0f4"/><path d="m428.57 608.11-9.8-12.3-2.54 11.97 8.75 8.11z" fill="#9fd0f4"/><path d="m498.05 240.65 20.83-27.57 53.5 7.11-30.17 43.97-40.39 15.46-22.74-1.71-46.81-37.86 3.63-55.49 40.45 24.38z" fill="#68bbea"/><path d="m435.9 184.56 40.45 24.38 21.7 31.71" fill="none" stroke="#231f20" stroke-miterlimit="10" stroke-width="1.56"/><path d="m572.38 220.19-30.17 43.97-40.39 15.46-22.74-1.71-46.81-37.86" fill="none" stroke="#231f20" stroke-miterlimit="10" stroke-width="1.56"/><g fill="#90dbfc"><circle cx="515.98" cy="275.35" r="14.16"/><circle cx="487.66" cy="275.35" r="14.16"/><circle cx="501.36" cy="250.13" r="14.16"/></g><g fill="none" stroke-miterlimit="10"><g stroke="#3a5e89" stroke-width="4.67"><path d="m583.11 176.98 122.9 4.66"/><path d="m583.51 206.9 121.45 3.85"/><path d="m584.48 236.07 119.42 3.78"/></g><g stroke="#2c4568" stroke-width="1.56"><path d="m563.32 411.31-18.07 66.28"/><path d="m609.5 429.2-36.01 56.4"/><path d="m648.2 463.17-49.38 39.38"/><path d="m679.49 502.55-62.2 28.77"/><path d="m697.42 538.74-64.42 23.36"/><path d="m705.86 574.31-66.86 15.03"/><path d="m705.86 608.11-66.86 15.03"/><path d="m458.89 413.71 15.03 64.12"/><path d="m412.1 429.93 33.96 57.66"/><path d="m368.78 459.55 51.96 46.27"/><path d="m339.52 500.72 61.12 30.98"/><path d="m320.3 536.23 63.54 25.67"/><path d="m310.59 571.48 66.27 17.42"/><path d="m309.37 605.25 66.27 17.43"/></g></g><path d="m572.38 463.17-5-62.36 72.85-123.91-19.82-72.63 94.15-78.83 58.94 36.77-113.16 55.19 4.76 62.22-87.62 121.19z" fill="#fff"/><path d="m456.9 482.52 5-62.35-72.84-123.91 19.81-72.64-90.56-138.89-58.93 36.77 109.56 115.26-4.76 62.22 87.63 121.19z" fill="#fff"/><path d="m612.95 975 227.97-162.35-1.32 104.02z" fill="#2c4568"/><path d="m759.5 334.43s-32.41 37.6 10.11 85.31c-4.61 21.26-15.3 74.76-15.3 74.76s-51.59-4.37-53.67 41.07 35.52 56.34 35.52 56.34l66.38-41.23-11.15-170.61z" fill="#231f20" stroke="#231f20" stroke-miterlimit="10" stroke-width="1.56"/><path d="m780.24 380.07-32.15 69 10.91 3.08s-16.59 46.15 23.86 42c-5.19 24.89-11.41 48.22-11.41 48.22l73.12-8.81 8.3-147.8z" fill="#fff"/><path d="m756.91 548.81-49.4 19.17-58.78 123.76 7.57 91.01 86.61-171.13z" fill="#f99223" stroke="#231f20" stroke-miterlimit="10" stroke-width="1.56"/><path d="m764.43 453.71-16.34-4.67 32.15-68.97 72.61 5.7-8.3 147.8-73.12 8.81" fill="none" stroke="#231f20" stroke-miterlimit="10" stroke-width="1.56"/><path d="m838.84 767.97-135.06 94.02 1.04-146.4 76.46-143.05 83.94 4.06z" fill="#6aced8"/><path d="m749.13 535.57 71.74-28.68 10.45 32.38-88.41 32.41z" fill="#fcc324" stroke="#231f20" stroke-miterlimit="10" stroke-width="1.56"/><g clip-path="url(#a)"><path d="m721.13 576.09-50.83 150.91 6.75-93.86-10.96-25.03-45.68-3.19-21.15 24.59-3.06 307.37 107.58-74.89 62.98-216.41 46.67-23.85-21.81-73.38z" fill="#6aced8"/><g fill="#a9f3f7"><circle cx="703.78" cy="811.22" r="36.82"/><circle cx="708.23" cy="717.37" r="22.82"/><circle cx="658.89" cy="665.08" r="25.74"/><circle cx="617.74" cy="846.45" r="36.82"/><circle cx="601.32" cy="736.72" r="36.82"/><circle cx="721.13" cy="623.14" r="36.82"/></g></g><path d="m595.2 500.96-2.42 11.48 12.73.64v45.06l-16.69 1.99-.26 11.23 25.52-.36 10.07-70.04z" fill="#f78989"/><g fill="none" stroke="#231f20" stroke-miterlimit="10" stroke-width="1.56"><path d="m595.2 500.96-2.42 11.48 12.73.64v45.06l-16.69 1.99-.26 11.23 25.52-.36"/><path d="m596.2 936.88 107.58-74.89 43.29-148.73"/><path d="m599.26 629.51 57.04 3.63"/><path d="m670.3 727 6.75-93.86-10.96-25.03-45.68-3.19"/><path d="m766.76 645.58 46.67-23.85-21.81-73.38-70.49 27.74"/></g><path d="m670.3 510.23s-29.56-23-31.63-20.55 7.78 22.11 7.78 22.11l-41.45 1.29v24.54l9.08.68.19 18.86 11.48-.77-5.3 48.53 45.68 3.19z" fill="#fff"/><g fill="none" stroke="#231f20" stroke-miterlimit="10" stroke-width="1.56"><path d="m614.23 557.16 11.48-.77"/><path d="m604.96 537.62 9.08.68"/><path d="m651.74 511.62-46.78 1.46"/></g><path d="m849.88 687.92a36.82 36.82 0 1 0 -10 72.9z" fill="#a9f3f7"/><path d="m620.41 604.92 45.68 3.19 4.21-97.88s-29.56-23-31.63-20.55" fill="none" stroke="#231f20" stroke-miterlimit="10" stroke-width="1.56"/><circle cx="899.52" cy="304.35" fill="#fcc324" r="11.28"/><path d="m899.52 293.07a11.28 11.28 0 0 1 0 22.56" fill="none" stroke="#231f20" stroke-miterlimit="10" stroke-width="1.56"/><path d="m890.08 396.24-102.82-61.81h-27.76s11.07 65.9 51.86 64.82c-2.59 17.12-8.3 54.46-8.3 54.46s27.49-55.49 32.67-44.08c4.91 10.79-12.92 88.84-14.86 97.26a74.27 74.27 0 0 0 -30.61 101.11 69.44 69.44 0 0 0 53.18 126.62z" fill="#f78989"/><g fill="none" stroke="#231f20" stroke-miterlimit="10" stroke-width="1.56"><path d="m843.44 734.59a69.44 69.44 0 0 1 -53.18-126.59 74.27 74.27 0 0 1 30.61-101.08s13.7-7.29 27.7-1.07"/><path d="m820.56 399.64c-52 5.5-61.06-65.21-61.06-65.21h27.76"/><path d="m803.06 453.71s14.6-29.48 24.53-41"/><path d="m826.33 736.72a69.43 69.43 0 0 1 0-138.85"/></g><path d="m794.89 328.47s55.73-55.07 93.07-31-22.67 88.53-22.67 88.53z" fill="#fcc324"/><path d="m888 297.52c37.3 24.11-22.71 88.48-22.71 88.48l-70.4-57.56" fill="none" stroke="#231f20" stroke-miterlimit="10" stroke-width="1.56"/><path d="m780.5 334.43 81.29 65.21 15.17-19.57-82.84-62.1z" fill="#f9a326"/><g stroke="#231f20" stroke-miterlimit="10" stroke-width="1.56"><path d="m780.5 334.43 81.29 65.21 15.17-19.57-66.72-50.02" fill="none"/><path d="m779.73 495.81s17-3.6 20.74-12.25" fill="none"/><path d="m243.38 366.58 27.62 70.3h-13.81l10.3 39.94-33.44 2.5 9.64 40.55-63.71 4.1-22.94-155.31 74.28-18.31z" fill="#fff"/></g><path d="m176.87 535.9-7.57-30.37 90.03-2.91 15.94 31.62z" fill="#57b2ea"/><path d="m275.27 534.24-98.4 1.66-7.57-30.37 90.03-2.91" fill="none" stroke="#231f20" stroke-miterlimit="10" stroke-width="1.56"/><path d="m196.71 367.82 95.29-6.24 7.39-37.02-14.78-27.04-108.13 51.17-36.36 29.66 29.72 75.31 1.72-58.84 25.93 44.98z" fill="#f78989"/><path d="m184.52 367.82 107.48-6.24" fill="none" stroke="#231f20" stroke-miterlimit="10" stroke-width="1.56"/><path d="m171.56 394.82 25.93 44.98" fill="none" stroke="#231f20" stroke-miterlimit="10" stroke-width="1.56"/><path d="m434.5 514.77 2.33 11.47-12.32.65v45.05l16.16 2 .25 11.23-24.69-.36-9.75-70.04z" fill="#fcc324"/><path d="m434.5 514.77 2.33 11.47-12.32.65v45.05l16.16 2 .25 11.23-24.69-.36" fill="none" stroke="#231f20" stroke-miterlimit="10" stroke-width="1.56"/><path d="m429.05 505.82 11.77 85.96h40.13l12-85.96z" fill="#fcc324"/><path d="m429.05 505.82 11.77 85.96h40.13" fill="none" stroke="#231f20" stroke-miterlimit="10" stroke-width="1.56"/><ellipse cx="461" cy="505.82" fill="#fff" rx="31.95" ry="7.51"/><path d="m461 513.33c11.81 0 22.09-1.51 27.62-3.74-5.51-2.25-15.79-3.77-27.62-3.77s-22.11 1.52-27.62 3.77c5.53 2.23 15.81 3.74 27.62 3.74z" fill="#231f20"/><g fill="none" stroke="#231f20" stroke-miterlimit="10" stroke-width="1.56"><path d="m429.05 505.82c0 4.15 14.31 7.51 31.95 7.51s32-3.33 32-7.51"/><path d="m459.62 523.93c17.64 0 31.95-2.57 31.95-5.73"/><path d="m140.12 378.35 29.72 75.31"/></g><path d="m346.64 591.2 7.2-54.07s27.22-19.64 37.34-43.75c8.94 7.26 4.44 31.9-.91 38.63 8.17.39 34.71-1.49 34.71-1.49v32.28h-12.41l-.2 23.73-18.67-1.95.2 13.23z" fill="#fff"/><g fill="none" stroke="#231f20" stroke-miterlimit="10" stroke-width="1.56"><path d="m412.37 586.53-18.67-1.95.2 13.23-47.26-6.61 7.2-54.07s27.22-19.64 37.34-43.75"/><path d="m424.98 562.8h-12.41"/><path d="m380.93 532.07c8.17.38 44.05-1.55 44.05-1.55"/><path d="m677.05 633.14-11.41 160.24"/></g><g clip-path="url(#b)"><path d="m164.11 530.49 148.89-8.18 21.78 125.8 6.89-60.59 63.83 6.8 19.48 327.9-192.88-60.91z" fill="#f99223"/><g fill="none" stroke="#fff" stroke-miterlimit="10" stroke-width="1.56"><path d="m154.98 583.06 311.43-19.64"/><path d="m154.98 636.79 311.43-19.64"/><path d="m154.98 690.51 311.43-19.64"/><path d="m154.98 744.24 311.43-19.64"/><path d="m154.98 797.97 311.43-19.64"/><path d="m154.98 851.69 311.43-19.64"/><path d="m154.98 905.42 311.43-19.64"/><path d="m392.5 513.87 81.76 464.5"/><path d="m329.2 513.87 81.76 464.5"/><path d="m265.91 513.87 81.76 464.5"/><path d="m202.61 513.87 81.76 464.5"/></g></g><path d="m259.07 666.84 37.49 214.83" fill="#fff" stroke="#231f20" stroke-miterlimit="10" stroke-width="1.56"/><path d="m313 522.31-64.3 36.15 28.27 165.05-64-13.35-18.73-165.18 40.99-18.4z" fill="#9fd0f4"/><path d="m276.97 723.51-64-13.35-18.73-165.18 40.99-18.4 77.77-4.27" fill="none" stroke="#231f20" stroke-miterlimit="10" stroke-width="1.56"/><path d="m164.11 530.49 148.89-8.18 9.69 55.97 12.09 69.83 6.89-60.59 63.83 6.8" fill="none" stroke="#231f20" stroke-miterlimit="10" stroke-width="1.56"/><ellipse cx="101.76" cy="281.31" fill="#6aced8" rx="11.28" ry="13.73" transform="matrix(.06174535 -.99809194 .99809194 .06174535 -185.3 365.51)"/><path d="m102.45 270.05c-7.57-.47-14 4.19-14.4 10.41s5.44 11.64 13 12.1" fill="none" stroke="#231f20" stroke-miterlimit="10" stroke-width="1.56"/><path d="m227.36 313.23s-64.3-59.14-111.15-37.88 22.08 90 22.08 90z" fill="#6aced8"/><path d="m116.21 275.35c-46.84 21.26 22.08 90 22.08 90l89.07-52.17" fill="none" stroke="#231f20" stroke-miterlimit="10" stroke-width="1.56"/><path d="m244.47 320.27-102.77 58.98-17.22-20.68 104.47-55.76z" fill="#57b2ea"/><g stroke="#231f20" stroke-miterlimit="10" stroke-width="1.56"><path d="m244.47 320.27-102.77 58.98-17.22-20.68 84.14-44.91" fill="none"/><g fill="#fff"><path d="m388.19 545.59h36.79"/><path d="m412.57 562.8h-24.38"/><path d="m412.48 573.24h-21.95"/></g><g fill="none"><path d="m406.59 612.59-66.68-9.61"/><path d="m328.63 612.59 33.38 192.72"/><path d="m248.7 558.46-44.6-11.02"/></g><path d="m267.49 476.82-60.09 4.21" fill="#fff"/></g><circle cx="220.97" cy="727.94" fill="#9fd0f4" r="9.09"/><path d="m221 737a9.1 9.1 0 0 1 0-18.19" fill="none" stroke="#231f20" stroke-miterlimit="10" stroke-width="1.56"/><circle cx="244.53" cy="732.6" fill="#9fd0f4" r="9.09"/><path d="m244.53 741.7a9.1 9.1 0 0 1 0-18.19" fill="none" stroke="#231f20" stroke-miterlimit="10" stroke-width="1.56"/><circle cx="270.46" cy="737.03" fill="#9fd0f4" r="9.09"/><g stroke="#231f20" stroke-miterlimit="10" stroke-width="1.56"><path d="m270.46 746.12a9.09 9.09 0 0 1 0-18.18" fill="none"/><path d="m270.99 436.89h-22.16" fill="none"/><g fill="#fff"><path d="m604.96 537.62 24.66 1.12"/><path d="m604.96 523.71 27.17.65"/><path d="m614.13 547.26 14.51.38"/></g></g><path d="m600.42 492.02-9.91 85.95h-33.84l-10.11-85.95z" fill="#f78989"/><path d="m546.56 492.02h53.86l-9.91 85.95h-33.84" fill="none" stroke="#231f20" stroke-miterlimit="10" stroke-width="1.56"/><ellipse cx="573.49" cy="491.34" fill="#fff" rx="26.93" ry="5.74"/><ellipse cx="573.49" cy="494.2" fill="#231f20" rx="23.3" ry="2.87"/><g stroke="#231f20" stroke-miterlimit="10" stroke-width="1.56"><path d="m600.42 491.34c0 3.16-12 5.73-26.93 5.73s-26.93-2.57-26.93-5.73" fill="none"/><path d="m574.66 509.23c-14.88 0-26.94-2.57-26.94-5.74" fill="none"/><ellipse cx="786.21" cy="417.37" fill="#231f20" rx="3.37" ry="4.7"/><path d="m769.09 467.45s13.49 6.74 20.49-4.28" fill="none"/><ellipse cx="222.9" cy="400.24" fill="#231f20" rx="3.37" ry="4.7"/><path d="m236 457s-14.75 3.1-18.73-9.34" fill="none"/></g><path d="m779.83 754.93a36.81 36.81 0 0 0 -19.76 67.88l55.76-38.81a36.83 36.83 0 0 0 -36-29.07z" fill="#a9f3f7"/></svg>