<svg viewBox="0 0 1000 1000" xmlns="http://www.w3.org/2000/svg"><path d="m350.13 605.02-128.07-201.75 162.75-163.17 152.46 72.12 111.69-49.63 123.96 145.11-91.07 225.89 66.1 119.45-290.62 173.89-267.53-166.77 103.72-126.57z" fill="#fcba95" opacity=".74"/><path d="m290.41 334.74-68.35 68.53 35.6 56.08 36.47-11.91 58.85 22.32 67.84-40.35-51.94-77.26z" fill="#e8815d"/><path d="m122.07 608.18-15.75-111.31 3.16-8.22 12.65 41.74 14.55-50.59-8.22 67.03 15.81 66.41z" fill="#f78861"/><path d="m127.37 608.18-15.74-111.31 3.16-8.22 12.65 41.74 14.54-50.59-8.22 67.03 15.81 66.41z" fill="none" stroke="#0c0c0c" stroke-miterlimit="10" stroke-width="1.53"/><g fill="#f7a77f"><path d="m306.17 430.25 28.68 58.19-6.47 358.11 31.67 19.74-15.93-379.54 23.4-50.49h-4.43l-19.81 23.09v-44.54l-6.43-7.11-3.69 53.75-26.99-38.79z"/><path d="m397.55 844.72 20.23-345.57-89.4-135.29 85.67 95.49 4.48-115.8 8.36-5.74 9.36 133.45 32.82-85.49-32.82 121.13 15.6 306.19s-7.19 60.72-54.3 31.63z"/><path d="m503.5 746.48.31-400.13 35.95 441.45-26.14 8.43z"/></g><path d="m370.05 629.37-80.53 57.24-4.22 55.65-3.55-51.44-56.32 43.85-3.37-7.59 105.31-97.71z" fill="#f78861"/><path d="m374.9 633.59-80.53 57.23-4.22 55.66-3.55-51.44-56.32 43.85-3.37-7.59 105.31-97.71z" fill="none" stroke="#0c0c0c" stroke-miterlimit="10" stroke-width="1.53"/><path d="m644.15 605.02h-577.46l4.31 8.22 580.91 48.91z" fill="#f78861"/><path d="m644.15 597.94h-577.46l4.31 8.22 580.91 48.91z" fill="none" stroke="#0c0c0c" stroke-miterlimit="10" stroke-width="1.53"/><path d="m552.2 357.35-13.36-45.83-1.57.7-152.46-72.12-114.51 114.8 10.98 48.45 30.8 11.46 36.07-21.03 26.75 5.48 45.92-23.82 59.06 28.7z" fill="#f9986e"/><path d="m318.4 760.6-27-43.82-31.61 11.87-11.59-17.38h-30.99l-13.49 27.42-35.84-9.58-9.7 16.43-24.45-16.89-21.51 16.43v15.52l25.72 2.28-5.9 20.08 11.38 7.3 38.79-11.86 14.76 23.73h18.34l34.37-29.66 28.25 20.53 40.47-2.74z" fill="#fcb49a"/><g stroke="#0c0c0c" stroke-miterlimit="10" stroke-width="1.53"><path d="m331.47 760.6-27-43.82-31.6 11.87-11.6-17.38h-30.99l-13.49 27.42-35.84-9.58-9.7 16.43-24.45-16.89-21.51 16.43v15.52l25.72 2.28-5.9 20.08 11.39 7.3 38.78-11.86 14.76 23.73h18.34l34.37-29.66 28.25 20.53 40.47-2.74z" fill="none"/><path d="m553.55 572.72-5.78-42.33-72.21 25.35-280.06-10.8 24.3 37.85 14.27 22.23h310.85l9.38-26.8z" fill="#111"/><path d="m457.46 262.59-14.05 13.14 5.06 15.17-12.22 3.17 10.61 32.67 20.59-1.47z" fill="#754725"/><path d="m474.97 371.07-20.64 51.41-60.65-53.52-26.1-.79 43.79 68.09 68.31 23.09 4.84-57.77z" fill="#111"/><path d="m457.85 285.71s-5.16 28 .32 52c2.53 12.86 17.71 7.37 17.71 7.37l1.69 18.56 24.24-9.49s-8.96-84.67-43.96-68.44z" fill="#fff"/><path d="m575.95 432.99-23.75-75.64-39.85-3.1-37.38 16.82 4.91 33.07-22.55 53.84 59.13 81.58 98.17 12.49z" fill="#f9d53d"/><path d="m512.35 354.25 47.03 3.65-7.5-20.09-48.07 8.54-30.35 14.54 1.51 10.18z" fill="#f7a83e"/><path d="m350.13 326.28 37-28.42 18.34-2.42 33.52 90.33-63.76-14.7z" fill="#fff"/><path d="m283.41 315.94 16.02 30.99 30.78-8.75 14.33 16.23 24.34-7.48" fill="none"/></g><path d="m455.23 281.62 10.95 17.08 9.7-2.95 4.64 23.62 2.53-15.61 9.48 15.61 2.42 37.46 23.94 2.8-1.69 18.55 26.14 8.01 10.12 21.51 44.39-69.89-6.86-18.02-20.03 9.69-13.71-31.62-25.29 2.95.63-20.02-26.56-.64-5.38-21.22-19.71 11.1-18.34-14.02-15.39 14.55" fill="#754725"/><g stroke="#0c0c0c" stroke-miterlimit="10" stroke-width="1.53"><g fill="none" stroke-linecap="round"><path d="m484.74 270.03-17.08-13.49"/><path d="m511.25 285.77-6.8-26.84"/><path d="m557.26 407.7 44.39-69.89-6.86-18.02-20.03 9.69-13.71-31.62-25.29 2.95.63-20.02"/><path d="m514.13 377.26 33.01 8.93"/><path d="m491.89 356.03 30.8 3.6"/><path d="m484.32 319.37 2.53-15.61 9.48 15.61"/><path d="m459.03 281.62 10.95 17.08 9.7-2.95"/></g><path d="m359.93 339.18-8.01 4.64 15.66 24.35 26.1.79z" fill="#fff"/><path d="m418.53 316.03-68.4 10.25 46.76 64.51 39.36 2.99 8.73-8.85z" fill="#fff"/><path d="m350.13 326.28 35.68 63.67 50.44 3.83-26.67-67.5z" fill="#95fce8"/><path d="m351.92 343.82 15.6-8.64 8.22 8.64 9.07 25.3-17.29-.95z" fill="#fff"/><path d="m459.15 310.09-6.17 16.19h8.7" fill="#fff"/><path d="m614.63 552.05-78.65-10.01-113.85-127.23-156.47 95.1 41.26 40.38 21.46 21.01 89.4-72.15 7.93-6.39 83.69 112.26h122.27z" fill="#7accf9"/><g fill="#fff"><path d="m535.98 542.05 28.86 32.61"/><path d="m409.58 326.28 8.95-10.25"/><path d="m405.47 295.44-55.34 30.84"/></g><path d="m445.19 303.73h9.71v14.47h-9.71z" fill="#c0def9"/><g fill="#f973bc"><path d="m554.51 296.83 1.92-20.45 19.52 10.44-16.27 12.77z"/><path d="m553.2 299.27-15.93 12.95 19.51 10.44 1.59-20.62z"/><rect height="16.05" rx="2.96" transform="matrix(.47162761 -.88179782 .88179782 .47162761 29.95 648.38)" width="11.62" x="550.21" y="291.18"/></g><path d="m286.6 605.02 41.78-33.72-21.46-21.01-33.11 38.94.53 9.47z" fill="#fff"/><path d="m231.79 555.86-9.73 2.92 49.65 58.26 14.89-12.02-12.26-6.32-.53-9.47-.52.61z" fill="#ea9734"/><g fill="#111"><path d="m182.22 605.02h51.85l-14.27-22.23-39.8 4.21-4.95 8.74z"/><path d="m144.27 541.77 19.92 63.25h18.03l-7.17-9.28 4.95-8.74-27.19-45.23z"/></g></g><path d="m158.81 490.86 1.9 11.39-28.18 11.34-16.23-2.45-34.33 23.68-21.01-21.98 16.27-15.97h7.59l-1.58-35.42 24.66-12.01-18.02-17.08 1.58-12.65 42.69-12.01 15.49 7.11 21.82 35.26 9.49-9.17 19.29 2.85v31.93l-18.02 23.09z" fill="#fcb49a"/><path d="m169.71 490.86 1.89 11.39-28.17 11.34-16.24-2.45-34.33 23.68-21.01-21.98 16.27-15.97h7.59l-1.58-35.42 24.66-12.01-18.02-17.08 1.58-12.65 42.69-12.01 15.49 7.11 21.82 35.26 9.49-9.17 19.29 2.85v31.93l-18.02 23.09z" fill="none" stroke="#0c0c0c" stroke-miterlimit="10" stroke-width="1.53"/><path d="m646.85 818.15-42.98-617.26 76.3-27.83 67.78 579.98z" fill="#f78861"/><path d="m653.69 813.38-42.98-617.27 76.3-27.83 68.6 587.11" fill="none" stroke="#0c0c0c" stroke-miterlimit="10" stroke-width="1.53"/><path d="m678.45 374.81 108.1-188.47h-12.83l-104.98 130.31" fill="#f78861"/><path d="m681.97 382.22 108.1-188.47h-12.83l-104.98 130.32" fill="none" stroke="#0c0c0c" stroke-miterlimit="10" stroke-width="1.53"/><path d="m226.91 827.01 198.16 125.13-106.67 22.86z" fill="#fcba95" opacity=".74"/><path d="m679.99 806.77-11.25-27.83-58.99 23.19-13.47-28.25-37.13-13.72-36.77 22.58-18.88-36.26h-22.14l-60.54 55.65 4.25 32.47h-50.17l-14.85 31.69 97.28 60.64z" fill="#fff"/><g stroke="#0c0c0c" stroke-miterlimit="10" stroke-width="1.53"><g fill="none"><path d="m703.35 819.05-15.85-39.21-58.99 23.19-13.47-28.25-37.13-13.72-36.77 22.57-18.88-36.26h-22.14l-60.54 55.66 4.25 32.46h-50.17l-25.05 53.44 10.19-21.75"/><path d="m396.28 900.67 9.75-30.35 44.43 5.06 18.34-22.77 27.2 15.18 5.06 17.7"/><path d="m633.38 847.25-17.71-26.57-27.6 9.7-23.4-23.61-28.69 5.06"/><path d="m448.47 258.93-25.08 26.28-18.72-12.22-23.87 15-16.44-10.93"/><path d="m475.88 345.08 8.25-3.08"/></g><path d="m478.96 311.56h-22.26" fill="#fff"/><path d="m461.12 302.47h9.71v14.47h-9.71z" fill="#c0def9"/><ellipse cx="465.98" cy="310.09" fill="#fff" rx=".63" ry="1.98"/><ellipse cx="451.64" cy="310.46" fill="#fff" rx=".63" ry="1.98"/><ellipse cx="465.08" cy="334.33" fill="#0c0c0c" rx="1.74" ry="3.48" transform="matrix(.98447256 -.17553855 .17553855 .98447256 -51.48 86.86)"/><path d="m117 491.9-5.37-10.76 16.76-14.54 16.76 2.21 9.8-18.02 9.17-3.16" fill="none"/></g><path d="m336.85 194.98 47.96-18.55 29.25 42.16 87.75-21.08 35.46 32.89h32l62.4-37.1 45.18 16.26 49.27-22.16 36.26 46.37h34.93l46.86-60.71 53.13 16.02 26.14-56.5-13.49-61.55-197.32-32.89-406.46 41.32-48.06 60.71z" fill="#fcb49a"/><g stroke="#0c0c0c" stroke-miterlimit="10" stroke-width="1.53"><path d="m242.51 105.31 109.94 76.54 47.96-18.56 29.24 42.17 87.76-21.08 35.46 32.88h32l62.4-37.1 45.18 16.26 49.27-22.16 36.26 46.38h34.93l46.86-60.72 53.13 16.02 26.14-56.5-20.7-94.44" fill="none"/><path d="m436.25 117.4 17.07 24.04 50.18-18.62 48.7 24.94 62.43-24.94 48.24 13.14" fill="none"/><path d="m485.16 394.1 23.4 57.23-3.8 1.82-62.72-50.44-19.91 12.1 87.85 98.09 49.17-34.37-33.52-93.28" fill="#f9d53d"/><path d="m418.75 383.98 2.07-24.35h-3.65l-6.96 13.28-35.62-12.88-.11 8.14h-6.96l7.59 20.87 25.93 2.21 21.09 23.56 19.91-12.1z" fill="#fff"/><g fill="#111"><path d="m342.05 560.27-74.24-71.62"/><path d="m425.71 492.76 17.07-12.75"/><path d="m374.48 368.17 25.51 6.64"/><path d="m369.94 374.81 28.78 6.53"/><path d="m373.12 383.56 20.07 2.21"/><path d="m372.8 340.73-14.13 8.15"/><path d="m377.02 347.38-14.14 7.53"/><path d="m379.72 354.91-12.2 6.62"/></g></g><path d="m211.13 363.64 130.92-129.87-130.92 61.67z" fill="#fcba95" opacity=".74"/></svg>