<svg viewBox="0 0 1000 1000" xmlns="http://www.w3.org/2000/svg" xmlns:xlink="http://www.w3.org/1999/xlink"><clipPath id="a"><ellipse cx="519.68" cy="757.06" rx="292.86" ry="75.72"/></clipPath><path d="m820.05 345.8-54.06 166.16 74.44 89.07 14.8-271.32z" fill="#0a0a0a" stroke="#0a0a0a" stroke-linecap="round" stroke-miterlimit="10" stroke-width="1.33"/><path d="m848.41 799.53-341.18 134.71-340.23-160.41 88.55-254.56-110.78-310.78 362.94-171.97 316.77 171.97-81.53 209.69 5.32 201.46z" fill="#0a0a0a"/><path d="m801.88 644.89-63.52 207.37-117.7 69.12-217.9-18.01" fill="none" stroke="#fff" stroke-linecap="round" stroke-miterlimit="10" stroke-width="1.33"/><path d="m658.89 118.59-151.18-82.07-210.2 99.6v459.7h361.38z" fill="#fcbd4c"/><path d="m294.45 336.38v-122.11h56.14v52.47h17.37v-79.19h35.12v175.55h30.87v-208.94h55.01v83h42.19v152.15h31.25v-115.89h46.74v81.62h14.62v-126.1h36.78v363h-362.9z" fill="#fff"/><g stroke-linecap="round" stroke-miterlimit="10" stroke-width="1.33"><path d="m302.74 440.07h359.57" fill="none" stroke="#0a0a0a"/><path d="m302.74 196.07h359.57" fill="none" stroke="#0a0a0a"/><path d="m668.73 123.94-19.69-10.69v469.5h19.69z" fill="#0a0a0a" stroke="#fff"/></g><path d="m611.37 893.12 74.21-29.3 22.81-66.94-513.19-9.75 101.87 48.02 93.97 44.31z" fill="#a7e5f9"/><path d="m285.01 94.57h19.69v488.18h-19.69z" fill="#0a0a0a" stroke="#fff" stroke-linecap="round" stroke-miterlimit="10" stroke-width="1.33"/><path d="m672.97 804.41-23.93 8.57 5.39 63.14 15.46-6.11z" fill="#fff"/><path d="m753.59 962.59v-172.81l-30.46 21.74 18.94 163.48" fill="#fff" stroke="#0a0a0a" stroke-linecap="round" stroke-miterlimit="10" stroke-width="1.33"/><path d="m265.84 567h414.64v60.16h-414.64z" fill="#0a0a0a" stroke="#fff" stroke-linecap="round" stroke-miterlimit="10" stroke-width="1.33"/><path d="m369.61 869.35 13.67 6.45 7.2-62.83-23.93-8.56z" fill="#fff"/><path d="m285.93 962.59v-172.81l30.46 21.74-18.94 163.48" fill="#fff" stroke="#0a0a0a" stroke-linecap="round" stroke-miterlimit="10" stroke-width="1.33"/><path d="m638.82 240.35h-29.68s-2.22 49.62 37.22 68.23c-4.43 22.16 0 63 0 63l-22.6 18.05v23.97s-27.47-5.76-34.12 12.85-12 48.74-12 48.74l86-43.43 16.84-86.84z" fill="#c64528"/><path d="m609.14 240.35s-2.22 49.62 37.22 68.23c-4.43 22.16 0 63 0 63l-22.6 18.05v23.97s-27.47-5.76-34.12 12.85-12 48.74-12 48.74l86-43.43 16.84-86.84" fill="none" stroke="#0a0a0a" stroke-linecap="round" stroke-miterlimit="10" stroke-width="1.33"/><path d="m488.96 503.95-43.36-134.5-8.42 1.78-.05 22.95-8.11 4.57-15.57 8.82 5.82 52.11 14.84-1.55 14.3 68.2z" fill="#f98c99"/><path d="m488.96 503.95-43.36-134.5-8.42 1.78-.05 22.95-8.11 4.57-15.57 8.82" fill="none" stroke="#0a0a0a" stroke-linecap="round" stroke-miterlimit="10" stroke-width="1.33"/><path d="m490.78 36.52v531.23" fill="none" stroke="#0a0a0a" stroke-linecap="round" stroke-miterlimit="10" stroke-width="1.33"/><path d="m630.85 428.22-45.9 13.77-56.86 184.99-18.84-59.23-20.29-63.8-40.55 22.38-30.55 16.87 66.08 152.56.51 1.18h6.03 84.76l99.03-238.15z" fill="#a7e5f9"/><path d="m417.86 543.2 66.08 152.56.51 1.18h6.03 84.76l99.03-238.15-43.42-30.57-45.9 13.77-56.86 184.99-18.84-59.23-20.29-63.8" fill="none" stroke="#0a0a0a" stroke-linecap="round" stroke-miterlimit="10" stroke-width="1.33"/><path d="m707.5 406.95-76.65 21.27-53.17 91.05 15.77 46.53-68.72 182.11 124.31-5.52 79.41-324.21z" fill="#fff"/><path d="m524.73 747.91 124.31-5.52 79.41-324.21-20.95-11.23-76.65 21.27-53.17 91.05 15.77 46.53" fill="none" stroke="#0a0a0a" stroke-linecap="round" stroke-miterlimit="10" stroke-width="1.33"/><path d="m811.05 462.47-82.6-44.29-79.41 324.21 114.96-5.11z" fill="#a7e5f9" stroke="#0a0a0a" stroke-linecap="round" stroke-miterlimit="10" stroke-width="1.33"/><g clip-path="url(#a)"><ellipse cx="519.68" cy="757.06" fill="#ed7eb9" rx="292.86" ry="75.72"/><g fill="none" stroke="#fff" stroke-linecap="round" stroke-miterlimit="10" stroke-width="1.33"><path d="m224.91 666.69v174.05"/><path d="m259.86 666.69v174.05"/><path d="m294.8 666.69v174.05"/><path d="m329.74 666.69v174.05"/><path d="m364.68 666.69v174.05"/><path d="m399.62 666.69v174.05"/><path d="m434.56 666.69v174.05"/><path d="m469.5 666.69v174.05"/><path d="m504.44 666.69v174.05"/><path d="m539.38 666.69v174.05"/><path d="m574.32 666.69v174.05"/><path d="m609.26 666.69v174.05"/><path d="m644.21 666.69v174.05"/><path d="m679.15 666.69v174.05"/><path d="m714.09 666.69v174.05"/><path d="m749.03 666.69v174.05"/><path d="m783.97 666.69v174.05"/><path d="m818.91 666.69v174.05"/><path d="m826.25 666.69h-646.92"/><path d="m826.25 691.37h-646.92"/><path d="m826.25 716.05h-646.92"/><path d="m826.25 740.74h-646.92"/><path d="m826.25 765.42h-646.92"/><path d="m826.25 790.1h-646.92"/><path d="m826.25 814.78h-646.92"/><path d="m826.25 839.47h-646.92"/></g></g><g stroke="#0a0a0a" stroke-linecap="round" stroke-miterlimit="10" stroke-width="1.33"><ellipse cx="519.68" cy="757.06" fill="none" rx="292.86" ry="75.72"/><path d="m649.46 274.91-25.7 95.26 34.56 2.22-17.28 93.93 66.46-59.37 6.21-128.5-58.43-25.4z" fill="#f98c99"/><path d="m294.41 717.13v-110.45l62.83-1.67-10.64 94.05z" fill="#bfe870"/><path d="m283.9 731.77 15.51 25.3 132.04 49.55 49.55-70.45v-26.58z" fill="#fff"/><path d="m485.07 708.26-143.56-56.72-57.61 80.23 142.46 55.36z" fill="#fcbd4c"/></g><ellipse cx="378.52" cy="717.13" fill="#bb70fc" rx="22.36" ry="42.98" transform="matrix(.29153706 -.95655953 .95655953 .29153706 -417.81 870.15)"/><ellipse cx="378.52" cy="709.58" fill="none" rx="22.36" ry="42.98" stroke="#fff" stroke-linecap="round" stroke-miterlimit="10" stroke-width="1.33" transform="matrix(.29153706 -.95655953 .95655953 .29153706 -410.59 864.8)"/><path d="m321.01 603.02 1-136.42" fill="none" stroke="#0a0a0a" stroke-linecap="round" stroke-miterlimit="10" stroke-width="1.33"/><path d="m695.1 314.79s-58.05-19.94-64.25-74.44h97.92s36.78 13.73 31 64.69c-6.63 34.96-16.77 42.09-16.77 42.09l44.76 18.17-21.8 40.2 54.14 7.21-9 49.76-103.6-55.47 3.55-84.19-6.65 3.55-6.64 33.38z" fill="#f99746"/><path d="m820.05 412.71-9 49.76-103.55-55.47 3.55-84.19-6.65 3.55-6.64 33.38-2.66-44.9s-58.05-19.94-64.25-74.44" fill="none" stroke="#0a0a0a" stroke-linecap="round" stroke-miterlimit="10" stroke-width="1.33"/><path d="m586.16 670.67-151.95 7.66-34.9 18.61 7.28 7.9-30.74 22.47 21.27 8.64 35.67-24.15 1.77 2.22-30.13 25.25 7.66 4.72 32.66-23.11 1.99 2.22-25.71 23.47 7.1 5.77 41.43-33.01 103.96-3z" fill="#f98c99"/><path d="m386.82 731.77 39.54-29.27" fill="#fff" stroke="#0a0a0a" stroke-linecap="round" stroke-miterlimit="10" stroke-width="1.33"/><path d="m371.19 526.33-39.54 84h-21.27l-36.1-102.21 43.58-30.39 39.38 15.84z" fill="#a0f9ee"/><g stroke="#0a0a0a" stroke-linecap="round" stroke-miterlimit="10" stroke-width="1.33"><path d="m406.59 704.84 22.54-15.79" fill="#fff"/><g fill="none"><path d="m350.59 506.65-16.28 46.08-8.49 52.28"/><path d="m317.69 603.02-11.63-91.06"/></g></g><path d="m744.73 448.82-42.54 216.01-29.86 1.51-86.17 4.33-12.64 45.66-11.12 40.17 205.15-39.37 43.5-254.66" fill="#a7e5f9"/><g fill="none" stroke="#0a0a0a" stroke-linecap="round" stroke-miterlimit="10" stroke-width="1.33"><path d="m562.4 756.5 205.15-39.37 43.5-254.66"/><path d="m421.03 746.57 7.1 5.77 41.43-33.01 103.96-3"/><path d="m404.43 739.27 7.66 4.72 32.66-23.11 1.99 2.22"/></g><path d="m423.87 432.54-.33-1.83-8.05 4.26 3.78 24.71 24.06-9.89-3.23-19.38z" fill="#f98c99"/><g stroke="#0a0a0a" stroke-linecap="round" stroke-miterlimit="10" stroke-width="1.33"><g fill="none"><path d="m419.27 459.68 24.06-9.89-3.23-19.38-16.23 2.13-.33-1.83"/><path d="m375.85 727.31 21.27 8.64 35.67-24.15 1.77 2.22"/><path d="m399.31 696.94 7.28 7.9"/><path d="m586.16 670.67-154.79 7.66"/><path d="m744.73 448.82-42.54 216.01-29.86 1.51-86.17 4.33"/><path d="m322.74 491.03v116.64l8.91 2.66 27.91-81.97-21.91-38.33-53.19 8.64 34.89 109"/></g><path d="m441.39 440.9-16.03 2.77" fill="#fff"/><path d="m277.08 501.82-6.03-42.14 26.7-8.86 23.76 10.3 35.73-1.44 6.64 29.02 24.6-3.32 14.28 21.27-7.14 16.28h-35.73l-14.84-26.59z" fill="#f975a1"/></g><path d="m162.5 120.71s-11.5 84.29 31.01 87.78 49.63 38.06 18.61 60.21-11.78 103.69 85.39 54.95c70.45-25.7 63.05 49.4 63.05 49.4s40.06-34.34 7.4-75.1 87.2-54.06 57.4-106.35c-20.93-35.1-47.24-39.87-7.5-89.5s-1.86-75.33-40.86-77.1" fill="#fff"/><path d="m171 120.71s-11.52 84.27 31 87.78 49.63 38.06 18.61 60.21-11.78 103.69 85.39 54.95c70.45-25.7 63.05 49.4 63.05 49.4s40.06-34.34 7.4-75.1 87.2-54.06 57.4-106.35c-20.94-35.1-47.24-39.87-7.5-89.5s-1.86-75.33-40.85-77.1" fill="none" stroke="#0a0a0a" stroke-linecap="round" stroke-miterlimit="10" stroke-width="1.33"/><path d="m317.69 603.02-27.58-71.45-17.28-5.24v16.21l33.23 65.13z" fill="#a0f9ee"/><path d="m306.06 607.67 11.63-4.65-27.58-71.45-17.28-5.24" fill="none" stroke="#0a0a0a" stroke-linecap="round" stroke-miterlimit="10" stroke-width="1.33"/><path d="m325.82 605.01 15.24-33.23 41.21-19.05v9.85l-25.03 20.28-7.76 22.15z" fill="#a0f9ee"/><path d="m382.27 552.73v9.85l-25.03 20.28-7.76 22.15h-23.66" fill="none" stroke="#0a0a0a" stroke-linecap="round" stroke-miterlimit="10" stroke-width="1.33"/><path d="m369.64 619.64h-87.95l5.09-18.61h77.1z" fill="#bfe870" stroke="#0a0a0a" stroke-linecap="round" stroke-miterlimit="10" stroke-width="1.33"/><path d="m365.21 482.65-27.56 7.38-1.35 12.96-8.64 7.31 14.52 20.14 34.33 5.78 5.76-13.62-7.42-8.97 10.63-10.31z" fill="#f975a1"/><path d="m342.18 530.44 34.33 5.78 5.76-13.62-7.42-8.97 10.63-10.31-20.27-20.67-27.56 7.38" fill="none" stroke="#0a0a0a" stroke-linecap="round" stroke-miterlimit="10" stroke-width="1.33"/><path d="m336.3 502.99-8.64 7.31" fill="none" stroke="#0a0a0a" stroke-linecap="round" stroke-miterlimit="10" stroke-width="1.33"/><path d="m350.59 462.78-15.29 19.87-17.61 4.39-13.63-19.94-14.62.28-4.32-22.17 17.28-2.93 9.48-14.06 18.77 5.98-2.99 18.61 20.94-2.99z" fill="#f975a1"/><g fill="none" stroke="#0a0a0a" stroke-linecap="round" stroke-miterlimit="10" stroke-width="1.33"><path d="m348.6 449.82 1.99 12.96-15.29 19.87-17.61 4.39-13.63-19.94-14.62.28-1.31-6.73-3.01-15.44 17.28-2.93"/><path d="m311.88 428.22 18.77 5.98-2.99 18.61"/><path d="m336.3 502.99 7.14 16.28h9.64"/><path d="m374.85 513.63-10.47-10.64-11.3.83 4.49 14.46 7.81-2.66-3.32-8.97-3.83 2.66"/><path d="m327.66 452.81-1.84 13.79-20.43-6.89 6.49-15.54 10.8 3.65-1.67 9.81-7.81-2.99"/></g><path d="m287.23 494.02 14.4-11.37 14.9 13.58-3.38 13.21 4.71 8.84-20.22 11.63-12.52-13.52-10.84 3.97-3.23-24.35z" fill="#f975a1"/><g fill="none" stroke="#0a0a0a" stroke-linecap="round" stroke-miterlimit="10" stroke-width="1.33"><path d="m285.12 516.39-10.84 3.97-3.23-24.35 16.18-1.99 14.4-11.37 14.9 13.58"/><path d="m313.15 509.44 4.71 8.84-20.22 11.63"/><path d="m285.12 516.39 20.27-7.97-5.09-14.85-11.52 4.44 1.55 9.52 8.42-1.25-3.49-6.5"/></g><g fill="#0a0a0a"><path d="m334.31 552.73 19.74-3.1 2.52 7.86-8.64 3.66-14.4-3.66z"/><path d="m339.5 538.02-5.97-9.66-5.87 3.1 1.22 3.35 9.33 5.29z"/><path d="m321.51 534.81-6.59-6.45-3.04 8.86 9.37 1.72z"/><path d="m311.38 553.64-8.64-4.01 1.32 7.86h7.82z"/></g><path d="m285.12 545.2 25.26 55.83" fill="#fff" stroke="#0a0a0a" stroke-linecap="round" stroke-miterlimit="10" stroke-width="1.33"/><path d="m339.5 601.03 9.43-24.6 22.26-11.96" fill="none" stroke="#0a0a0a" stroke-linecap="round" stroke-miterlimit="10" stroke-width="1.33"/><circle cx="562.4" cy="136.66" fill="#fff" r="27.47"/><g stroke="#0a0a0a" stroke-linecap="round" stroke-miterlimit="10" stroke-width="1.33"><circle cx="554.86" cy="135.33" fill="none" r="27.47"/><path d="m680.48 373.94-25.47-1.76" fill="none"/><path d="m650.7 287.48a.43.43 0 0 0 0 0h-3a.43.43 0 0 0 0 0h-38c0 14.13 8.51 25.59 19 25.59 9.35 0 17.1-9.11 18.68-21.09h3.62c1.58 12 9.33 21.09 18.68 21.09 10.49 0 19-11.46 19-25.59z" fill="#a0f9ee"/><path d="m643.03 327.86h-13.95l17.93-35.88h2.03" fill="#f98c99"/></g><path d="m641.48 340.71h17.41s-3.23 10.1-15.41 10.7c1.71-7.49-2-10.7-2-10.7z" fill="#fff"/><g fill="none" stroke="#0a0a0a" stroke-linecap="round" stroke-miterlimit="10" stroke-width="1.33"><path d="m639.06 351.41c15.49 1.32 20.76-11.15 20.76-11.15l-21 .45 2.66-5.21"/><path d="m704.4 326.31 5.32-26s-41-21.82-41-59.92"/><path d="m696.87 240.35s3.55 39.76 28.58 47.13v85.57l29.47 3.33-7.54 39.87 35 6.65-5.49 21.26"/><path d="m716.37 240.35s11.07 35 30.57 43c-.44 14.17-4 63.8-4 63.8"/><path d="m708.83 390.56 22.82 3.54-3.2 24.08"/><path d="m713.71 412.58-61.15 81.66-11.52-27.92-24.81 16.33 25.25-57.38"/><path d="m641.04 466.32-20.38 42.99"/><path d="m593.45 565.8 9.42 25"/><path d="m580.69 752.99 19.58-83.03"/></g><path d="m395.62 393.66 26.75-5.32 6.68 17.95-.7 31.9-27.41 12.63-.88-7.8 17.8-9.29 2.19-24.29-4.56-10.39-19.87 5.57z" fill="#bfe870"/><g fill="none" stroke="#0a0a0a" stroke-linecap="round" stroke-miterlimit="10" stroke-width="1.33"><path d="m422.37 388.34 6.68 17.95-.7 31.9-27.41 12.63-.88-7.8 17.8-9.29 2.19-24.29-4.56-10.39-19.87 5.57v-10.96"/><path d="m702.19 664.83h20.94"/><path d="m528.09 626.97 7.27 24.57"/></g><path d="m402.6 383.94 3.44 66.51-29.24 11.67-24.28-6.5-19.29-63 36.4-2.57z" fill="#bfe870"/><path d="m333.23 392.62 36.4-2.57 32.97-6.11 3.44 66.51-29.24 11.67-24.28-6.5" fill="none" stroke="#0a0a0a" stroke-linecap="round" stroke-miterlimit="10" stroke-width="1.33"/><path d="m424.67 556.57 69.64-37.59" fill="none" stroke="#0a0a0a" stroke-linecap="round" stroke-miterlimit="10" stroke-width="1.33"/><path d="m403 383.66c-.64-4.93-16.77-6.92-36-4.45s-34.36 8.48-33.73 13.41c.32 2.49 4.58 4.22 11.19 5a105.55 105.55 0 0 0 24.84-.57c10.08-1.3 19-3.56 25.17-6.13 5.53-2.32 8.82-4.92 8.53-7.26z" fill="#f99746"/><path d="m333.23 392.62c.32 2.49 4.58 4.22 11.19 5a105.55 105.55 0 0 0 24.84-.57c10.08-1.3 19-3.56 25.17-6.13 5.58-2.34 8.86-4.93 8.56-7.28" fill="none" stroke="#0a0a0a" stroke-linecap="round" stroke-miterlimit="10" stroke-width="1.33"/><path d="m368.49 386.55c-12.94 1.66-23.15 6.47-24.07 11.09a105.55 105.55 0 0 0 24.84-.57c10.08-1.3 19-3.56 25.17-6.13-2.38-4.07-13.27-6.02-25.94-4.39z" fill="#0a0a0a" stroke="#0a0a0a" stroke-linecap="round" stroke-miterlimit="10" stroke-width="1.33"/><path d="m446.63 418.42-1.99-11.8-22.93 11.8-.67-2.66 22.77-12.3-2.83-11.46-29.51 16.7 4.02 26.27 8.05-4.26z" fill="#f98c99"/><g stroke-linecap="round" stroke-miterlimit="10" stroke-width="1.33"><path d="m415.49 434.97 8.05-4.26 23.09-12.29-1.99-11.8-22.93 11.8-.67-2.66 22.77-12.3-2.83-11.46-29.51 16.7" fill="none" stroke="#0a0a0a"/><ellipse cx="374.85" cy="428.22" fill="none" rx="15.23" ry="17.67" stroke="#fff" transform="matrix(.99213656 -.12516007 .12516007 .99213656 -50.66 50.3)"/><path d="m226.82 544.03-36.41 82.95-38.55-59.23 61.15-47.39z" fill="#0a0a0a" stroke="#0a0a0a"/></g></svg>